<svg width="149" height="48" viewBox="0 0 149 48" fill="none" xmlns="http://www.w3.org/2000/svg">
<path fill-rule="evenodd" clip-rule="evenodd" d="M142.63 0.00650049C143.807 -0.0866787 144.881 0.835305 145.018 1.90932C145.101 2.57629 144.91 3.20892 144.645 3.59145C144.336 4.05734 143.665 4.48401 143.101 4.55757C141.541 4.76845 140.457 3.58654 140.457 2.28204C140.443 1.07071 141.301 0.114392 142.63 0.00650049Z" fill="#E21F24"/>
<path fill-rule="evenodd" clip-rule="evenodd" d="M106.276 26.6165C105.197 26.5871 104.049 26.6606 103.034 26.5822C104.206 18.7453 105.354 10.8888 106.492 3.11572C107.595 3.11572 108.826 3.11572 109.856 3.11572C109.871 3.11572 109.885 3.15005 109.905 3.15005C108.674 10.9428 107.497 18.8091 106.276 26.6165Z" fill="#E21F24"/>
<path fill-rule="evenodd" clip-rule="evenodd" d="M146.185 5.50905C147.367 5.36682 148.294 6.14659 148.588 7.01463C148.677 7.27455 148.75 7.67178 148.681 8.09354C148.441 9.99146 146.028 10.5996 144.792 9.36863C143.9 8.5104 144.018 6.92145 144.763 6.1564C145.101 5.8082 145.558 5.5728 146.185 5.50905Z" fill="#E21F24"/>
<path fill-rule="evenodd" clip-rule="evenodd" d="M76.218 7.13231C78.3072 7.13231 80.4209 7.13231 82.5444 7.13231C82.5444 8.62317 82.5444 10.1091 82.5444 11.5951C82.9906 11.6589 83.6821 11.5951 84.0892 11.6245C84.0892 13.2527 84.0892 14.8711 84.0892 16.5042C83.6625 16.5042 83.0593 16.5042 82.564 16.5042C82.5002 19.7998 82.564 23.2131 82.5444 26.5577C80.4846 26.4793 78.1699 26.543 76.1542 26.5332C76.1395 23.218 76.1935 19.839 76.1199 16.5777C75.7423 16.4797 74.9282 16.5091 74.5751 16.5483C74.5064 14.9643 74.5653 13.2478 74.5506 11.6C75.0116 11.654 75.6589 11.654 76.1199 11.6C76.1886 10.1925 76.1346 8.6575 76.1542 7.19606C76.1346 7.14211 76.218 7.06365 76.218 7.13231Z" fill="#14A1DC"/>
<path fill-rule="evenodd" clip-rule="evenodd" d="M140.801 9.53535C141.684 9.41275 142.473 9.79527 142.87 10.2563C143.017 10.4426 143.356 11.0409 143.395 11.394C143.567 12.9487 142.493 14.0472 141.129 14.0619C140.207 14.0619 139.344 13.4342 139.03 12.7525C138.873 12.3994 138.77 11.8109 138.873 11.291C139.045 10.374 139.776 9.65796 140.801 9.53535Z" fill="#E21F24"/>
<path fill-rule="evenodd" clip-rule="evenodd" d="M70.1419 9.97674C70.0488 9.9277 69.2837 10.1484 69.166 10.0111C69.1954 10.0503 69.5338 9.97674 69.627 9.97674C69.833 9.97674 69.9703 9.97674 70.1419 9.97674Z" fill="white"/>
<path fill-rule="evenodd" clip-rule="evenodd" d="M133.901 12.5907C133.288 13.3753 132.606 14.1453 131.934 14.8907C131.483 14.415 130.998 13.7235 130.331 13.493C129.389 13.1399 128.653 14.0864 128.462 14.8711C128.212 15.9304 129.041 16.6072 129.644 16.9014C130.022 17.0829 130.453 17.1417 130.86 17.3428C131.267 17.5488 131.655 17.9166 131.934 18.2501C132.405 18.8435 132.645 19.6134 132.832 20.4422C132.998 22.7619 132.405 24.4686 131.385 25.5916C130.644 26.2341 129.673 26.7981 128.55 26.9697C127.991 27.0678 127.368 27.1119 126.829 26.9697C125.26 26.5823 124.063 25.4053 123.038 24.4833C123.627 23.8261 124.176 23.1395 124.843 22.5363C125.245 22.8404 125.632 23.1199 126.054 23.3749C126.5 23.6496 126.986 23.9095 127.447 24.0174C128.693 24.2675 129.502 23.4828 129.673 22.3941C129.781 21.7271 129.458 21.0798 129.1 20.7365C128.599 20.2608 127.962 20.1088 127.339 19.8096C126.746 19.5301 126.196 19.1721 125.794 18.6473C125.225 17.897 124.902 16.7543 125.064 15.3811C125.196 14.0963 125.819 13.037 126.584 12.2866C127.373 11.5118 128.516 11.0115 129.678 10.9036C131.581 10.7614 132.788 11.6393 133.901 12.5907Z" fill="#E21F24"/>
<path fill-rule="evenodd" clip-rule="evenodd" d="M91.1461 24.9982C91.0088 25.1993 91.053 25.4788 91.0137 25.7191C90.5478 28.6028 90.1065 31.5796 89.6847 34.4387C88.3655 34.4534 87.1051 34.4142 85.8447 34.3701C86.9727 26.8471 88.135 19.1426 89.3169 11.5608C90.5969 11.5608 91.872 11.5608 93.1421 11.5608C93.1421 11.7913 93.0195 11.8648 93.0588 12.1346C93.4805 12.061 93.8042 11.8354 94.1671 11.7128C95.3294 11.3303 96.7075 11.4088 97.8403 11.9531C99.4048 12.7182 100.538 14.2581 101.018 16.2001C101.131 16.6366 101.165 17.0535 101.234 17.5341C101.278 17.8185 101.352 18.5688 101.312 19.0445C101.298 19.1426 101.249 19.2456 101.234 19.3241C101.2 19.5987 101.209 19.8783 101.156 20.1578C100.758 22.3107 99.5617 24.2479 98.1297 25.3758C97.193 26.1262 95.7953 26.7588 94.1132 26.5479C93.2059 26.4302 92.5683 26.0036 91.8229 25.5818C91.6317 25.3562 91.4061 25.1649 91.1461 24.9982ZM92.6664 15.6116C91.8818 16.4012 91.151 17.7989 91.1707 19.3878C91.1854 20.6531 91.6317 21.7271 92.2447 22.4088C92.8087 23.0512 93.6473 23.5024 94.6624 23.4093C96.5113 23.2327 98.0022 21.3005 98.1689 19.2505C98.2572 17.8087 97.9433 16.8769 97.448 16.1266C96.8693 15.2242 96.0699 14.6504 94.8782 14.6504C93.9758 14.67 93.1863 15.1114 92.6664 15.6116Z" fill="#E21F24"/>
<path fill-rule="evenodd" clip-rule="evenodd" d="M114.652 11.5657C114.358 13.395 114.147 15.4988 113.877 17.5046C113.823 17.7793 113.74 18.0539 113.71 18.3089C113.617 18.9661 113.583 19.6183 113.494 20.2314C113.47 20.4324 113.377 20.8542 113.426 21.1926C113.529 22.2372 114.191 22.9483 115.044 23.0709C116.3 23.2523 117.227 22.7766 117.776 21.8694C118.256 20.6874 118.256 18.9612 118.595 17.5929C118.835 15.7539 119.11 13.9344 119.414 12.1591C119.379 11.9041 119.473 11.7717 119.492 11.5608C120.556 11.5608 121.606 11.5608 122.67 11.5608C122.243 14.4592 121.846 17.794 121.424 20.6825C121.277 21.7271 120.87 22.7276 120.458 23.5319C120.017 24.3607 119.419 25.0423 118.806 25.5916C118.08 26.0036 117.383 26.44 116.461 26.5577C113.107 26.9648 110.449 25.3317 109.914 22.2077C109.816 21.5506 109.816 20.8297 109.914 20.2068C110.047 19.4026 110.164 18.5934 110.292 17.7744C110.366 17.3036 110.424 16.8033 110.488 16.3276C110.763 14.7534 111.003 13.2233 111.229 11.6589C111.229 11.6 111.263 11.5804 111.278 11.5657C112.42 11.5657 113.529 11.5657 114.652 11.5657Z" fill="#E21F24"/>
<path fill-rule="evenodd" clip-rule="evenodd" d="M66.6891 11.5999C68.6213 11.6636 70.6615 11.5999 72.6231 11.6293C72.6231 16.607 72.6231 21.57 72.6231 26.5576C70.7056 26.5085 68.587 26.5085 66.6646 26.5576C66.6646 21.5995 66.6646 16.6413 66.6646 11.6783C66.6646 11.6538 66.6646 11.5999 66.6891 11.5999Z" fill="#14A1DC"/>
<path fill-rule="evenodd" clip-rule="evenodd" d="M72.6773 6.1415C72.6381 6.72019 72.7362 7.13214 72.6773 7.60785C72.6724 7.71574 72.6087 8.00018 72.5351 8.17673C72.2997 8.9663 71.6573 9.68231 70.956 9.94223C70.4656 10.1384 69.7643 10.1433 69.1856 10.0894C67.886 9.97656 66.9983 9.09871 66.6648 7.72555C66.6354 7.09291 66.606 6.58287 66.6648 6.06794C66.6894 6.0189 66.7286 5.97476 66.758 5.9012C66.7825 5.70503 66.758 5.64618 66.8316 5.45001C66.8316 5.43039 66.9051 5.4304 66.9051 5.42059C66.9297 5.35683 66.9051 5.32741 66.9591 5.22442C67.2239 4.66534 67.783 4.05723 68.3715 3.83654C68.5824 3.76788 68.808 3.76788 69.0237 3.66489C69.2248 3.56191 69.9702 3.62076 70.2351 3.66489C71.5298 3.85616 72.3929 4.734 72.6773 6.1415ZM69.6319 9.97656C69.5338 9.97656 69.2003 10.0452 69.1709 10.0109C69.2886 10.1482 70.0536 9.92752 70.1468 9.97656C69.9702 9.97656 69.8329 9.97656 69.6319 9.97656Z" fill="#14A1DC"/>
<path fill-rule="evenodd" clip-rule="evenodd" d="M6.46585 3.86126C6.50018 8.04942 6.39229 12.6299 6.5247 16.8132C6.8729 16.6366 7.03964 15.9353 7.35351 15.6067C8.09894 14.2434 8.94246 12.9879 9.6977 11.6246C11.9683 11.5951 14.2684 11.7128 16.5047 11.6246C16.5439 11.7668 16.3527 11.9041 16.2546 12.0463C14.6411 14.1894 13.0178 16.5042 11.4387 18.6915C13.1649 21.3201 14.9206 24.0272 16.642 26.5578C14.4155 26.5087 11.6496 26.5087 9.43288 26.5578C8.97188 25.6162 8.49128 24.65 8.01067 23.7084C7.53987 22.7521 7.09849 21.7958 6.57375 20.8934C6.45114 21.0455 6.47566 21.325 6.47076 21.5212C6.42662 23.115 6.50509 25.0031 6.47076 26.5332C5.58801 26.5332 4.45514 26.5332 3.40075 26.5332C2.33654 26.5332 1.24291 26.5332 0.296408 26.5332C0.291504 18.9906 0.291504 11.4333 0.291504 3.89069C2.27769 3.82203 4.5189 3.88578 6.46585 3.86126Z" fill="#14A1DC"/>
<path fill-rule="evenodd" clip-rule="evenodd" d="M46.2337 19.9371C43.2618 19.8881 40.1231 19.8881 37.1267 19.9371C37.1218 20.9229 37.3719 21.9528 37.9015 22.4088C38.1124 22.5903 38.4851 22.7521 38.8628 22.6835C39.4267 22.5854 39.7504 21.9773 39.8681 21.4084C41.8641 21.5997 43.9631 21.6683 45.9836 21.8498C45.5226 23.1396 44.8115 24.1106 43.8993 24.8707C43.6051 25.1258 43.2569 25.2925 42.9577 25.5622C41.663 26.2831 39.9711 26.6608 38.0339 26.494C36.8815 26.4057 35.8271 25.9398 34.9443 25.6309C34.1597 25.1159 33.3603 24.6206 32.7276 23.9095C32.1048 23.2426 31.6585 22.3549 31.2613 21.4084C31.2221 20.9131 31.0308 20.6139 31.0602 20.0499C30.9376 19.5791 30.9376 18.5787 31.0602 18.1079C31.0112 17.794 31.1338 17.6616 31.1044 17.3919C31.2466 17.2153 31.2024 16.9652 31.2613 16.7592C31.2907 16.671 31.3839 16.6121 31.428 16.5091C31.4624 16.4258 31.4378 16.2982 31.4722 16.1904C31.5408 16.0138 31.6585 15.8422 31.7174 15.6754C31.8988 15.3419 32.0754 15.0134 32.2863 14.7191C33.5368 13.0272 35.4936 11.8256 38.0192 11.6638C38.9069 11.605 40.0201 11.6834 40.9029 11.9384C42.9528 12.5024 44.635 13.8118 45.5471 15.6803C45.7335 16.0776 45.8365 16.4846 46.0278 16.8867C46.0621 17.181 46.067 17.333 46.1847 17.5488C46.2337 18.3482 46.3808 19.1329 46.2337 19.9371ZM38.3478 14.8908C37.5239 15.0526 37.1218 15.9648 37.1267 17.0437C37.774 17.1565 38.7598 17.1172 39.4758 17.1172C39.7112 17.1172 40.0447 17.2153 40.1427 16.9407C40.0447 15.7147 39.3728 14.7044 38.3478 14.8908Z" fill="#14A1DC"/>
<path fill-rule="evenodd" clip-rule="evenodd" d="M57.6608 3.59627C59.6372 3.59627 61.6185 3.59627 63.5998 3.59627C63.5507 11.1879 63.5801 18.9218 63.5801 26.5576C61.6724 26.5233 59.5244 26.4546 57.6608 26.5821C57.5872 25.822 57.6804 24.8656 57.5971 24.1104C57.3469 24.3017 57.1998 24.6008 56.984 24.8411C56.3416 25.5718 55.5324 26.1162 54.5025 26.4448C52.9283 26.7145 51.614 26.332 50.6479 25.5964C49.2158 24.5027 48.3429 22.6195 48.0192 20.3244C47.926 19.2308 47.9751 18.2352 48.0781 17.1661C48.2448 16.5678 48.3429 15.9401 48.544 15.4006C49.157 13.7969 50.2261 12.5758 51.6973 11.9334C52.7174 11.4822 54.1739 11.5214 55.194 11.9579C56.2092 12.3845 56.9742 13.1104 57.5921 13.9392C57.7049 10.6387 57.602 7.07332 57.6461 3.66492C57.6265 3.59626 57.6559 3.54722 57.6608 3.59627ZM55.6207 16.5089C54.4241 16.3961 53.5805 17.9164 53.7424 19.5152C53.8307 20.3489 54.4633 21.3248 55.1646 21.4916C55.6599 21.6044 56.0866 21.4229 56.3465 21.2219C56.7928 20.8589 57.0282 20.2116 57.1998 19.628C57.2587 19.1866 57.244 18.8629 57.1998 18.397C56.9007 17.4407 56.523 16.607 55.6207 16.5089Z" fill="#14A1DC"/>
<path fill-rule="evenodd" clip-rule="evenodd" d="M29.6285 11.5999C29.6285 13.5224 29.6285 15.6949 29.6285 17.7203C29.5599 17.7301 29.4226 17.5977 29.2803 17.5045C28.9665 17.2593 28.4663 16.9406 27.9955 16.8474C26.9558 16.6267 26.0485 17.0632 25.5287 17.6909C25.4355 17.9606 25.3178 18.2206 25.2197 18.4903C25.2197 21.1827 25.2197 23.8702 25.2197 26.5625C23.2776 26.4841 21.0757 26.5478 19.1729 26.538C19.1729 21.5652 19.1729 16.6022 19.1729 11.6343C21.1836 11.6343 23.2041 11.6343 25.2197 11.6343C25.2491 12.159 25.1363 12.7622 25.2785 13.13C25.3864 13.0418 25.4355 12.9142 25.5287 12.8014C25.9749 12.2571 26.8037 11.7225 27.5443 11.5067C28.2161 11.3204 28.9321 11.34 29.6285 11.5999Z" fill="#14A1DC"/>
<path fill-rule="evenodd" clip-rule="evenodd" d="M9.01733 44.0599C9.04111 43.6842 9.06013 43.2989 9.09342 42.9185C9.12196 42.576 9.15049 42.2241 9.22659 41.8912C9.25513 41.7675 9.42158 41.6534 9.54999 41.5773C9.64987 41.5155 9.78779 41.506 9.91144 41.5012C10.0969 41.4917 10.1968 41.5868 10.1968 41.8198C10.2016 42.1956 10.1873 42.576 10.1635 42.9518C10.1492 43.1705 10.1873 43.2133 10.3965 43.1325C10.5154 43.0849 10.6296 43.0231 10.7485 42.9803C11.2288 42.7996 11.7187 42.7663 12.2323 42.8471C12.6128 42.9042 12.9077 43.1039 13.193 43.3085C13.4879 43.5177 13.6781 44.0456 13.5069 44.4261C13.4213 44.6163 13.3547 44.8161 13.2644 45.0063C13.1407 45.2489 12.9552 45.4391 12.727 45.5913C12.6128 45.6674 12.4987 45.753 12.375 45.8148C12.142 45.9337 11.9042 46.0574 11.6569 46.1382C11.4191 46.2191 11.167 46.2571 10.9197 46.3047C10.8103 46.3285 10.6962 46.3237 10.5915 46.3522C10.525 46.3713 10.4679 46.4283 10.4108 46.4711C10.2967 46.5568 10.1873 46.6471 10.0684 46.728C10.0351 46.7517 9.97327 46.7422 9.93047 46.728C9.74023 46.6709 9.54524 46.6186 9.36451 46.5377C9.14098 46.4379 8.92697 46.319 8.71295 46.2001C8.42759 46.0431 8.14699 45.8767 7.86164 45.7102C7.59531 45.5533 7.32897 45.3963 7.0674 45.2346C6.91521 45.1395 6.77253 45.0253 6.62034 44.9255C6.38254 44.7733 6.13524 44.6258 5.89744 44.4737C5.79757 44.4118 5.71196 44.3357 5.61208 44.2787C5.47892 44.2026 5.39807 44.2406 5.40282 44.3881C5.42185 45.0777 5.44563 45.7673 5.47416 46.4569C5.49319 46.8564 5.53123 47.2559 5.55026 47.6554C5.56453 47.955 5.4266 48.0406 5.14125 47.9835C4.95577 47.9455 4.78931 47.8979 4.70846 47.7077C4.67517 47.6316 4.65614 47.546 4.63236 47.4651C4.53249 47.1608 4.41835 46.8564 4.3375 46.5425C4.27567 46.3047 4.25189 46.0574 4.22811 45.8148C4.19006 45.4581 4.16153 45.1014 4.1425 44.7447C4.12824 44.4927 4.13775 44.2359 4.12824 43.9838C4.12824 43.9172 4.10921 43.8173 4.07117 43.8031C4.01885 43.784 3.93324 43.8173 3.87142 43.8459C3.58606 43.9933 3.3007 44.1407 3.02011 44.2977C2.76804 44.4451 2.53025 44.6211 2.26867 44.7543C1.90246 44.9445 1.5743 45.2156 1.15103 45.2822C1.12725 45.2869 1.10822 45.3012 1.0892 45.3107C0.846647 45.4439 0.623119 45.4201 0.466173 45.2156C0.432881 45.1728 0.451905 45.0349 0.494708 45.0063C0.722993 44.8446 0.960789 44.7019 1.19859 44.5545C1.4126 44.4213 1.62662 44.2882 1.84064 44.155C2.0166 44.0456 2.19733 43.941 2.36854 43.8221C2.47793 43.746 2.57305 43.6461 2.68243 43.57C2.91547 43.4131 3.15327 43.2657 3.39107 43.1087C3.48619 43.0469 3.4957 42.9851 3.38631 42.928C3.05815 42.752 2.72999 42.576 2.40659 42.3953C2.07368 42.2051 1.74552 42.0148 1.42211 41.8103C1.22237 41.6867 1.03213 41.5393 0.841891 41.4013C0.732505 41.3205 0.694457 41.0827 0.799088 40.9923C0.946522 40.8592 1.10347 40.726 1.28419 40.6451C1.38882 40.5976 1.56479 40.6261 1.66467 40.6879C1.95002 40.8734 2.24013 41.0446 2.55402 41.1826C2.8917 41.33 3.20559 41.5393 3.52899 41.72C3.66216 41.7961 3.79532 41.8769 3.93324 41.9435C4.07117 42.0101 4.20433 41.934 4.20433 41.7818C4.19482 41.0969 4.35176 40.4406 4.542 39.7891C4.6181 39.5275 4.69895 39.2659 4.78455 39.0043C4.90821 38.6096 5.5027 38.543 5.72147 38.7285C5.80232 38.7998 5.85939 38.9615 5.84988 39.0757C5.81183 39.4086 5.73574 39.732 5.67867 40.0602C5.65489 40.2028 5.64538 40.355 5.63111 40.4977C5.60733 40.7926 5.58355 41.0874 5.56453 41.3823C5.55977 41.4489 5.58355 41.5155 5.59782 41.5868C5.66916 41.5725 5.75001 41.5773 5.81183 41.544C6.06865 41.3966 6.31121 41.2301 6.56327 41.0779C7.03886 40.7926 7.52872 40.5215 7.99956 40.2219C8.33723 40.0078 8.64637 39.7463 8.97928 39.518C9.1172 39.4229 9.26939 39.3468 9.42158 39.2707C9.53097 39.2184 9.64987 39.1803 9.75925 39.128C9.96851 39.0281 10.1968 39.0709 10.3109 39.2326C10.33 39.2612 10.349 39.2945 10.3585 39.3277C10.3965 39.4799 10.2016 39.9365 10.0684 40.0269C9.86864 40.1648 9.6784 40.3122 9.47865 40.4501C9.3122 40.569 9.14574 40.6879 8.96977 40.7973C8.65588 40.9923 8.34674 41.1921 8.02334 41.368C7.72847 41.5297 7.41458 41.6581 7.11496 41.8151C6.97704 41.8864 6.85814 41.9911 6.72973 42.0719C6.36828 42.3002 6.00207 42.5285 5.64062 42.7568C5.54075 42.8186 5.56928 42.9946 5.68342 43.0754C6.04963 43.3227 6.41108 43.5795 6.78204 43.8173C7.23386 44.1027 7.70469 44.3643 8.16126 44.6496C8.40381 44.8018 8.62259 44.9968 8.86989 45.1347C9.16476 45.3012 9.40256 45.6246 9.78303 45.6341C10.1064 45.6436 10.4298 45.5961 10.7532 45.5913C11.0862 45.5865 11.3287 45.3678 11.6141 45.2536C11.8614 45.1538 11.9517 44.9064 12.1562 44.7733C12.1943 44.7495 12.2038 44.6829 12.2228 44.6354C12.2704 44.4974 12.3132 44.3548 12.356 44.2168C12.4178 44.0218 12.3037 43.7983 12.1372 43.6889C11.8091 43.4749 11.5189 43.5225 11.186 43.6984C10.8246 43.8934 10.5725 44.1503 10.3728 44.5069C10.2634 44.6972 10.2063 44.8874 10.1588 45.0919C10.1445 45.149 10.0731 45.2251 10.0208 45.2394C9.73072 45.3059 9.44536 45.2774 9.19805 45.0824C9.14098 45.0349 9.08867 44.954 9.07916 44.8827C9.05062 44.6116 9.03635 44.3405 9.01733 44.0599Z" fill="#FFBC00"/>
<path d="M21.321 42.4001C21.321 42.928 21.1546 43.3322 20.8264 43.6128C20.4935 43.8934 20.0274 44.0313 19.4139 44.0313H18.9668V45.7815H17.9253V40.8687H19.4947C20.0892 40.8687 20.5458 40.9971 20.8549 41.2539C21.1641 41.5107 21.321 41.8912 21.321 42.4001ZM18.9668 43.18H19.3093C19.6279 43.18 19.8705 43.1182 20.0274 42.9898C20.1844 42.8614 20.2652 42.6807 20.2652 42.4381C20.2652 42.1956 20.1986 42.0148 20.0655 41.8959C19.9323 41.777 19.723 41.72 19.4377 41.72H18.9621V43.18H18.9668Z" fill="#333333"/>
<path d="M24.146 45.7863H23.1045V41.7342H21.7681V40.8687H25.4824V41.7342H24.146V45.7863Z" fill="#333333"/>
<path d="M26.0151 45.3058C26.0151 45.1156 26.0675 44.9729 26.1673 44.8778C26.2672 44.7827 26.4146 44.7351 26.6096 44.7351C26.7951 44.7351 26.9378 44.7827 27.0424 44.8825C27.1423 44.9824 27.1946 45.1203 27.1946 45.3058C27.1946 45.4818 27.1423 45.6245 27.0377 45.7243C26.933 45.8242 26.7904 45.8765 26.6049 45.8765C26.4146 45.8765 26.272 45.8242 26.1673 45.7243C26.0627 45.6245 26.0151 45.4865 26.0151 45.3058Z" fill="#333333"/>
<path d="M33.9481 45.7861H32.7639L31.4751 43.7126L31.0328 44.0312V45.7861H29.9912V40.8685H31.0328V43.1181L31.4418 42.5379L32.7734 40.8638H33.9291L32.2122 43.042L33.9481 45.7861Z" fill="#333333"/>
<path d="M34.5664 40.8687H36.0978C36.7969 40.8687 37.3011 40.9685 37.615 41.1683C37.9288 41.368 38.0858 41.6819 38.0858 42.1147C38.0858 42.4096 38.0192 42.6474 37.8813 42.8376C37.7434 43.0278 37.5579 43.1372 37.3296 43.1753V43.2086C37.6435 43.2799 37.867 43.4083 38.0049 43.5986C38.1429 43.7888 38.2142 44.0409 38.2142 44.3595C38.2142 44.8066 38.0525 45.1585 37.7291 45.4106C37.4057 45.6626 36.9634 45.7863 36.4069 45.7863H34.5664V40.8687ZM35.6127 42.8138H36.2167C36.4973 42.8138 36.7018 42.771 36.8302 42.6807C36.9586 42.5951 37.0205 42.4476 37.0205 42.2479C37.0205 42.0576 36.9539 41.9245 36.816 41.8436C36.678 41.7628 36.4593 41.72 36.1596 41.72H35.6127V42.8138ZM35.6127 43.6414V44.9255H36.2928C36.5782 44.9255 36.7922 44.8684 36.9301 44.759C37.068 44.6496 37.1346 44.4832 37.1346 44.2549C37.1346 43.8459 36.8445 43.6414 36.2595 43.6414H35.6127Z" fill="#333333"/>
<path d="M42.0141 45.7863H40.9868V40.8687H43.8071V41.7247H42.0141V42.9946H43.6834V43.8459H42.0141V45.7863Z" fill="#333333"/>
<path d="M44.7676 45.7863V40.8687H45.8091V45.7863H44.7676Z" fill="#333333"/>
<path d="M51.4118 45.7863H50.0849L47.9448 42.0671H47.9162C47.959 42.7235 47.9781 43.1943 47.9781 43.4749V45.791H47.0459V40.8687H48.3633L50.4987 44.5545H50.5225C50.4892 43.9172 50.4702 43.4654 50.4702 43.1991V40.8734H51.4071V45.7863H51.4118Z" fill="#333333"/>
<path d="M55.659 45.7863L55.3024 44.6163H53.5094L53.1527 45.7863H52.0303L53.7662 40.8496H55.0408L56.7814 45.7863H55.659ZM55.055 43.7412C54.7269 42.6806 54.5414 42.0814 54.4986 41.9435C54.4558 41.8056 54.4273 41.6962 54.4082 41.6153C54.3321 41.9007 54.1229 42.6141 53.7709 43.746H55.055V43.7412Z" fill="#333333"/>
<path d="M61.7654 45.7863H60.4385L58.2983 42.0671H58.2698C58.3126 42.7235 58.3316 43.1943 58.3316 43.4749V45.791H57.3994V40.8687H58.7168L60.8522 44.5545H60.876C60.8427 43.9172 60.8237 43.4654 60.8237 43.1991V40.8734H61.7606V45.7863H61.7654Z" fill="#333333"/>
<path d="M65.9081 44.4213C65.9081 44.8636 65.7464 45.2155 65.4278 45.4723C65.1091 45.7291 64.6621 45.8575 64.0961 45.8575C63.573 45.8575 63.1069 45.7577 62.7026 45.5627V44.5877C63.0356 44.7351 63.3161 44.8398 63.5444 44.9016C63.7727 44.9634 63.9867 44.992 64.177 44.992C64.4053 44.992 64.5812 44.9492 64.7049 44.8588C64.8285 44.7732 64.8904 44.64 64.8904 44.4688C64.8904 44.3737 64.8618 44.2881 64.8095 44.212C64.7572 44.1359 64.6763 44.0646 64.5717 43.9932C64.4671 43.9219 64.2531 43.8125 63.9344 43.6603C63.6348 43.5176 63.4065 43.3845 63.2591 43.2513C63.1069 43.1229 62.988 42.9707 62.8976 42.7995C62.8073 42.6283 62.7645 42.4238 62.7645 42.1955C62.7645 41.7627 62.9119 41.4203 63.2068 41.1682C63.5016 40.9209 63.9106 40.7925 64.429 40.7925C64.6859 40.7925 64.9284 40.821 65.1615 40.8828C65.3945 40.9447 65.637 41.0303 65.8891 41.1397L65.5514 41.9482C65.2899 41.8388 65.0711 41.7674 64.8999 41.7246C64.7287 41.6818 64.5574 41.6628 64.3957 41.6628C64.196 41.6628 64.0486 41.7104 63.9439 41.8007C63.8393 41.8911 63.787 42.0148 63.787 42.1622C63.787 42.2526 63.806 42.3334 63.8488 42.4047C63.8916 42.4713 63.9582 42.5379 64.0533 42.6045C64.1484 42.6663 64.3672 42.7852 64.7144 42.9517C65.1757 43.1704 65.4896 43.394 65.6608 43.6127C65.8225 43.8268 65.9081 44.0979 65.9081 44.4213Z" fill="#333333"/>
<path d="M66.7974 45.7863V40.8687H67.8389V45.7863H66.7974Z" fill="#333333"/>
<path d="M72.0907 45.7863L71.734 44.6163H69.941L69.5843 45.7863H68.4619L70.1978 40.8496H71.4724L73.2131 45.7863H72.0907ZM71.4867 43.7412C71.1585 42.6806 70.973 42.0814 70.9302 41.9435C70.8874 41.8056 70.8589 41.6962 70.8399 41.6153C70.7638 41.9007 70.5545 42.6141 70.2026 43.746H71.4867V43.7412Z" fill="#333333"/>
<path d="M77.7027 45.7863L76.5185 41.9292H76.49C76.5328 42.714 76.5518 43.2371 76.5518 43.4987V45.7863H75.6196V40.8687H77.0369L78.2021 44.6306H78.2211L79.4577 40.8687H80.8749V45.7863H79.9047V43.4606C79.9047 43.3512 79.9047 43.2228 79.9095 43.0802C79.9142 42.9375 79.9285 42.557 79.957 41.934H79.9285L78.6587 45.7863H77.7027Z" fill="#333333"/>
<path d="M86.1204 40.8687V44.0504C86.1204 44.4118 86.0396 44.7305 85.8779 45.0063C85.7162 45.2821 85.4784 45.4914 85.174 45.6341C84.8648 45.7815 84.5034 45.8529 84.0849 45.8529C83.4523 45.8529 82.9625 45.6912 82.6105 45.3678C82.2586 45.0444 82.0874 44.602 82.0874 44.0361V40.8687H83.1289V43.8792C83.1289 44.2596 83.205 44.5355 83.3572 44.7114C83.5094 44.8874 83.7615 44.9778 84.1134 44.9778C84.4558 44.9778 84.7031 44.8874 84.8553 44.7114C85.0075 44.5307 85.0836 44.2549 85.0836 43.8744V40.8687H86.1204Z" fill="#333333"/>
<path d="M87.3237 45.7863V40.8687H88.3653V44.9255H90.358V45.7863H87.3237Z" fill="#333333"/>
<path d="M93.1162 45.7863H92.0747V41.7342H90.7383V40.8687H94.4526V41.7342H93.1162V45.7863Z" fill="#333333"/>
<path d="M95.209 45.7863V40.8687H96.2506V45.7863H95.209Z" fill="#333333"/>
<path d="M100.303 45.7863H99.2754V40.8687H102.096V41.7247H100.303V42.9946H101.972V43.8459H100.303V45.7863Z" fill="#333333"/>
<path d="M103.061 45.7863V40.8687H104.103V45.7863H103.061Z" fill="#333333"/>
<path d="M109.705 45.7863H108.378L106.238 42.0671H106.209C106.252 42.7235 106.271 43.1943 106.271 43.4749V45.791H105.339V40.8687H106.656L108.792 44.5545H108.815C108.782 43.9172 108.763 43.4654 108.763 43.1991V40.8734H109.7V45.7863H109.705Z" fill="#333333"/>
<path d="M113.952 45.7863L113.595 44.6163H111.802L111.446 45.7863H110.323L112.059 40.8496H113.334L115.074 45.7863H113.952ZM113.348 43.7412C113.02 42.6806 112.834 42.0814 112.792 41.9435C112.749 41.8056 112.72 41.6962 112.701 41.6153C112.625 41.9007 112.416 42.6141 112.064 43.746H113.348V43.7412Z" fill="#333333"/>
<path d="M120.059 45.7863H118.732L116.592 42.0671H116.563C116.606 42.7235 116.625 43.1943 116.625 43.4749V45.791H115.693V40.8687H117.01L119.146 44.5545H119.169C119.136 43.9172 119.117 43.4654 119.117 43.1991V40.8734H120.054V45.7863H120.059Z" fill="#333333"/>
<path d="M123.383 41.6628C122.989 41.6628 122.689 41.8103 122.47 42.1051C122.256 42.4 122.147 42.809 122.147 43.3369C122.147 44.4355 122.561 44.9825 123.383 44.9825C123.73 44.9825 124.149 44.8968 124.639 44.7256V45.6007C124.235 45.7672 123.783 45.8528 123.288 45.8528C122.575 45.8528 122.028 45.634 121.647 45.2012C121.267 44.7684 121.077 44.1454 121.077 43.3321C121.077 42.8185 121.172 42.3714 121.357 41.9862C121.543 41.601 121.809 41.3061 122.161 41.1016C122.508 40.8971 122.917 40.7925 123.388 40.7925C123.864 40.7925 124.344 40.9066 124.829 41.1397L124.491 41.9862C124.306 41.9006 124.12 41.8245 123.935 41.7579C123.745 41.6961 123.564 41.6628 123.383 41.6628Z" fill="#333333"/>
<path d="M128.52 45.7863H125.685V40.8687H128.52V41.7247H126.731V42.8043H128.396V43.6604H126.731V44.9302H128.52V45.7863Z" fill="#333333"/>
</svg>
