<svg width="176" height="192" viewBox="0 0 176 192" fill="none" xmlns="http://www.w3.org/2000/svg">
<g clip-path="url(#clip0_6725_85383)">
<ellipse cx="61.7913" cy="59.5504" rx="61.7913" ry="59.5504" transform="matrix(0.978148 0.207912 -0.965926 0.258819 88.9395 142.516)" fill="#EFEFEF"/>
<g clip-path="url(#clip1_6725_85383)">
<path d="M120.473 133.973L137.128 132.611L138.914 154.593L122.26 155.954L120.473 133.973ZM91.1617 135.765L107.711 138.084L104.668 159.926L88.1191 157.608L91.1617 135.765Z" fill="#F2AE9D"/>
<path d="M114.722 3.70118C114.088 3.69886 113.397 4.19888 112.46 6.41067C111.524 8.62247 111.025 10.6254 111.337 10.9697C111.649 11.3139 113.272 11.1622 113.833 10.1427C114.395 9.12321 114.894 7.42232 114.988 6.41067C115.082 5.39903 115.398 3.70366 114.722 3.70118Z" fill="#14A1DC"/>
<path d="M106.136 0.652595C106.136 0.652595 103.76 -0.328015 102.725 0.601329C102.352 0.935317 101.331 3.30235 101.383 3.92825C101.435 4.55416 101.601 5.74536 101.892 5.67138C102.184 5.5974 103.557 4.68301 103.619 3.73191C103.682 2.78073 106.136 0.652675 106.136 0.652675L106.136 0.652595Z" fill="#F2AE9D"/>
<path d="M103.063 0.8677C103.063 0.8677 101.804 0.172211 101.144 0.8677C100.822 1.20697 100.593 3.16379 100.567 4.10913C100.541 5.05439 101.565 5.70293 101.916 5.10741C102.267 4.5119 103.063 0.8677 103.063 0.8677Z" fill="#F2AE9D"/>
<path d="M101.207 1.21537C101.207 1.21537 99.4182 1.09021 99.3351 2.44631C99.2519 3.80242 99.7735 5.26362 100.012 5.43013C100.25 5.59673 101.454 4.78095 101.372 4.16648C101.291 3.55201 101.207 1.21537 101.207 1.21537ZM114.896 4.80495L112.93 3.73132C112.93 3.73132 112.214 2.42872 109.872 1.83088C107.448 1.21233 105.264 0.558594 105.264 0.558594L103.761 9.53085C103.761 9.53085 107.906 10.4998 109.169 10.312C109.966 10.1935 110.527 9.93642 110.527 9.93642L112.181 10.4997C112.181 10.4997 113.554 8.94717 113.96 8.06477C114.365 7.18237 114.896 4.80487 114.896 4.80487V4.80495Z" fill="#F2AE9D"/>
<path d="M101.804 6.20862L101.795 6.20854C101.712 6.20671 101.632 6.17905 101.566 6.12941C101.499 6.07977 101.45 6.01062 101.425 5.93156C101.399 5.8525 101.399 5.76745 101.424 5.68824C101.449 5.60903 101.498 5.53958 101.564 5.48954C101.594 5.38877 101.655 5.06302 101.579 4.20198C101.424 2.45726 102.238 0.849458 102.272 0.781876C102.321 0.688025 102.405 0.617322 102.505 0.585242C102.606 0.553163 102.715 0.562321 102.808 0.610712C102.902 0.659102 102.973 0.742783 103.006 0.843439C103.038 0.944094 103.029 1.05352 102.981 1.14778C102.97 1.17025 102.24 2.62649 102.373 4.13111C102.494 5.49074 102.319 5.8696 102.152 6.04771C102.057 6.15032 101.93 6.20862 101.804 6.20862H101.804ZM100.491 5.07877C100.402 5.07868 100.315 5.04847 100.245 4.99298C100.175 4.93748 100.125 4.85993 100.104 4.77278C99.7183 3.1729 100.569 1.14354 100.606 1.05796C100.647 0.960387 100.726 0.883335 100.824 0.843753C100.922 0.804171 101.032 0.805303 101.129 0.846898C101.226 0.888494 101.303 0.967147 101.343 1.06555C101.382 1.16396 101.381 1.27406 101.339 1.37163C101.33 1.39403 100.556 3.246 100.879 4.58483C100.893 4.64368 100.894 4.70499 100.881 4.76414C100.868 4.82329 100.842 4.87874 100.805 4.9263C100.768 4.97387 100.72 5.01231 100.666 5.03872C100.611 5.06513 100.552 5.07883 100.491 5.07877Z" fill="#2A2A2A"/>
<path d="M106.969 20.9527C106.969 20.9527 108.966 19.6382 111.337 19.4504C113.709 19.2626 115.144 19.5756 115.768 19.4504C116.393 19.3253 120.449 16.8842 122.946 16.4461C125.442 16.0079 140.848 15.3856 139.859 22.5489C139.297 26.6172 136.983 28.2782 132.931 29.7363C129.261 31.057 125.594 32.2191 123.646 32.4069C121.697 32.5946 112.71 34.2846 112.71 34.2846L106.969 20.9526V20.9527Z" fill="#14A1DC"/>
<path d="M108.326 77.2571C98.4627 79.3757 90.1261 79.4981 89.7059 77.5298C89.7059 77.5298 89.7059 77.529 89.7051 77.5274C89.292 75.5584 96.6933 70.7862 106.552 68.6684C116.416 66.5498 122.919 67.9937 123.34 69.962C123.761 71.9302 118.189 75.1385 108.326 77.2571ZM89.5248 26.3357C89.5248 26.3357 86.2795 25.2403 86.1859 24.6457C86.0923 24.0511 87.0804 21.2032 87.5381 20.8902C87.9959 20.5772 91.7091 19.3567 94.2368 18.8247C96.7644 18.2927 100.036 18.6175 100.977 19.0641C101.918 19.5107 102.787 21.7664 102.506 22.6428C102.225 23.5191 96.7332 25.9914 95.8282 25.9601C94.9233 25.9288 89.5249 26.3357 89.5249 26.3357H89.5248Z" fill="#383838"/>
<path d="M93.1145 23.6438L87.248 26.7317C87.248 26.7317 100.354 29.3606 101.477 28.985C102.601 28.6094 102.892 21.8496 102.892 21.8496L98.5233 22.6424L93.1145 23.6438Z" fill="#F2AE9D"/>
<path d="M123.342 67.5938C123.342 67.5938 131.403 93.7166 133.275 99.0682C135.147 104.42 136.552 110.71 137.113 113.151C137.675 115.592 137.113 118.691 137.113 118.691C137.113 118.691 137.862 126.108 138.517 131.647C139.173 137.186 139.266 142.945 139.266 142.945L118.765 143.114C118.765 143.114 115.839 134.808 115.769 131.178C115.745 129.943 117.548 116.437 117.548 116.437C117.548 116.437 116.471 115.126 116.289 114.612C115.836 113.331 116.523 111.979 116.518 111.774L108.374 84.0463L103.412 69.5877L123.342 67.5938L123.342 67.5938Z" fill="#005C94"/>
<path d="M123.351 142.749C123.269 142.749 123.19 142.724 123.123 142.677C123.056 142.63 123.005 142.564 122.977 142.487C122.838 142.109 119.585 133.201 119.303 130.086C119.015 126.911 119.877 117.548 120.341 115.503C120.657 114.11 119.662 111.638 118.862 109.652C118.564 108.911 118.282 108.212 118.103 107.65C117.456 105.623 108.043 77.6672 107.948 77.385C107.915 77.2848 107.923 77.1754 107.97 77.0808C108.017 76.9863 108.099 76.9142 108.199 76.8804C108.299 76.8466 108.408 76.8538 108.502 76.9004C108.597 76.947 108.669 77.0292 108.703 77.1291C108.798 77.4114 118.214 105.373 118.863 107.406C119.033 107.94 119.309 108.626 119.601 109.352C120.443 111.442 121.49 114.043 121.118 115.68C120.663 117.691 119.814 126.895 120.097 130.014C120.37 133.025 123.692 142.12 123.725 142.211C123.747 142.272 123.755 142.336 123.746 142.4C123.738 142.464 123.715 142.525 123.678 142.578C123.641 142.631 123.592 142.674 123.535 142.704C123.478 142.733 123.415 142.749 123.351 142.749Z" fill="#04202C"/>
<path d="M110.981 75.8773C110.981 75.8773 111.636 100.757 110.981 113.902C110.326 127.046 108.327 147.845 108.327 147.845L88.1197 144.697C88.1197 144.697 87.9522 128.266 88.1394 126.201C88.3267 124.135 91.6968 112.306 91.6968 112.306C91.6968 112.306 91.5546 77.2575 91.0863 73.718C90.6786 70.6359 103.409 69.1592 106.634 68.6689C109.858 68.1787 110.981 75.8774 110.981 75.8774L110.981 75.8773Z" fill="#005C94"/>
<path d="M101.539 21.7674C101.961 22.0196 102.603 23.7286 102.56 24.4379C102.517 25.1474 103.661 21.1206 103.661 21.1206L102.226 20.5781L101.539 21.7674Z" fill="#383838"/>
<path d="M112.711 79.4894C112.606 79.4894 112.504 79.4473 112.429 79.3723C112.355 79.2973 112.313 79.1956 112.313 79.0895C112.313 76.9057 111.447 70.3533 110.739 68.6115C110.699 68.5133 110.699 68.4032 110.74 68.3054C110.781 68.2077 110.859 68.1302 110.957 68.0902C111.055 68.0501 111.165 68.0507 111.262 68.0918C111.36 68.1329 111.437 68.2112 111.477 68.3094C112.228 70.1575 113.11 76.7962 113.11 79.0895C113.11 79.1956 113.068 79.2973 112.993 79.3723C112.919 79.4473 112.817 79.4894 112.711 79.4894Z" fill="#04202C"/>
<path d="M85.4177 26.3358C83.9614 24.8128 83.2126 22.4424 85.5425 20.3161C87.4871 18.5415 93.9457 17.4428 97.6827 17.5939C101.811 17.7608 104.515 18.549 105.189 20.908C103.858 21.826 102.694 22.1601 102.694 22.1601C102.694 22.1601 101.852 20.2843 98.3572 20.316C94.8623 20.3479 89.7031 20.316 88.1221 22.4423C87.2031 23.6783 88.6649 25.3041 88.6649 25.3041L85.4177 26.3357V26.3358Z" fill="#14A1DC"/>
<path d="M91.1582 16.9258L92.1485 28.4204L101.809 29.7362L99.9788 16.9258H91.1582Z" fill="#F2AE9D"/>
<path d="M111.259 94.252C111.154 94.252 111.053 94.2105 110.979 94.1366C110.904 94.0627 110.862 93.9623 110.86 93.8571C110.86 93.7902 110.777 87.113 110.709 82.4448C110.708 82.3923 110.718 82.3402 110.737 82.2913C110.756 82.2425 110.785 82.198 110.822 82.1604C110.858 82.1227 110.902 82.0926 110.95 82.0718C110.998 82.051 111.049 82.0399 111.102 82.0391C111.322 82.0368 111.503 82.2122 111.506 82.4331C111.575 87.1022 111.657 93.7803 111.658 93.8471C111.658 93.8996 111.649 93.9518 111.629 94.0005C111.61 94.0493 111.581 94.0938 111.544 94.1313C111.508 94.1689 111.464 94.1989 111.416 94.2196C111.368 94.2403 111.316 94.2513 111.264 94.252L111.259 94.252Z" fill="#04202C"/>
<path d="M100.646 7.37188C101.618 9.65549 104.349 15.5923 104.349 16.8858C104.349 17.929 103.184 19.765 98.8736 20.2214C94.7063 20.6626 92.1583 19.473 91.4925 18.8887C90.8268 18.3046 88.5801 12.3375 88.5801 10.418C88.5801 8.49853 89.2458 5.78623 91.8669 5.20207C94.4882 4.61792 99.3145 4.24466 100.646 7.37188Z" fill="#F2AE9D"/>
<path d="M101.322 16.9856C100.284 17.3182 99.6632 17.7417 99.321 17.9539C99.059 18.1164 98.6667 17.7678 98.8051 17.2284C98.956 16.6403 99.592 15.8071 100.513 15.8338C101.344 15.8578 101.841 16.8194 101.322 16.9857L101.322 16.9856Z" fill="#2A2A2A"/>
<path d="M91.7997 143.345C91.6998 143.345 91.6036 143.307 91.5301 143.239C91.4566 143.171 91.4112 143.078 91.4028 142.978C91.396 142.897 90.7187 134.761 90.6878 129.177C90.6653 125.128 92.1513 120.566 93.2363 117.234C93.6833 115.862 94.0693 114.677 94.258 113.817C94.8996 110.89 94.5476 73.177 94.544 72.7964C94.5435 72.7439 94.5533 72.6918 94.5729 72.6431C94.5925 72.5943 94.6214 72.55 94.6581 72.5125C94.6947 72.475 94.7384 72.4451 94.7866 72.4246C94.8348 72.404 94.8865 72.3932 94.9389 72.3927C95.158 72.3883 95.3393 72.5678 95.3415 72.7887C95.3563 74.3464 95.6978 110.974 95.0368 113.988C94.8397 114.887 94.448 116.09 93.9945 117.482C92.9264 120.762 91.4636 125.253 91.4853 129.173C91.5161 134.725 92.1907 142.83 92.1976 142.911C92.2022 142.967 92.1953 143.022 92.1775 143.075C92.1596 143.127 92.131 143.175 92.0936 143.216C92.0562 143.257 92.0108 143.289 91.9602 143.311C91.9096 143.333 91.855 143.345 91.7998 143.345L91.7997 143.345Z" fill="#04202C"/>
<path d="M94.207 3.55239C94.2695 3.4585 95.7049 1.48688 98.5133 2.39447C101.322 3.30206 101.384 8.57477 101.384 8.57477C101.384 8.57477 97.1383 8.36643 96.0481 9.12302C94.9579 9.87969 94.207 3.55239 94.207 3.55239Z" fill="#2A2A2A"/>
<path d="M90.8267 9.29048C90.8267 9.29048 90.7674 15.8185 90.8267 16.092C91.2427 18.0115 89.0792 16.3424 89.0792 16.3424C89.0792 16.3424 86.458 14.7427 86.6661 12.561C86.8027 11.1275 87.5293 8.43919 88.2471 8.20549C88.9649 7.9718 90.8267 9.29048 90.8267 9.29048ZM89.6201 24.2915C90.2859 26.1901 92.4702 26.9204 93.5727 27.2542C94.2743 27.4666 89.1 26.8161 89.1 26.8161L88.2679 25.1887L89.6201 24.2915Z" fill="#383838"/>
<path d="M91.1588 14.9649C89.5361 14.4328 87.5391 14.7976 87.5391 16.6757C87.5391 18.3865 90.2018 19.8052 92.1157 18.6369C94.0296 17.4686 91.1588 14.9649 91.1588 14.9649Z" fill="#F2AE9D"/>
<path d="M86.4147 14.0884C88.6198 12.6697 91.1578 11.3343 91.1578 11.3343C91.1578 11.3343 91.3242 9.87386 91.4907 9.24795L91.7819 11.0005C91.7819 11.0005 95.2768 9.70695 96.9827 9.24795C98.6885 8.78896 96.7331 3.89638 96.7331 3.89638C96.7331 3.89638 94.5488 2.36289 90.8781 3.48954C86.5056 4.83157 84.8752 8.17697 86.4146 14.0884H86.4147Z" fill="#2A2A2A"/>
<path d="M84.4606 23.7284C84.4606 23.7284 83.5036 24.563 83.6284 26.3364C83.7532 28.1099 85.1027 28.6423 86.654 29.0229C88.2052 29.4034 100.812 31.0308 101.977 30.3631C103.142 29.6955 104.14 26.5192 104.64 25.4367C105.139 24.3543 105.605 22.1894 105.189 20.9086C104.735 19.5097 102.495 21.8507 102.495 21.8507C102.495 21.8507 102.164 27.5257 101.384 28.1516C100.649 28.7409 97.8162 27.4214 90.0566 26.5451C88.8501 25.7944 88.6013 25.1954 88.0803 24.4587C87.5592 23.722 84.4606 23.7285 84.4606 23.7285V23.7284Z" fill="#14A1DC"/>
<path d="M124.725 65.9883L124.657 68.102C124.644 68.5094 124.271 68.805 123.872 68.7293C121.398 68.2608 115.589 68.2435 106.805 70.1303C96.9456 72.2481 89.2932 75.5592 89.7063 77.5283C89.6832 77.4323 88.9336 74.358 88.9336 73.2487C87.8722 72.2161 88.621 70.6198 88.6832 69.2114C88.7462 67.8038 87.9468 61.4664 86.6537 55.3168C85.7191 50.8724 84.139 46.7203 82.1618 41.4524C79.957 35.5785 79.0723 30.0295 79.0723 30.0295L85.0014 26.3366L90.8794 28.1515L101.478 28.9864L103.974 21.0166C103.974 21.0166 106.345 19.8897 108.187 20.5783C111.22 21.7124 114.708 27.2972 114.708 27.2972C114.708 27.2972 118.222 38.2392 119.992 44.9676C120.411 46.5631 120.826 48.1597 121.237 49.7574C120.995 49.0229 122.688 52.4989 123.352 54.3984C124.091 56.5109 123.364 58.1941 123.364 58.1941C123.364 58.1941 125.331 59.9861 125.522 61.5327C125.817 63.9123 124.725 65.9883 124.725 65.9883Z" fill="#14A1DC"/>
<path d="M80.1747 29.7365C77.7772 29.7365 75.785 32.306 74.8491 33.4503C73.424 35.1924 65.2172 44.7376 63.8442 46.4901C61.6713 49.2638 58.8557 52.7825 59.0227 56.3712C59.2866 62.0387 62.9913 64.1201 65.9037 65.1215C68.8162 66.123 73.268 70.1705 76.6382 71.0468C80.0083 71.9231 81.5061 72.1317 83.9609 70.4626C86.4157 68.7935 86.5821 67.4583 86.374 66.415C86.166 65.3719 85.7499 63.4107 86.2076 62.4092C86.6653 61.4077 86.4157 59.7803 85.6251 58.6954C84.8346 57.6105 80.1747 56.7759 80.1747 56.7759C80.1747 56.7759 80.3828 54.6478 77.6367 54.314C79.3426 53.4376 80.0083 52.937 80.1747 51.2678C81.7557 49.265 84.8763 45.0504 88.6208 43.8403C92.3654 42.6302 80.1747 29.7363 80.1747 29.7363V29.7365Z" fill="#14A1DC"/>
<path d="M85.6875 70.9333C85.8123 70.9333 88.7456 71.6374 89.6894 71.3089C91.1283 70.808 94.0191 68.4923 94.612 67.835C95.0308 67.3709 91.5228 60.3241 91.5228 60.3241L89.6894 60.8248L87.7158 59.1035L86.9045 61.7949L85.6875 70.9333Z" fill="#F2AE9D"/>
<path d="M86.7479 52.5469C86.7479 52.5469 86.2027 55.9139 86.2556 56.9454C86.4047 59.8544 89.0883 61.2314 89.8372 61.1375C90.5861 61.0437 93.8938 56.318 93.8938 56.318L86.7479 52.5469Z" fill="#14A1DC"/>
<path d="M97.7704 64.6666C97.7136 64.6667 97.6574 64.6546 97.6056 64.6311C97.5538 64.6076 97.5076 64.5733 97.4701 64.5305C97.4327 64.4877 97.4047 64.4373 97.3882 64.3827C97.3718 64.3282 97.3671 64.2707 97.3745 64.2142C97.384 64.1421 98.3252 56.9724 98.3252 54.5649C98.3252 54.4913 98.3454 54.4192 98.3836 54.3565C98.4219 54.2937 98.4766 54.2427 98.5419 54.2092C103.189 51.8173 109.673 51.1234 114.802 50.786C114.855 50.7826 114.907 50.7895 114.957 50.8065C115.007 50.8234 115.052 50.8501 115.092 50.8849C117.603 53.1013 119.752 56.6575 121.479 61.4548C121.535 61.6098 121.579 61.7322 121.607 61.8038C121.627 61.8528 121.637 61.9052 121.636 61.9581C121.635 62.0109 121.625 62.0632 121.604 62.1117C121.583 62.1603 121.553 62.2043 121.515 62.2411C121.477 62.2779 121.432 62.3069 121.383 62.3262C121.334 62.3456 121.282 62.355 121.229 62.354C121.177 62.3529 121.125 62.3414 121.076 62.32C121.028 62.2987 120.985 62.268 120.948 62.2297C120.912 62.1914 120.884 62.1462 120.865 62.0968C120.833 62.0145 120.789 61.8937 120.729 61.7263C119.077 57.1367 117.045 53.7294 114.688 51.5951C109.742 51.9261 103.573 52.5996 99.12 54.8124C99.0653 57.4623 98.2031 64.0317 98.1652 64.319C98.1525 64.4151 98.1055 64.5032 98.0329 64.5671C97.9603 64.6311 97.867 64.6664 97.7704 64.6665V64.6666Z" fill="#090A0A"/>
<path d="M90.7462 60.5351C90.7462 60.5351 95.2047 58.2576 95.5479 58.1949C95.8911 58.1323 99.2633 59.9524 99.6981 60.2893C100.386 60.8227 99.6981 62.2633 98.8243 61.9504C97.9505 61.6374 96.0159 60.6673 96.0159 60.6673L91.616 62.6076L90.7461 60.5351H90.7462Z" fill="#F2AE9D"/>
<path d="M91.0859 62.2628L95.8603 60.166C95.8603 60.166 99.5217 61.7485 99.9169 61.8873C100.853 62.2159 100.416 63.9841 99.3553 63.5772C98.2944 63.1704 95.7979 62.6071 95.7979 62.6071L92.1158 64.2658L91.086 62.2629L91.0859 62.2628Z" fill="#F2AE9D"/>
<path d="M91.5547 63.9224L95.8609 62.2168C95.8609 62.2168 99.5743 63.4217 100.105 63.6721C100.635 63.9224 100.431 65.4559 99.387 65.2086C98.4212 64.9798 95.9284 64.6736 95.9284 64.6736L92.9901 66.2175L91.5547 63.9224Z" fill="#F2AE9D"/>
<path d="M92.7052 65.8475L95.9699 64.4551C95.9699 64.4551 99.1981 65.9886 99.6665 66.2076C100.135 66.4267 99.9164 67.7593 99.105 67.5937C98.2937 67.4282 96.1718 66.771 96.1718 66.771L93.8938 68.4605L92.7051 65.8476L92.7052 65.8475Z" fill="#F2AE9D"/>
<path d="M85.3438 61.7011C85.3438 61.7011 87.6258 61.4508 87.9202 61.7011C88.2146 61.9514 89.6889 64.2674 89.1507 67.5938C88.8632 69.3712 88.2994 70.4905 87.934 71.0624C87.8444 71.2035 87.7171 71.3165 87.5666 71.3886C87.4161 71.4607 87.2484 71.489 87.0827 71.4703L82.6289 70.9646L85.3437 61.7011H85.3438Z" fill="#14A1DC"/>
<path d="M102.891 11.8399C104.033 11.4653 104.622 10.1285 104.207 8.8539C103.791 7.57932 102.529 6.84968 101.386 7.2242C100.244 7.59873 99.6552 8.9356 100.071 10.2102C100.486 11.4848 101.749 12.2144 102.891 11.8399Z" fill="#0E0D0D"/>
<path d="M108.018 7.32608L102.984 2.08984L100.723 8.47857C100.686 8.56147 100.656 8.64705 100.632 8.73458L100.631 8.73674L100.631 8.7369C100.538 9.08248 100.542 9.46909 100.666 9.84843C100.976 10.7994 101.918 11.3438 102.77 11.0643C102.922 11.0145 103.064 10.9402 103.193 10.8444L103.193 10.8446L108.018 7.32608Z" fill="#E21F24"/>
<path d="M91.1596 17.3997C91.0803 17.3997 91.0028 17.376 90.937 17.3317C90.8712 17.2873 90.8201 17.2242 90.7901 17.1506C90.4966 16.4278 89.4704 16.1537 89.1159 16.2008C89.0637 16.2083 89.0105 16.2054 88.9595 16.1923C88.9084 16.1791 88.8604 16.1558 88.8184 16.1239C88.7763 16.092 88.741 16.0521 88.7144 16.0064C88.6879 15.9607 88.6706 15.9102 88.6636 15.8577C88.6567 15.8053 88.6602 15.752 88.6739 15.701C88.6876 15.6499 88.7113 15.6021 88.7436 15.5602C88.7759 15.5184 88.8161 15.4834 88.8619 15.4573C88.9078 15.4312 88.9584 15.4144 89.0107 15.408C89.6689 15.3202 91.0728 15.7267 91.5287 16.8489C91.5534 16.9096 91.5628 16.9755 91.5561 17.0407C91.5494 17.106 91.5269 17.1685 91.4904 17.223C91.4539 17.2774 91.4047 17.322 91.347 17.3528C91.2893 17.3837 91.2249 17.3998 91.1595 17.3998L91.1596 17.3997Z" fill="#2A2A2A"/>
<path d="M89.5918 17.3629C89.5212 17.3629 89.4519 17.344 89.3909 17.3083C89.33 17.2726 89.2796 17.2213 89.2449 17.1597C89.2102 17.0981 89.1924 17.0283 89.1934 16.9575C89.1944 16.8868 89.2141 16.8175 89.2504 16.7569C89.5077 16.3278 89.9953 15.8499 90.4582 15.8146C90.5634 15.807 90.6673 15.8414 90.7472 15.9105C90.8271 15.9796 90.8765 16.0776 90.8845 16.183C90.8925 16.2885 90.8585 16.3929 90.79 16.4733C90.7214 16.5537 90.6239 16.6036 90.5188 16.612C90.4272 16.6238 90.1364 16.8312 89.9339 17.1689C89.8985 17.2281 89.8483 17.2771 89.7884 17.3111C89.7284 17.3451 89.6607 17.3629 89.5918 17.3628L89.5918 17.3629ZM97.6901 20.6367C96.9006 20.6367 96.0127 20.5673 95.0877 20.3636C94.9853 20.34 94.8963 20.2768 94.8401 20.1878C94.7838 20.0987 94.7649 19.991 94.7875 19.8881C94.81 19.7851 94.8721 19.6952 94.9604 19.638C95.0486 19.5808 95.1558 19.5608 95.2587 19.5824C97.264 20.024 99.03 19.8127 100.345 19.5792C100.449 19.5607 100.556 19.5845 100.643 19.6453C100.729 19.706 100.788 19.7989 100.807 19.9033C100.825 20.0077 100.801 20.1152 100.741 20.2021C100.68 20.2891 100.588 20.3483 100.484 20.3668C99.9807 20.4561 98.9634 20.6367 97.6901 20.6367H97.6901ZM99.6075 14.0297C99.5426 14.0297 99.4787 14.0138 99.4213 13.9834C99.3639 13.953 99.3148 13.909 99.2782 13.8552C99.2416 13.8014 99.2187 13.7395 99.2114 13.6748C99.2041 13.6101 99.2127 13.5446 99.2363 13.484C99.5228 12.7497 100.236 12.29 100.897 12.4149C101.321 12.4952 101.774 12.8563 101.774 13.6297C101.774 13.7358 101.732 13.8375 101.657 13.9125C101.582 13.9875 101.481 14.0296 101.375 14.0296C101.269 14.0296 101.168 13.9875 101.093 13.9125C101.018 13.8375 100.976 13.7358 100.976 13.6297C100.976 13.3737 100.9 13.2294 100.749 13.2009C100.536 13.1608 100.15 13.3378 99.9791 13.7754C99.9498 13.8503 99.8987 13.9147 99.8325 13.96C99.7662 14.0054 99.6879 14.0297 99.6076 14.0297H99.6075ZM92.4275 64.2281C92.3367 64.2282 92.2486 64.1973 92.1777 64.1405C92.1068 64.0836 92.0574 64.0041 92.0376 63.9152C92.0179 63.8264 92.0289 63.7334 92.069 63.6517C92.1091 63.57 92.1758 63.5045 92.2581 63.466L95.6906 61.8542C95.7837 61.8105 95.89 61.8045 95.9874 61.8376L100.038 63.211C100.087 63.2276 100.134 63.2539 100.173 63.2884C100.213 63.323 100.245 63.365 100.269 63.4122C100.292 63.4594 100.306 63.5107 100.31 63.5633C100.313 63.6159 100.306 63.6687 100.29 63.7186C100.273 63.7685 100.246 63.8146 100.212 63.8542C100.177 63.8938 100.135 63.9262 100.088 63.9494C100.041 63.9727 99.9892 63.9863 99.9368 63.9896C99.8844 63.9929 99.8318 63.9858 99.7821 63.9686L95.8837 62.6467L92.5962 64.1903C92.5434 64.2152 92.4858 64.2281 92.4274 64.2281L92.4275 64.2281Z" fill="#2A2A2A"/>
<path d="M91.7994 62.3509C91.7078 62.351 91.619 62.3194 91.5479 62.2615C91.4768 62.2036 91.4277 62.1229 91.4089 62.033C91.3901 61.9431 91.4027 61.8494 91.4447 61.7678C91.4866 61.6861 91.5553 61.6214 91.6392 61.5846L95.6999 59.8011C95.7497 59.7793 95.8034 59.7679 95.8578 59.7676C95.9122 59.7673 95.966 59.7782 96.016 59.7995L99.5937 61.328C99.691 61.3696 99.7679 61.4482 99.8074 61.5466C99.8469 61.645 99.8458 61.7551 99.8043 61.8526C99.7629 61.9502 99.6845 62.0273 99.5864 62.0669C99.4883 62.1065 99.3785 62.1054 99.2812 62.0639L95.862 60.6031L91.9591 62.3172C91.9087 62.3394 91.8543 62.3508 91.7993 62.3508L91.7994 62.3509ZM93.2647 66.1896C93.1747 66.1896 93.0873 66.1591 93.0168 66.1029C92.9463 66.0468 92.8967 65.9684 92.8763 65.8804C92.8559 65.7925 92.8657 65.7002 92.9042 65.6186C92.9427 65.5369 93.0077 65.4708 93.0884 65.4309L95.794 64.0963C95.8478 64.0697 95.9069 64.0557 95.9669 64.0552C96.027 64.0548 96.0863 64.0679 96.1405 64.0937L96.7896 64.4019C96.8369 64.4244 96.8793 64.456 96.9145 64.495C96.9496 64.5339 96.9768 64.5794 96.9944 64.6288C97.012 64.6783 97.0198 64.7307 97.0172 64.7832C97.0146 64.8356 97.0017 64.8871 96.9793 64.9345C96.9569 64.982 96.9254 65.0246 96.8866 65.0598C96.8477 65.0951 96.8024 65.1223 96.7531 65.14C96.7038 65.1576 96.6515 65.1654 96.5992 65.1628C96.5469 65.1602 96.4956 65.1473 96.4483 65.1248L95.9731 64.8992L93.4403 66.1485C93.3857 66.1755 93.3256 66.1896 93.2647 66.1897L93.2647 66.1896Z" fill="#2A2A2A"/>
<path d="M99.317 30.8796C98.0449 30.8796 96.3499 30.7165 94.1579 30.4545C90.3431 29.9985 85.7574 29.1994 84.374 28.5544C83.5885 28.1882 83.3936 27.213 83.3857 27.1717C83.3664 27.0679 83.3887 26.9608 83.4479 26.8735C83.5071 26.7862 83.5983 26.7259 83.7016 26.7058C83.8049 26.6857 83.9119 26.7073 83.9994 26.766C84.0868 26.8247 84.1476 26.9156 84.1685 27.0191C84.2029 27.1902 84.3674 27.6694 84.7101 27.8292C85.8456 28.3586 89.9478 29.1458 94.2523 29.6603C97.9011 30.0964 100.21 30.2636 101.216 29.8277C101.313 29.7856 101.423 29.7839 101.521 29.823C101.619 29.8621 101.698 29.9387 101.74 30.036C101.761 30.0842 101.772 30.136 101.773 30.1886C101.774 30.2411 101.764 30.2932 101.745 30.342C101.725 30.3909 101.697 30.4354 101.66 30.4731C101.624 30.5108 101.58 30.5409 101.532 30.5617C101.021 30.7833 100.294 30.8795 99.317 30.8795V30.8796ZM104.26 27.9659C104.19 27.9658 104.122 27.9475 104.062 27.9129C104.001 27.8782 103.951 27.8284 103.916 27.7683C103.881 27.7082 103.862 27.64 103.861 27.5703C103.861 27.5006 103.878 27.432 103.912 27.3712C103.92 27.3556 104.78 25.8029 104.957 24.9014C105.509 22.0943 104.844 20.7916 104.837 20.7787C104.734 20.5849 104.806 20.3428 104.999 20.2382C105.191 20.1336 105.431 20.2026 105.537 20.3947C105.57 20.4558 106.355 21.9271 105.74 25.0561C105.538 26.0818 104.646 27.6927 104.608 27.7607C104.574 27.823 104.523 27.8748 104.462 27.9109C104.4 27.9469 104.331 27.9659 104.26 27.9659ZM105.945 36.9797C105.847 36.9798 105.752 36.944 105.679 36.8789C105.629 36.8348 104.452 35.7596 103.867 32.349C103.384 29.5337 102.711 28.1316 102.704 28.1177C102.658 28.0225 102.651 27.9128 102.685 27.8125C102.719 27.7122 102.792 27.6296 102.887 27.5829C102.981 27.5362 103.091 27.5291 103.191 27.5632C103.291 27.5973 103.373 27.6698 103.42 27.7648C103.449 27.8249 104.148 29.2693 104.653 32.2135C105.182 35.3006 106.2 36.2729 106.21 36.2824C106.375 36.4285 106.389 36.6797 106.243 36.8453C106.206 36.8878 106.16 36.9217 106.108 36.9449C106.057 36.9681 106.001 36.98 105.945 36.9798L105.945 36.9797Z" fill="#090A0A"/>
<path d="M101.375 37.439C101.321 37.439 101.267 37.428 101.217 37.4065C101.168 37.385 101.123 37.3535 101.085 37.314C101.048 37.2745 101.019 37.2278 101 37.1767C100.982 37.1256 100.974 37.0712 100.977 37.0168C101.135 34.1659 99.6476 29.6636 99.6326 29.6185C99.5999 29.5181 99.6081 29.4089 99.6555 29.3146C99.7028 29.2203 99.7854 29.1486 99.8852 29.1151C99.9851 29.0816 100.094 29.0891 100.188 29.1359C100.283 29.1827 100.355 29.2651 100.389 29.3649C100.452 29.5551 101.939 34.0567 101.773 37.0612C101.767 37.1632 101.723 37.2592 101.649 37.3295C101.575 37.3997 101.477 37.4389 101.375 37.439H101.375ZM88.1883 26.6157C85.1511 26.6157 83.8742 24.3702 83.8199 24.2719C83.7688 24.1793 83.7564 24.0701 83.7855 23.9683C83.8145 23.8665 83.8827 23.7804 83.975 23.7289C84.0672 23.6774 84.1761 23.6648 84.2777 23.6937C84.3792 23.7226 84.4652 23.7908 84.5168 23.8832C84.5656 23.97 85.6989 25.9245 88.4166 25.8112C88.6362 25.8028 88.8224 25.9736 88.8315 26.1942C88.8358 26.3002 88.798 26.4035 88.7264 26.4816C88.6548 26.5596 88.5552 26.6059 88.4496 26.6103C88.3626 26.6139 88.2754 26.6157 88.1883 26.6157ZM90.8363 60.6892C90.7589 60.6892 90.6831 60.6665 90.6182 60.624C90.5533 60.5814 90.5023 60.5209 90.4712 60.4497C90.4401 60.3785 90.4304 60.2998 90.4432 60.2231C90.4561 60.1465 90.4909 60.0752 90.5434 60.0181C91.2334 59.2684 93.0774 57.1161 93.3209 56.1722C93.3479 56.0701 93.414 55.9828 93.505 55.9294C93.5959 55.8761 93.7042 55.861 93.8062 55.8874C93.9082 55.9139 93.9956 55.9798 94.0493 56.0707C94.1031 56.1616 94.1187 56.2701 94.0929 56.3726C93.7553 57.6808 91.3971 60.2697 91.1293 60.5606C91.092 60.6012 91.0467 60.6336 90.9963 60.6558C90.9458 60.6779 90.8913 60.6893 90.8363 60.6892H90.8363ZM86.5816 36.4376C86.4998 36.4375 86.4199 36.4123 86.3529 36.3652C86.2859 36.3181 86.2349 36.2515 86.2069 36.1744C85.2472 33.5317 83.7951 31.6501 82.0077 30.7329C80.6661 30.0445 79.5891 30.1338 79.5783 30.1347C79.3598 30.1546 79.1651 29.9938 79.1443 29.7746C79.1341 29.6694 79.1659 29.5645 79.2327 29.4828C79.2995 29.401 79.3959 29.3492 79.5008 29.3387C79.5522 29.3335 80.78 29.2213 82.319 29.9945C83.7098 30.6933 85.6433 32.2852 86.9562 35.9007C86.9781 35.9611 86.9852 36.0259 86.9769 36.0897C86.9685 36.1534 86.945 36.2142 86.9082 36.2669C86.8715 36.3195 86.8226 36.3626 86.7657 36.3923C86.7089 36.422 86.6457 36.4375 86.5816 36.4375V36.4376ZM84.1684 47.2804C84.0918 47.2804 84.0169 47.2583 83.9525 47.2167C83.8881 47.1751 83.837 47.1157 83.8054 47.0458C83.7738 46.9758 83.7629 46.8982 83.7741 46.8222C83.7853 46.7462 83.8181 46.675 83.8685 46.6172C83.9523 46.5211 85.9446 44.2533 87.9138 43.3517C87.9615 43.3299 88.0129 43.3177 88.0652 43.3159C88.1176 43.314 88.1698 43.3225 88.2188 43.3409C88.2679 43.3592 88.3129 43.3871 88.3512 43.4229C88.3895 43.4587 88.4204 43.5017 88.4421 43.5494C88.4639 43.5972 88.476 43.6488 88.4779 43.7013C88.4798 43.7538 88.4713 43.8061 88.453 43.8553C88.4347 43.9045 88.4069 43.9496 88.3712 43.9881C88.3355 44.0265 88.2927 44.0575 88.245 44.0793C86.433 44.9089 84.4881 47.1217 84.4686 47.144C84.4312 47.1869 84.385 47.2213 84.3333 47.2448C84.2815 47.2684 84.2253 47.2805 84.1684 47.2804ZM77.6359 54.7142C77.5594 54.7142 77.4819 54.6921 77.4137 54.6461C77.3983 54.6358 76.0422 53.7431 73.7399 53.5866C71.3573 53.4247 69.9153 53.5833 69.901 53.5849C69.7959 53.5969 69.6904 53.5666 69.6076 53.5006C69.5248 53.4346 69.4716 53.3383 69.4596 53.2329C69.4476 53.1275 69.4779 53.0217 69.5437 52.9387C69.6095 52.8557 69.7055 52.8023 69.8106 52.7903C69.8715 52.7833 71.3312 52.6211 73.7939 52.7886C76.3268 52.9609 77.7983 53.9413 77.8597 53.983C77.9304 54.031 77.9839 54.1004 78.0124 54.1812C78.0408 54.2619 78.0426 54.3497 78.0175 54.4316C77.9925 54.5135 77.9419 54.5851 77.8732 54.636C77.8045 54.6868 77.7213 54.7142 77.6359 54.7141V54.7142ZM77.2202 57.1762C77.139 57.1762 77.0598 57.1513 76.993 57.1049C76.9263 57.0585 76.8753 56.9928 76.8468 56.9166C76.8284 56.8674 76.8198 56.8151 76.8216 56.7626C76.8234 56.7101 76.8354 56.6585 76.8571 56.6107C76.8788 56.5629 76.9096 56.5198 76.9479 56.484C76.9861 56.4481 77.0311 56.4202 77.0801 56.4018C78.8836 55.7235 80.2889 56.3876 80.3478 56.4162C80.4427 56.4625 80.5154 56.5446 80.55 56.6445C80.5847 56.7444 80.5784 56.854 80.5327 56.9493C80.4869 57.0446 80.4054 57.1178 80.3059 57.153C80.2064 57.1881 80.0971 57.1823 80.0019 57.1368C79.9509 57.1127 78.8284 56.5983 77.3601 57.1506C77.3154 57.1675 77.268 57.1761 77.2202 57.1762ZM83.3783 71.2384C83.2932 71.2384 83.2103 71.2112 83.1418 71.1606C83.0733 71.11 83.0227 71.0388 82.9974 70.9573C82.9721 70.8758 82.9735 70.7883 83.0013 70.7077C83.0291 70.627 83.0819 70.5574 83.152 70.509C83.165 70.5 84.4664 69.5989 85.4064 68.6647C86.1842 67.8916 85.9309 65.7116 85.6585 64.5454C85.3959 63.4212 85.8477 61.5707 85.8671 61.4925C85.894 61.3912 85.9596 61.3045 86.0496 61.2512C86.1397 61.1979 86.247 61.1821 86.3485 61.2074C86.45 61.2327 86.5375 61.2969 86.5922 61.3863C86.647 61.4756 86.6645 61.583 86.6411 61.6852C86.5222 62.1666 86.2535 63.5863 86.435 64.363C86.6309 65.2018 87.1761 68.0318 85.9678 69.2328C84.9761 70.2184 83.6594 71.1297 83.6038 71.168C83.5375 71.2139 83.4589 71.2384 83.3783 71.2384ZM88.9327 73.6478C88.8531 73.6478 88.7754 73.6239 88.7094 73.5792C88.6435 73.5345 88.5924 73.471 88.5627 73.3969C88.5331 73.3228 88.5262 73.2415 88.543 73.1635C88.5598 73.0854 88.5996 73.0142 88.6571 72.959C90.3762 71.3093 99.417 67.2563 107.775 65.8229C117.292 64.191 124.062 65.4469 124.802 65.5955C124.906 65.6163 124.997 65.6775 125.056 65.7658C125.114 65.854 125.136 65.962 125.115 66.066C125.094 66.17 125.033 66.2615 124.945 66.3203C124.857 66.3792 124.75 66.4005 124.646 66.3797C123.92 66.2341 117.284 65.0036 107.91 66.6113C99.8314 67.9967 90.8234 71.9871 89.2083 73.537C89.1342 73.6083 89.0355 73.648 88.9327 73.6478ZM116.669 33.9565C116.584 33.9564 116.501 33.9291 116.433 33.8784C116.364 33.8277 116.314 33.7564 116.289 33.6748C116.281 33.649 115.487 31.0801 115.099 29.8508C115.068 29.7501 115.079 29.6414 115.128 29.5483C115.177 29.4551 115.26 29.3851 115.36 29.3533C115.46 29.3216 115.569 29.3306 115.662 29.3786C115.756 29.4265 115.826 29.5095 115.859 29.6094C116.248 30.841 117.042 33.4124 117.05 33.4382C117.069 33.4981 117.073 33.5614 117.063 33.6232C117.052 33.685 117.027 33.7435 116.99 33.7939C116.953 33.8443 116.905 33.8853 116.849 33.9136C116.793 33.9418 116.732 33.9566 116.669 33.9566L116.669 33.9565ZM111.969 24.0331C111.9 24.0332 111.832 24.0153 111.772 23.9811C111.712 23.947 111.662 23.8978 111.626 23.8383C110.395 21.7726 107.754 20.85 107.728 20.841C107.627 20.8068 107.545 20.7341 107.498 20.639C107.452 20.5439 107.445 20.4341 107.479 20.3337C107.513 20.2333 107.585 20.1506 107.68 20.1037C107.774 20.0569 107.884 20.0496 107.984 20.0837C108.103 20.1243 110.927 21.1056 112.311 23.4281C112.347 23.4888 112.366 23.558 112.367 23.6286C112.368 23.6993 112.35 23.769 112.315 23.8305C112.281 23.892 112.23 23.9431 112.169 23.9787C112.108 24.0144 112.039 24.0332 111.969 24.0332L111.969 24.0331Z" fill="#090A0A"/>
<path d="M114.568 3.73215C114.153 3.89434 113.865 6.42612 112.961 8.27866C112.229 9.77528 111.338 10.7197 111.338 10.9701C111.338 11.2204 112.066 12.2115 114.334 13.0982C115.644 11.5021 116.112 10.8474 116.674 9.53175C117.236 8.21611 117.797 4.67965 117.797 4.67965C117.797 4.67965 115.192 3.48821 114.568 3.73215Z" fill="#14A1DC"/>
<path d="M116.955 4.67964C116.955 4.67964 120.325 3.07648 121.656 3.38775C122.988 3.69903 125.193 6.61391 125.193 6.61391C125.193 6.61391 128.854 7.53229 133.057 10.1432C137.259 12.754 141.428 18.0443 139.572 24.0785C137.716 30.1126 124.402 23.026 123.237 21.9584C122.072 20.8909 121.365 18.1786 120.741 17.9699C120.117 17.7612 115.904 17.7718 115 16.9268C113.751 15.7584 113.727 12.8903 114.283 11.1378C114.84 9.38523 116.955 4.67964 116.955 4.67964H116.955Z" fill="#14A1DC"/>
<path d="M114.335 13.4984C114.25 13.4985 114.168 13.4717 114.1 13.4218C114.031 13.372 113.981 13.3016 113.955 13.221C113.929 13.1404 113.929 13.0536 113.956 12.9731C113.982 12.8927 114.033 12.8228 114.102 12.7734C116.253 11.2283 117.317 6.59946 117.03 4.87193C117.022 4.82013 117.023 4.76714 117.035 4.71597C117.047 4.66481 117.069 4.61648 117.099 4.57374C117.129 4.53101 117.168 4.4947 117.212 4.4669C117.257 4.43909 117.306 4.42034 117.358 4.4117C117.41 4.40306 117.462 4.40471 117.513 4.41655C117.564 4.42839 117.613 4.4502 117.655 4.48072C117.698 4.51123 117.734 4.54987 117.762 4.59442C117.789 4.63898 117.808 4.68857 117.817 4.74037C118.148 6.73238 117.031 11.6537 114.566 13.4237C114.496 13.4742 114.415 13.4985 114.335 13.4985V13.4984ZM127.9 23.6572C126.803 23.6572 124.567 23.4415 123.001 22.2803C121.575 21.223 121.024 19.6089 120.729 18.7418C120.675 18.585 120.61 18.3938 120.573 18.3167C120.406 18.2308 119.789 18.1748 119.236 18.1978C119.13 18.2017 119.028 18.1636 118.95 18.0919C118.873 18.0202 118.827 17.9206 118.823 17.815C118.818 17.7094 118.856 17.6063 118.927 17.5283C118.998 17.4503 119.097 17.4037 119.202 17.3987C119.935 17.3677 120.874 17.4124 121.188 17.802C121.296 17.9359 121.367 18.1418 121.483 18.483C121.751 19.2677 122.249 20.7282 123.475 21.6372C125.149 22.8785 127.869 22.8899 128.335 22.8407C128.387 22.835 128.439 22.8397 128.49 22.8546C128.54 22.8694 128.587 22.894 128.628 22.9271C128.669 22.9601 128.703 23.0009 128.728 23.0471C128.753 23.0933 128.768 23.1441 128.774 23.1964C128.779 23.2487 128.775 23.3016 128.76 23.352C128.745 23.4025 128.72 23.4494 128.687 23.4903C128.654 23.5311 128.613 23.565 128.567 23.59C128.521 23.6151 128.47 23.6307 128.418 23.6361C128.305 23.648 128.126 23.6572 127.9 23.6572ZM126.105 10.1432H126.1C125.994 10.142 125.893 10.0987 125.819 10.0228C125.745 9.94698 125.705 9.8448 125.706 9.73875C125.725 8.03586 124.881 6.86362 124.873 6.85195C124.743 6.67432 124.78 6.42414 124.957 6.29314C125.134 6.16214 125.382 6.19885 125.514 6.37568C125.555 6.4315 126.526 7.76466 126.503 9.74795C126.502 9.85319 126.46 9.9537 126.385 10.0277C126.31 10.1017 126.21 10.1432 126.105 10.1432Z" fill="#090A0A"/>
<path d="M117.698 141.63C117.968 141.279 119.465 142.814 127.184 142.339C136.691 141.755 139.25 140.086 139.624 139.961C139.999 139.836 140.539 145.511 140.29 146.012C140.04 146.512 135.86 148.348 129.025 148.64C122.191 148.932 119.029 148.39 118.654 148.265C118.28 148.14 117.204 142.271 117.698 141.63ZM87.2712 142.5C87.6089 142.213 88.7159 144.304 96.3993 145.185C104.083 146.066 108.668 145.514 109.06 145.47C109.453 145.426 108.797 151.089 108.449 151.527C108.1 151.964 103.684 152.491 96.8852 151.733C89.8103 150.944 87.1624 149.389 86.8223 149.188C86.4821 148.988 86.6545 143.023 87.2711 142.5H87.2712Z" fill="#005C94"/>
<path d="M124.616 142.842C120.562 142.842 118.483 142.161 118.373 142.124C118.273 142.09 118.19 142.018 118.143 141.923C118.096 141.828 118.088 141.718 118.122 141.618C118.156 141.517 118.228 141.434 118.322 141.387C118.417 141.34 118.526 141.332 118.627 141.366C118.66 141.377 122.049 142.477 128.562 141.842C135.121 141.203 138.831 139.879 138.868 139.866C138.967 139.831 139.075 139.838 139.17 139.883C139.264 139.928 139.337 140.009 139.373 140.108C139.408 140.206 139.404 140.315 139.36 140.411C139.316 140.506 139.237 140.58 139.139 140.618C138.986 140.673 135.309 141.989 128.639 142.638C127.132 142.785 125.79 142.842 124.616 142.842L124.616 142.842ZM106.531 145.971C104.534 145.971 100.902 145.932 97.3927 145.694C92.1475 145.338 88.4775 143.547 88.3238 143.471C88.229 143.424 88.1566 143.341 88.1227 143.241C88.0887 143.14 88.0959 143.03 88.1428 142.935C88.1896 142.84 88.2721 142.768 88.3723 142.734C88.4725 142.7 88.582 142.707 88.6768 142.754C88.7228 142.776 92.3743 144.552 97.4466 144.896C102.596 145.245 108.015 145.163 108.069 145.162C108.289 145.158 108.471 145.335 108.474 145.555C108.475 145.608 108.466 145.66 108.447 145.709C108.427 145.758 108.399 145.802 108.362 145.84C108.326 145.878 108.282 145.908 108.234 145.929C108.186 145.95 108.134 145.961 108.082 145.962C108.065 145.962 107.484 145.971 106.531 145.971Z" fill="#04202C"/>
<path d="M121.77 149.032C121.7 149.032 121.632 149.014 121.571 148.979C121.511 148.944 121.46 148.894 121.425 148.833C121.361 148.723 119.862 146.084 120.441 142.154C120.448 142.102 120.466 142.052 120.493 142.007C120.52 141.962 120.555 141.923 120.597 141.891C120.639 141.86 120.687 141.837 120.738 141.825C120.789 141.812 120.841 141.809 120.893 141.817C120.945 141.825 120.995 141.842 121.04 141.869C121.085 141.896 121.124 141.932 121.155 141.974C121.186 142.016 121.209 142.064 121.222 142.115C121.234 142.166 121.237 142.219 121.229 142.271C120.694 145.91 122.1 148.407 122.115 148.431C122.15 148.492 122.168 148.561 122.168 148.631C122.168 148.702 122.15 148.77 122.115 148.831C122.08 148.892 122.03 148.943 121.969 148.978C121.908 149.013 121.84 149.032 121.77 149.032ZM88.8482 150.18C88.7492 150.18 88.6538 150.143 88.5805 150.076C88.5073 150.009 88.4614 149.917 88.4518 149.818C88.1334 146.526 89.1999 143.574 89.2455 143.45C89.2827 143.352 89.3573 143.272 89.4529 143.228C89.5485 143.184 89.6574 143.18 89.7559 143.217C89.8545 143.253 89.9348 143.327 89.9793 143.423C90.0239 143.518 90.0291 143.627 89.9938 143.726C89.9833 143.755 88.9452 146.636 89.2455 149.741C89.2509 149.797 89.2446 149.853 89.2271 149.906C89.2096 149.959 89.1812 150.007 89.1437 150.049C89.1063 150.09 89.0606 150.123 89.0097 150.146C88.9588 150.168 88.9037 150.18 88.8481 150.18L88.8482 150.18ZM137.158 118.812C137.074 118.812 136.994 118.786 136.926 118.738C136.858 118.689 136.808 118.621 136.78 118.542L135.592 115.075C135.558 114.975 135.566 114.866 135.612 114.772C135.659 114.677 135.741 114.605 135.84 114.571C135.94 114.536 136.049 114.543 136.143 114.589C136.238 114.634 136.311 114.716 136.346 114.815L137.535 118.282C137.555 118.342 137.561 118.407 137.552 118.47C137.543 118.533 137.519 118.593 137.482 118.645C137.445 118.696 137.397 118.739 137.34 118.768C137.284 118.797 137.221 118.812 137.158 118.812Z" fill="#04202C"/>
<path d="M121.499 150.516C122.669 150.786 128.002 152.511 129.312 152.39C130.623 152.269 135.99 150.642 136.677 150.892C136.365 149.328 137.284 148.114 138.385 148.064C139.485 148.013 140.296 149.703 141.794 150.955C143.292 152.207 145.328 153.391 149.283 154.429C153.34 155.493 155.898 156.901 156.211 158.967C156.523 161.032 155.805 162.879 155.805 162.879C147.598 164.803 138.241 164.652 121.072 160.7C121.072 160.7 120.991 158.82 121.053 157.089C121.116 155.357 121.288 153.709 121.288 153.709C121.288 153.709 120.939 153.625 120.757 152.895C120.631 152.389 120.325 150.245 121.499 150.516L121.499 150.516ZM90.3688 152.707C90.9357 155.442 93.0645 158.299 95.9856 157.715C99.4158 157.029 100.854 155.938 100.854 155.938C100.854 155.938 101.201 154.599 103.412 153.834C105.624 153.069 106.97 153.959 107.594 154.961C108.218 155.962 110.028 159.029 112.462 159.905C114.896 160.782 116.955 162.66 117.142 164.412C117.33 166.165 117.142 168.668 117.142 168.668C117.142 168.668 108.28 170.546 106.782 170.17C105.285 169.795 94.2382 164.85 93.6141 164.475C92.99 164.099 87.1465 160.761 87.1465 160.761C87.1465 160.761 87.4573 155.504 87.8996 153.358C88.1197 152.29 87.5812 150.618 88.4965 150.642C89.164 150.659 90.1222 151.518 90.3688 152.707Z" fill="#383838"/>
<path d="M121.088 160.167C120.776 160.05 120.447 160.293 120.466 160.627C120.494 161.112 120.552 161.792 120.675 162.496C120.845 163.471 121.006 163.834 121.262 164.081C121.625 164.433 125.734 165.184 130.477 165.101C132.932 165.057 134.388 164.683 138.091 165.101C141.794 165.518 145.189 166.106 149.117 166.185C153.07 166.266 155.753 165.257 156.044 165.132C156.255 165.041 156.386 163.508 156.442 162.671C156.459 162.42 156.218 162.232 155.979 162.309C155.173 162.57 153.428 163.053 151.114 163.221C145.372 163.64 140.866 162.106 135.179 161.804C129.442 161.499 125.224 161.72 121.088 160.167ZM117.238 167.184C117.413 167.072 117.641 167.195 117.648 167.402C117.68 168.337 117.617 170.069 117.158 170.452C116.597 170.922 111.744 173.05 107.656 172.455C103.58 171.862 98.0767 169.857 95.393 167.98C92.7094 166.102 87.415 163.309 86.8928 163.035C86.4468 162.801 86.8208 160.321 86.9394 159.602C86.9431 159.58 86.952 159.559 86.9655 159.541C86.9789 159.522 86.9964 159.508 87.0167 159.497C87.0369 159.487 87.0593 159.482 87.0819 159.482C87.1045 159.483 87.1267 159.488 87.1468 159.499C87.944 159.916 91.4092 161.784 93.6455 163.41C96.4852 165.476 102.633 168.293 105.94 168.856C109.082 169.391 114.687 168.825 117.238 167.184L117.238 167.184Z" fill="white"/>
<path d="M110.09 162.581C110.078 162.581 110.066 162.58 110.054 162.579C109.937 162.569 107.16 162.302 104.968 160.487C104.092 159.762 103.216 158.78 102.442 157.914C101.861 157.263 101.141 156.456 100.879 156.339C100.78 156.345 100.683 156.314 100.605 156.252C100.528 156.19 100.476 156.102 100.46 156.004C100.444 155.906 100.465 155.805 100.519 155.722C100.573 155.639 100.656 155.578 100.752 155.553C101.26 155.419 101.787 155.981 103.037 157.381C103.791 158.226 104.646 159.184 105.476 159.87C107.472 161.523 110.099 161.78 110.126 161.783C110.228 161.792 110.323 161.84 110.391 161.918C110.459 161.995 110.494 162.096 110.489 162.199C110.485 162.302 110.441 162.399 110.366 162.47C110.292 162.542 110.193 162.581 110.09 162.581ZM146.079 156.33C144.064 156.33 140.728 153.926 139.741 153.05C139.062 152.448 137.648 151.195 136.718 151.292C136.665 151.297 136.613 151.292 136.563 151.277C136.512 151.262 136.466 151.238 136.425 151.204C136.384 151.171 136.351 151.131 136.326 151.084C136.301 151.038 136.285 150.987 136.28 150.935C136.269 150.83 136.3 150.724 136.367 150.642C136.433 150.559 136.53 150.507 136.635 150.496C137.816 150.373 139.13 151.441 140.269 152.451C141.29 153.357 144.413 155.531 146.079 155.531C146.185 155.531 146.286 155.573 146.361 155.648C146.436 155.723 146.478 155.824 146.478 155.93C146.478 156.036 146.436 156.138 146.361 156.213C146.286 156.288 146.185 156.33 146.079 156.33Z" fill="#0D0D0D"/>
<path d="M106.248 9.98344C104.872 9.82084 103.761 9.53228 102.954 9.06161C102.368 8.71915 102.27 8.2312 102.216 8.06629C102.162 7.90129 102.527 7.07544 103.599 7.50548C104.515 7.87242 107.739 7.78892 107.739 7.78892C107.739 7.78892 107.011 7.87234 107.822 7.74717C108.634 7.62201 106.925 10.0635 106.248 9.98344Z" fill="#F2AE9D"/>
<path d="M109.115 3.28175C109.571 4.67913 109.518 5.78731 108.663 6.72001C108.309 7.10686 107.594 7.74301 107.074 7.91328C105.302 8.49424 103.344 7.36247 102.699 5.38542C102.153 3.71076 102.699 1.85591 103.964 1.00854C104.192 0.855542 104.469 0.842745 104.74 0.75389C106.512 0.17293 108.471 1.3047 109.115 3.28175Z" fill="#0E0D0D"/>
<path d="M107.616 7.3126C109.388 6.73167 110.301 4.65805 109.657 2.68104C109.012 0.704027 107.054 -0.42772 105.282 0.15321C103.51 0.73414 102.597 2.80776 103.241 4.78477C103.886 6.76179 105.844 7.89353 107.616 7.3126Z" fill="#E21F24"/>
<path d="M108.932 5.10897C108.997 4.64078 108.958 4.14228 108.797 3.65073C108.284 2.07653 106.724 1.17581 105.314 1.63833C104.593 1.87474 104.05 2.42179 103.76 3.1108C103.903 2.0802 104.55 1.20101 105.52 0.883014C106.93 0.420501 108.49 1.32121 109.004 2.89542C109.254 3.66385 109.208 4.45155 108.932 5.10905L108.932 5.10897Z" fill="#0E0D0D"/>
<path d="M108.798 3.64941C108.958 4.14103 108.997 4.63945 108.932 5.10765C108.932 5.10765 108.933 5.10837 108.932 5.10925C108.642 5.79818 108.099 6.34531 107.378 6.58172C105.967 7.04423 104.408 6.1432 103.895 4.56907C103.735 4.07745 103.696 3.57903 103.76 3.11099C103.76 3.11003 103.76 3.1094 103.76 3.1094C104.05 2.42046 104.593 1.87334 105.314 1.63692C106.724 1.17441 108.284 2.0752 108.798 3.64941Z" fill="#0C6184"/>
<path d="M108.139 4.74817C108.046 4.74804 107.957 4.71566 107.885 4.65657C107.814 4.59748 107.765 4.51535 107.748 4.42426C107.619 3.75676 106.969 2.83669 106.422 2.7544C106.317 2.73866 106.223 2.6819 106.16 2.5966C106.097 2.5113 106.071 2.40445 106.086 2.29956C106.102 2.19467 106.159 2.10033 106.244 2.03729C106.329 1.97425 106.435 1.94767 106.54 1.96341C107.564 2.11753 108.367 3.42637 108.531 4.27214C108.542 4.33006 108.54 4.38975 108.526 4.44693C108.511 4.5041 108.484 4.55735 108.447 4.60284C108.409 4.64834 108.362 4.68496 108.309 4.71009C108.256 4.73521 108.197 4.74822 108.139 4.74817Z" fill="white"/>
<path d="M96.5552 13.916C97.6974 13.5415 98.2865 12.2047 97.871 10.9301C97.4555 9.65549 96.1927 8.92585 95.0505 9.30038C93.9084 9.6749 93.3193 11.0118 93.7348 12.2864C94.1503 13.5609 95.413 14.2906 96.5552 13.916Z" fill="#0E0D0D"/>
<path d="M101.684 9.40421L96.6498 4.16797L94.3886 10.5567C94.3519 10.6396 94.3216 10.7252 94.298 10.8127L94.2972 10.8149L94.2973 10.815C94.2039 11.1606 94.2079 11.5472 94.3316 11.9266C94.6417 12.8775 95.5838 13.4219 96.436 13.1425C96.5878 13.0926 96.7305 13.0183 96.8585 12.9225L96.8587 12.9227L101.684 9.40421H101.684Z" fill="#E21F24"/>
<path d="M102.779 5.35988C103.235 6.75726 103.182 7.86543 102.328 8.79813C101.973 9.18499 101.258 9.82113 100.738 9.99141C98.9665 10.5724 97.0079 9.4406 96.3634 7.46354C95.8174 5.78888 96.3631 3.93403 97.6276 3.08666C97.8559 2.93367 98.1333 2.92087 98.4043 2.83201C100.176 2.25105 102.135 3.38282 102.779 5.35988Z" fill="#0E0D0D"/>
<path d="M101.282 9.38877C103.054 8.80784 103.967 6.73422 103.323 4.75721C102.678 2.7802 100.72 1.64845 98.9481 2.22938C97.1765 2.81031 96.2627 4.88393 96.9072 6.86095C97.5517 8.83796 99.5104 9.9697 101.282 9.38877Z" fill="#E21F24"/>
<path d="M102.598 7.18514C102.663 6.71695 102.624 6.21845 102.463 5.7269C101.95 4.1527 100.39 3.25199 98.9797 3.7145C98.2587 3.95091 97.716 4.49796 97.4258 5.18697C97.5692 4.15638 98.2158 3.27718 99.1858 2.95919C100.596 2.49667 102.156 3.39739 102.67 4.97159C102.92 5.74002 102.874 6.52772 102.598 7.18522L102.598 7.18514Z" fill="#0E0D0D"/>
<path d="M102.462 5.72753C102.622 6.21916 102.661 6.71758 102.596 7.18577C102.596 7.18577 102.597 7.18649 102.596 7.18737C102.306 7.8763 101.763 8.42343 101.042 8.65985C99.6315 9.12236 98.0723 8.22133 97.5592 6.6472C97.3989 6.15557 97.3599 5.65715 97.4237 5.18912C97.4243 5.18816 97.424 5.18752 97.424 5.18752C97.7142 4.49859 98.257 3.95146 98.9779 3.71504C100.389 3.25253 101.949 4.15332 102.462 5.72753Z" fill="#0C6184"/>
<path d="M101.805 6.82629C101.712 6.82617 101.623 6.79379 101.551 6.73469C101.48 6.6756 101.431 6.59348 101.414 6.50238C101.285 5.83489 100.635 4.91482 100.088 4.83252C99.983 4.81678 99.889 4.76002 99.8261 4.67472C99.7633 4.58942 99.7368 4.48258 99.7525 4.37769C99.7682 4.2728 99.8248 4.17845 99.9098 4.11541C99.9949 4.05237 100.101 4.0258 100.206 4.04154C101.23 4.19566 102.033 5.5045 102.197 6.35026C102.208 6.40819 102.206 6.46788 102.192 6.52505C102.177 6.58223 102.15 6.63547 102.113 6.68097C102.075 6.72647 102.028 6.76309 101.975 6.78821C101.922 6.81334 101.864 6.82634 101.805 6.82629H101.805Z" fill="white"/>
<path d="M123.363 58.5939C123.299 58.594 123.236 58.5786 123.179 58.5489C123.122 58.5193 123.073 58.4763 123.036 58.4236C122.992 58.3603 121.948 56.8676 121.699 56.4961C121.64 56.408 121.618 56.3001 121.638 56.196C121.659 56.0919 121.719 56.0002 121.807 55.9411C121.895 55.8819 122.003 55.8601 122.106 55.8805C122.21 55.9009 122.302 55.9618 122.361 56.0499C122.605 56.4148 123.678 57.9489 123.689 57.9643C123.731 58.0242 123.755 58.0945 123.76 58.1675C123.765 58.2405 123.75 58.3134 123.716 58.3783C123.683 58.4433 123.632 58.4977 123.57 58.5357C123.507 58.5737 123.436 58.5938 123.363 58.5939H123.363Z" fill="#090A0A"/>
</g>
<g clip-path="url(#clip2_6725_85383)">
<path d="M72.3002 158.741C72.3002 158.741 72.5498 161.12 72.8306 162.184C71.4266 163.748 70.397 165.626 71.2082 167.285C72.0194 168.944 77.6355 169.131 79.3203 168.537C81.0051 167.942 82.5028 167.066 82.7212 166.252C82.9396 165.438 82.846 159.993 82.846 159.993C82.846 159.993 82.0659 154.955 82.0347 154.391C82.0036 153.828 81.2547 151.074 81.2547 151.074L73.3825 153.327L71.4889 154.767L72.3002 158.741L72.3002 158.741Z" fill="#383838"/>
<path d="M72.2382 160.956C72.1691 160.956 72.1012 160.938 72.0412 160.904C71.9812 160.869 71.9311 160.82 71.8958 160.761C71.8605 160.701 71.8412 160.633 71.8399 160.564C71.8386 160.495 71.8552 160.426 71.8882 160.365C72.4691 159.292 73.3847 158.748 74.6098 158.748C74.7155 158.748 74.8169 158.79 74.8917 158.865C74.9665 158.94 75.0085 159.042 75.0085 159.148C75.0085 159.254 74.9665 159.356 74.8917 159.431C74.8169 159.506 74.7155 159.548 74.6098 159.548C73.6739 159.548 73.0317 159.929 72.5889 160.747C72.5547 160.81 72.504 160.863 72.4423 160.9C72.3806 160.937 72.3101 160.956 72.2382 160.956L72.2382 160.956Z" fill="#B7B7B7"/>
<path d="M54.7332 136.916C39.236 137.774 27.486 139.748 26.813 149.175C25.9975 160.598 43.2665 164.045 54.1734 164.53C60.4151 164.807 70.46 164.718 70.46 164.718C73.1009 160.29 74.0176 155.775 73.1282 151.17L54.7332 136.916Z" fill="#005C94"/>
<path d="M84.2557 148.168C84.9507 148.457 85.3115 149.659 85.4079 150.91C85.5043 152.161 85.2096 156.428 85.139 156.963C85.0684 157.499 83.8404 158.367 83.7092 158.612C83.578 158.858 84.2973 160.519 84.5974 161.1C84.8976 161.681 84.3395 166.248 83.9382 167.535C83.4553 169.084 79.8846 169.849 76.7621 169.851C73.018 169.854 71.8655 169.843 70.8339 168.756C70.284 168.177 69.9717 166.318 70.6156 165.846C70.9803 165.578 72.0326 166.398 73.798 167.285C75.2927 168.036 79.31 167.717 80.6621 167.129C82.3157 166.409 82.7525 163.415 82.4078 162.292C82.0631 161.169 81.1556 157.965 80.9155 154.922C80.8285 153.819 80.6639 150.918 80.6639 150.918L84.2557 148.168Z" fill="#1C1C1C"/>
<path d="M17.6738 131.615C18.0622 130.541 19.6257 128.181 21.1513 126.727C21.9877 125.93 26.9084 126.551 27.8785 127.369C28.8487 128.188 30.537 133.587 28.929 134.765C26.4678 136.567 17.6738 131.615 17.6738 131.615Z" fill="#F5C2B6"/>
<path d="M30.2848 126.611L47.535 132.177L46.5227 142.135L26.6973 134.102L30.2848 126.611Z" fill="#F5C2B6"/>
<path d="M53.6882 126.859C53.4291 127.437 52.083 127.393 50.6817 126.761C49.2805 126.129 48.3547 125.148 48.6138 124.57C48.8729 123.992 50.3168 123.402 51.7181 124.034C53.1194 124.666 53.9473 126.281 53.6882 126.859Z" fill="#2A2A2A"/>
<path d="M40.4405 122.285L37.3184 132.982L48.0447 135.479L51.7763 123.052L40.4405 122.285Z" fill="#F5C2B6"/>
<path d="M48.3827 104.053C46.3969 104.884 44.8165 105.589 43.3019 109.224C41.7873 112.859 40.4728 117.648 40.4728 117.648C40.4728 117.648 38.5831 119.224 37.9638 120.545C37.3446 121.866 39.5676 123.862 39.8908 124.165C41.1147 123.034 45.1599 123.146 46.9231 123.451C48.8701 123.788 53.1943 124.544 53.6874 126.859C56.0323 128.344 57.0325 125.116 57.0325 125.116L48.3827 104.053L48.3827 104.053Z" fill="#FFAD00"/>
<path d="M50.7137 103.707C50.7137 103.707 56.385 101.175 58.6277 100.813C60.8704 100.451 64.8697 99.4371 67.2232 99.1089C69.6326 98.7729 71.7139 98.8735 71.7139 98.8735C71.7139 98.8735 81.3616 118.538 83.3314 122.661C85.3012 126.784 86.6043 129.104 86.8043 130.323C87.0044 131.541 84.352 137.697 84.352 137.697L55.5288 132.251L54.8969 125.591C54.8969 125.591 53.0738 124.328 51.5284 121.778C50.5039 120.087 47.0996 105.368 47.0996 105.368L50.7137 103.707H50.7137Z" fill="#FFAD00"/>
<path d="M43.703 84.2832C43.703 84.2832 41.4615 84.6181 40.5252 85.6426C38.93 87.3882 38.4107 89.39 39.0788 91.9871C39.7469 94.584 41.0436 99.6234 37.5547 102.19C39.3817 103.065 42.2173 104.105 42.2173 104.105C42.2173 104.105 43.1173 102.804 43.2385 102.139C43.6594 103.336 43.7172 104.433 43.7172 104.433C43.7172 104.433 45.5291 105.265 48.1408 105.045C53.1488 104.622 55.3654 102.812 55.3654 102.812L43.703 84.2832ZM56.2179 95.2772L55.0043 93.0013L58.3314 91.1814L60.1361 94.3336L59.4341 97.0182L58.2278 97.6464L56.2179 95.2772Z" fill="#864D09"/>
<path d="M83.2764 118.212C84.6147 115.829 84.7846 113.38 83.6558 112.743C82.527 112.105 80.5271 113.519 79.1888 115.902C77.8505 118.285 77.6807 120.734 78.8094 121.372C79.9382 122.009 81.9381 120.595 83.2764 118.212Z" fill="#2A2A2A"/>
<path d="M83.0647 131.399C84.7745 133.76 86.8862 137.331 86.1019 143.724C85.2989 150.27 80.4935 156.309 70.2812 156.418C62.4815 156.501 44.9707 131.266 44.9707 131.266C44.9707 131.266 66.058 133.092 69.9605 131.983C75.8351 130.314 83.0648 131.399 83.0648 131.399H83.0647Z" fill="#005C94"/>
<path d="M83.1606 106.516C88.4944 110.15 94.9501 115.619 94.7163 120.224C94.5096 124.295 87.1967 127.966 82.8377 129.99C79.0588 131.744 71.1446 135.202 71.1446 135.202C71.1446 135.202 61.6312 136.953 61.1932 136.843C60.7552 136.734 56.9492 130.264 56.9492 130.264C56.9492 130.264 60.7407 129.348 62.4846 129.079C64.2286 128.81 66.4198 129.475 66.4198 129.475L81.2584 119.491L76.0741 115.894L83.1606 106.516Z" fill="#F5C2B6"/>
<path d="M54.5166 128.378C54.4195 128.378 54.3258 128.343 54.2531 128.278C54.1804 128.214 54.1336 128.125 54.1215 128.028L53.8617 125.943C53.398 125.578 51.9412 124.31 50.796 121.991C49.5315 119.429 49.5899 116.014 49.593 115.87C49.5978 115.649 49.7818 115.474 50.0001 115.479C50.1057 115.481 50.2062 115.525 50.2794 115.602C50.3525 115.678 50.3924 115.781 50.3902 115.887C50.3895 115.92 50.3341 119.253 51.5106 121.636C52.7658 124.178 54.4485 125.386 54.4654 125.398C54.5109 125.43 54.5492 125.471 54.5779 125.519C54.6066 125.567 54.625 125.62 54.632 125.675L54.9128 127.929C54.9198 127.985 54.9148 128.042 54.8981 128.097C54.8814 128.151 54.8533 128.201 54.8159 128.243C54.7784 128.286 54.7324 128.32 54.6808 128.343C54.6292 128.366 54.5733 128.378 54.5167 128.378L54.5166 128.378Z" fill="#0F0F0F"/>
<path d="M57.958 92.4889C57.958 92.4889 57.1351 95.0613 56.3701 96.356C55.6051 97.65 54.3257 101.832 49.5919 102.918C46.3552 103.662 43.6337 101.898 42.649 99.2336C42.4779 98.7694 42.2923 98.2882 42.0973 97.7882C42.0776 97.7378 42.0571 97.6874 42.0375 97.637C42.0249 97.6039 42.0116 97.5709 41.9982 97.537C41.992 97.5213 41.9857 97.5047 41.9794 97.4882C41.7836 96.9914 41.5784 96.4766 41.3651 95.9413C41.3294 95.8531 41.2946 95.7649 41.259 95.676C41.2366 95.6201 41.2152 95.565 41.1928 95.5083C41.175 95.4642 41.1579 95.4201 41.1401 95.3752C41.124 95.3335 41.107 95.2918 41.0901 95.2501C40.8945 94.757 40.7005 94.2633 40.5081 93.7691C39.3253 90.719 40.5876 88.385 41.7287 87.1126C42.8393 85.8753 44.5902 85.0605 44.5902 85.0605C44.5902 85.0605 50.7644 86.4349 53.3585 87.4263C55.9508 88.4162 57.958 92.4887 57.958 92.4887L57.958 92.4889Z" fill="#F5C2B6"/>
<path d="M51.3105 101.28C51.3105 101.28 55.2377 106.789 55.9958 107.657C56.7538 108.525 58.185 108.786 60.1432 106.444C62.1153 104.087 62.3598 101.696 62.1181 101.256C61.856 100.778 56.2612 93.3828 56.2612 93.3828L51.3105 101.28Z" fill="#F5C2B6"/>
<path d="M42.8224 85.4554C44.2291 88.4311 46.0995 90.0147 48.933 90.8359C51.5033 91.5808 55.6732 90.6038 56.3094 90.3506C56.9456 90.0975 58.4781 93.0888 58.8597 94.3998C59.2412 95.7108 58.6353 99.0334 56.5857 99.8629C61.0029 99.0444 63.279 97.0335 63.1905 94.1701C63.102 91.3066 60.8436 89.8827 59.392 88.4949C57.4899 86.6764 57.064 84.6384 53.7003 83.0618C50.2898 81.4635 45.9104 81.0933 44.2987 81.9309C42.6068 82.8102 42.5042 84.7819 42.8225 85.4553L42.8224 85.4554Z" fill="#864D09"/>
<path d="M54.4207 91.3915C54.4207 91.3915 55.5636 88.601 57.3195 89.4828C58.9563 90.3048 58.4833 93.7771 57.2062 94.4004C55.8534 95.0606 54.1423 92.6286 54.4207 91.3916V91.3915Z" fill="#F5C2B6"/>
<path d="M49.7989 82.3505C50.6702 82.2834 53.6296 80.5177 51.6363 78.8789C54.5692 79.5904 53.7938 82.8594 51.521 83.0112C49.2481 83.1631 49.5264 82.3714 49.7989 82.3505Z" fill="#864D09"/>
<path d="M44.3506 90.3801C44.6776 90.0925 45.4662 89.2962 46.5303 89.054C47.5151 88.8298 48.1302 88.9578 48.417 88.9829C48.8073 89.0169 48.822 89.5423 48.1954 89.6851C47.7343 89.7901 45.6515 91.0595 45.1712 91.4156C44.7746 91.7097 43.9587 90.7248 44.3506 90.3801H44.3506ZM42.178 91.6984C41.6783 91.9007 41.1544 92.3225 40.6052 93.0293C40.0393 93.7576 40.1347 94.4584 40.1354 94.5952C40.1367 94.8428 40.4434 95.0285 40.6209 94.6244C40.9568 93.8595 42.3242 92.9789 42.6368 92.7714C42.9523 92.562 42.5529 91.5466 42.178 91.6983V91.6984Z" fill="#4A2004"/>
<path d="M51.4076 98.9784C50.5479 99.4573 50.0951 99.9312 49.8398 100.175C49.6444 100.361 49.1891 100.146 49.1677 99.6694C49.1443 99.1494 49.4982 98.3309 50.3496 98.1744C51.1171 98.0333 51.8376 98.739 51.4076 98.9785L51.4076 98.9784Z" fill="white"/>
<path d="M56.6093 93.0824C56.5153 93.0825 56.4242 93.0491 56.3524 92.9881C55.3276 92.121 55.3871 90.9433 55.7567 90.384C55.7853 90.3396 55.8224 90.3013 55.8659 90.2713C55.9094 90.2414 55.9584 90.2204 56.01 90.2096C56.0616 90.1988 56.1149 90.1984 56.1667 90.2083C56.2185 90.2183 56.2678 90.2385 56.3117 90.2677C56.3557 90.297 56.3934 90.3346 56.4228 90.3786C56.4521 90.4226 56.4725 90.4719 56.4827 90.5238C56.4928 90.5757 56.4927 90.6291 56.4821 90.681C56.4716 90.7328 56.4509 90.782 56.4213 90.8258C56.2654 91.0617 56.1611 91.7799 56.8666 92.3768C56.9291 92.4297 56.9738 92.5005 56.9948 92.5798C57.0158 92.659 57.012 92.7428 56.984 92.8198C56.9559 92.8968 56.9049 92.9633 56.8379 93.0103C56.7709 93.0572 56.6911 93.0824 56.6093 93.0824ZM52.0825 102.318C51.9929 102.318 51.906 102.288 51.8356 102.232C51.7652 102.177 51.7156 102.099 51.6946 102.012C51.6737 101.924 51.6827 101.832 51.7202 101.751C51.7576 101.669 51.8214 101.603 51.9012 101.562C52.2521 101.382 53.7485 99.8275 54.2101 99.0467C54.2368 99.0015 54.2721 98.9621 54.314 98.9306C54.3559 98.8991 54.4036 98.8762 54.4543 98.8632C54.5051 98.8502 54.5579 98.8473 54.6097 98.8548C54.6615 98.8622 54.7114 98.8799 54.7564 98.9066C54.8014 98.9334 54.8408 98.9688 54.8722 99.0109C54.9035 99.0529 54.9264 99.1007 54.9393 99.1516C54.9523 99.2025 54.9551 99.2554 54.9477 99.3074C54.9403 99.3594 54.9227 99.4094 54.896 99.4546C54.4441 100.219 52.8474 101.976 52.2633 102.274C52.2074 102.303 52.1454 102.318 52.0826 102.318L52.0825 102.318Z" fill="#EB866D"/>
<path d="M56.0244 92.1784C55.963 92.1785 55.9024 92.1643 55.8473 92.137C55.7922 92.1096 55.7442 92.0699 55.707 92.0209C55.6698 91.9719 55.6443 91.9149 55.6327 91.8544C55.621 91.7939 55.6235 91.7315 55.6398 91.6721C55.8273 90.9904 56.6585 90.7407 57.3457 90.8514C57.4501 90.8683 57.5435 90.926 57.6055 91.012C57.6674 91.0979 57.6928 91.205 57.676 91.3098C57.6592 91.4145 57.6016 91.5082 57.5159 91.5703C57.4302 91.6324 57.3234 91.6579 57.219 91.641C56.8183 91.5762 56.4542 91.7189 56.4086 91.8848C56.3854 91.9691 56.3352 92.0435 56.2659 92.0965C56.1965 92.1496 56.1116 92.1783 56.0244 92.1784ZM45.2833 98.0434C45.2256 98.0435 45.1685 98.0309 45.1161 98.0067C45.0637 97.9824 45.0171 97.947 44.9797 97.9028C44.581 97.4335 44.5557 96.8465 44.9152 96.4075C45.2573 95.9898 45.972 95.7351 46.7332 96.1625C46.779 96.1881 46.8194 96.2224 46.852 96.2637C46.8847 96.3049 46.9088 96.3522 46.9232 96.4029C46.9375 96.4535 46.9417 96.5065 46.9356 96.5587C46.9295 96.611 46.9131 96.6616 46.8875 96.7075C46.8619 96.7534 46.8274 96.7938 46.7862 96.8264C46.7449 96.8589 46.6977 96.883 46.6472 96.8972C46.5966 96.9114 46.5438 96.9154 46.4917 96.9091C46.4396 96.9028 46.3893 96.8862 46.3436 96.8603C45.9986 96.6666 45.6738 96.7412 45.5312 96.9152C45.392 97.0851 45.4845 97.264 45.5865 97.3841C45.6359 97.4422 45.6676 97.5133 45.678 97.589C45.6884 97.6646 45.6769 97.7417 45.6451 97.811C45.6132 97.8803 45.5621 97.9391 45.498 97.9802C45.4339 98.0214 45.3595 98.0433 45.2833 98.0434Z" fill="#EB866D"/>
<path d="M67.2227 99.108C69.7226 98.6704 72.8286 98.1104 75.2365 99.5403C77.0969 100.645 84.4291 105.352 84.4291 105.352C84.4291 105.352 86.5922 105.329 87.1904 106.825C87.7887 108.32 87.0003 109.342 87.0003 109.342C87.0003 109.342 84.7209 109.346 82.4568 111.632C80.0092 114.103 78.7224 116.429 78.2372 118.27C77.7865 119.98 78.2515 120.705 78.2515 120.705C78.2515 120.705 73.4364 116.276 72.8066 115.74C72.1769 115.205 64.015 99.6697 67.2227 99.1081V99.108Z" fill="#FFAD00"/>
<path d="M17.1738 127.103L18.0665 125.453L29.8587 131.871C30.3127 132.118 30.4813 132.689 30.2349 133.144C29.9886 133.599 29.42 133.768 28.966 133.521L17.1738 127.103Z" fill="#E21F24"/>
<path d="M13.78 118.11C17.8896 120.347 20.1334 124.171 18.791 126.653C18.6325 126.946 18.4288 127.211 18.1874 127.44C18.6412 125.008 16.4686 121.805 12.8475 119.834C9.22705 117.864 5.3647 117.782 3.58008 119.49C3.63974 119.162 3.75072 118.846 3.9089 118.553C5.25124 116.072 9.67093 115.874 13.7799 118.11H13.78Z" fill="#E21F24"/>
<path d="M18.2411 126.973C18.2334 127.131 18.2152 127.287 18.1866 127.441C16.4012 129.149 12.5396 129.068 8.91845 127.097C5.29802 125.127 3.12485 121.923 3.57926 119.492C3.8608 119.223 4.19266 118.998 4.56757 118.818C4.44725 121.181 6.56891 124.11 9.96162 125.957C13.0123 127.617 16.2345 127.936 18.2411 126.973Z" fill="#C7000E"/>
<path d="M12.8465 119.835C16.2398 121.682 18.3605 124.611 18.2409 126.973C16.2343 127.936 13.0121 127.617 9.96142 125.956C6.5687 124.11 4.44704 121.18 4.56736 118.818C6.57468 117.856 9.79645 118.175 12.8465 119.835Z" fill="#5AC4FF"/>
<path d="M9.36794 124.786C9.30622 124.786 9.24355 124.771 9.18494 124.741C7.65507 123.946 5.73259 121.678 5.44475 120.327C5.42494 120.225 5.44611 120.118 5.50372 120.031C5.56133 119.943 5.65079 119.882 5.75288 119.86C5.85496 119.839 5.96154 119.858 6.04972 119.914C6.13789 119.97 6.20064 120.058 6.22447 120.16C6.4644 121.286 8.23674 123.348 9.55149 124.031C9.63087 124.072 9.69416 124.139 9.73118 124.22C9.7682 124.302 9.77681 124.393 9.75563 124.481C9.73445 124.568 9.6847 124.645 9.61438 124.7C9.54406 124.756 9.45724 124.786 9.36786 124.786L9.36794 124.786Z" fill="white"/>
<path d="M32.4944 128.08C32.4944 128.08 31.8042 126.291 30.4574 125.757C29.1107 125.223 25.7062 124.246 25.398 124.295C25.0897 124.343 23.7148 124.646 22.263 124.652C21.01 124.658 19.022 124.597 18.6697 124.647C17.9206 124.754 17.8188 126.448 19.0128 126.842C19.9089 127.138 21.3919 127.487 22.2176 127.516C23.0432 127.545 24.3718 127.435 24.3718 127.435C24.3718 127.435 27.163 130.221 29.7394 130.256C31.1405 130.274 32.4944 128.08 32.4944 128.08ZM17.8241 131.4C18.0997 131.125 20.662 129.289 21.3034 128.953C22.802 128.168 23.5335 129.616 23.1832 130.142C22.4916 131.179 20.1777 132.931 19.2205 133.441C18.181 133.994 17.0938 132.128 17.8242 131.4L17.8241 131.4Z" fill="#F5C2B6"/>
<path d="M19.9568 132.689C20.2323 132.414 22.9663 130.426 23.6077 130.09C25.1063 129.305 25.8437 130.749 25.4932 131.275C24.8016 132.313 22.7352 133.791 21.9802 134.27C20.6457 135.117 19.2262 133.417 19.9567 132.689H19.9568Z" fill="#F5C2B6"/>
<path d="M22.1805 133.452C22.4561 133.177 24.9916 131.565 25.633 131.229C27.1315 130.444 27.7582 131.816 27.4078 132.342C26.7162 133.38 24.5024 134.847 23.7543 135.337C22.6512 136.06 21.45 134.18 22.1805 133.452Z" fill="#F5C2B6"/>
<path d="M77.9392 120.919C77.8339 120.919 77.7328 120.877 77.6582 120.802L72.5083 115.67C72.4333 115.595 72.391 115.494 72.3906 115.388C72.3903 115.281 72.432 115.18 72.5065 115.104C72.581 115.029 72.6823 114.987 72.7881 114.986C72.8938 114.986 72.9953 115.028 73.0703 115.103L78.2203 120.235C78.2763 120.291 78.3145 120.362 78.3301 120.44C78.3457 120.518 78.3379 120.598 78.3078 120.671C78.2777 120.745 78.2266 120.807 78.161 120.851C78.0954 120.895 78.0182 120.919 77.9392 120.919Z" fill="#0F0F0F"/>
<path d="M23.8657 134.357C24.1413 134.082 26.7604 132.483 27.4017 132.147C28.9003 131.362 29.6141 132.964 29.1561 133.399C28.2761 134.234 26.7053 135.398 25.9071 135.916C24.5211 136.814 23.1353 135.086 23.8657 134.357Z" fill="#F5C2B6"/>
<path d="M27.0354 135.526C26.9537 135.526 26.8738 135.501 26.8068 135.454C26.7398 135.407 26.6888 135.341 26.6607 135.264C26.6327 135.187 26.6289 135.103 26.65 135.023C26.671 134.944 26.7159 134.873 26.7785 134.821L28.9964 132.948C29.0364 132.914 29.0828 132.888 29.1328 132.871C29.1828 132.855 29.2356 132.849 29.288 132.854C29.3403 132.858 29.3914 132.873 29.4381 132.897C29.4848 132.921 29.5262 132.954 29.5601 132.995C29.5939 133.035 29.6195 133.082 29.6353 133.132C29.6511 133.182 29.6569 133.235 29.6522 133.288C29.6475 133.34 29.6326 133.391 29.6081 133.438C29.5837 133.484 29.5504 133.526 29.5099 133.56L27.2919 135.432C27.2202 135.493 27.1293 135.526 27.0354 135.526H27.0354ZM23.7307 135.602C23.652 135.602 23.5752 135.579 23.5097 135.535C23.4443 135.491 23.3932 135.429 23.3628 135.356C23.3325 135.283 23.3244 135.203 23.3393 135.126C23.3543 135.048 23.3918 134.977 23.4471 134.921C23.4803 134.887 24.2681 134.089 24.8048 133.612C25.29 133.181 27.2171 131.817 27.2989 131.759C27.3853 131.698 27.4924 131.673 27.5965 131.691C27.7007 131.709 27.7935 131.768 27.8545 131.855C27.9154 131.942 27.9396 132.049 27.9216 132.153C27.9036 132.258 27.845 132.351 27.7586 132.412C27.7389 132.426 25.7859 133.809 25.3333 134.211C24.8167 134.67 24.0221 135.475 24.0142 135.483C23.9772 135.521 23.933 135.551 23.8843 135.571C23.8357 135.592 23.7834 135.602 23.7307 135.602Z" fill="#EB866D"/>
<path d="M62.6456 162.053C62.6456 162.053 65.4595 168.874 65.5179 172.493C65.5762 176.112 59.2702 178.613 59.2702 178.613C59.2702 178.613 51.5525 181.902 48.9106 182.685C46.2688 183.468 41.2551 182.895 40.2663 182.454C39.2774 182.013 34.6699 177.019 34.6699 177.019C34.6699 177.019 36.1929 171.916 44.1175 170.257C46.9772 168.028 47.9809 165.461 47.9809 165.461L62.6457 162.053L62.6456 162.053Z" fill="#383838"/>
<path d="M49.0564 171.409C48.968 171.409 48.8822 171.379 48.8124 171.325C48.4435 171.038 46.2185 169.995 44.679 170.246C44.575 170.262 44.4687 170.237 44.3834 170.175C44.2982 170.113 44.2408 170.019 44.2239 169.915C44.207 169.811 44.2319 169.704 44.2932 169.618C44.3545 169.532 44.4471 169.474 44.551 169.457C46.4825 169.141 48.9234 170.399 49.3008 170.693C49.3666 170.744 49.4147 170.814 49.4386 170.894C49.4624 170.974 49.4607 171.06 49.4338 171.139C49.4068 171.217 49.3559 171.286 49.2882 171.334C49.2205 171.383 49.1394 171.409 49.0563 171.409H49.0564Z" fill="#B7B7B7"/>
<path d="M22.3005 134.281C22.3072 134.27 22.3095 134.265 22.3095 134.265L21.6064 133.888C21.6521 133.802 21.8732 133.467 22.8002 132.755C23.7256 132.044 25.2477 130.96 25.2629 130.95C25.3492 130.889 25.4557 130.865 25.5593 130.884C25.663 130.902 25.7553 130.96 25.8161 131.046C25.877 131.132 25.9015 131.239 25.8843 131.343C25.8671 131.447 25.8096 131.54 25.7243 131.602C25.7092 131.613 24.1989 132.688 23.2849 133.39C22.4811 134.008 22.3076 134.27 22.3006 134.281L22.3005 134.281ZM19.7609 133.517C19.6941 133.517 19.6283 133.5 19.5697 133.468C19.5111 133.435 19.4614 133.389 19.4254 133.332C19.3894 133.276 19.368 133.211 19.3634 133.145C19.3588 133.078 19.371 133.011 19.3989 132.95C19.6003 132.51 20.1309 132.005 21.1728 131.261C21.9495 130.707 22.7274 130.105 22.7352 130.099C22.8188 130.034 22.9248 130.005 23.0296 130.019C23.1345 130.032 23.2298 130.087 23.2944 130.171C23.359 130.255 23.3878 130.361 23.3743 130.466C23.3608 130.571 23.3063 130.667 23.2226 130.732C23.2147 130.738 22.4246 131.349 21.6354 131.913C21.3105 132.145 20.3221 132.851 20.1235 133.284C20.0917 133.353 20.0406 133.412 19.9763 133.454C19.9121 133.495 19.8374 133.517 19.7611 133.517H19.7609ZM19.0378 130.879C18.9528 130.879 18.87 130.852 18.8015 130.801C18.733 130.751 18.6823 130.68 18.6569 130.598C18.6315 130.517 18.6327 130.43 18.6603 130.349C18.6879 130.268 18.7404 130.199 18.8103 130.15L20.3934 129.049C20.4803 128.989 20.5875 128.965 20.6916 128.984C20.7956 129.003 20.8879 129.063 20.9482 129.15C21.0084 129.237 21.0317 129.345 21.0128 129.449C20.994 129.553 20.9346 129.646 20.8477 129.706L19.2646 130.807C19.1981 130.854 19.1189 130.879 19.0379 130.879L19.0378 130.879ZM26.1144 129.642C26.0479 129.642 25.9824 129.626 25.9241 129.594C25.8793 129.569 24.893 129.02 24.1824 127.899C23.2284 128.063 21.4004 127.818 20.999 127.761C20.8944 127.746 20.7999 127.69 20.7365 127.605C20.673 127.52 20.6458 127.413 20.6607 127.308C20.6681 127.256 20.6856 127.206 20.7123 127.161C20.739 127.116 20.7742 127.076 20.8161 127.045C20.858 127.013 20.9056 126.99 20.9564 126.977C21.0071 126.964 21.0599 126.961 21.1117 126.969C22.1599 127.119 23.8136 127.25 24.2083 127.071C24.2999 127.03 24.4036 127.025 24.4988 127.057C24.594 127.089 24.6737 127.155 24.7218 127.244C25.3175 128.335 26.297 128.887 26.3068 128.892C26.3993 128.943 26.4677 129.029 26.4972 129.131C26.5266 129.232 26.5147 129.342 26.464 129.435C26.4296 129.498 26.379 129.55 26.3175 129.587C26.256 129.623 26.1858 129.642 26.1143 129.642L26.1144 129.642Z" fill="#EB866D"/>
<path d="M75.2927 137.195C75.2927 137.195 67.1627 130.811 60.4754 127.512C56.3178 125.461 47.2991 119.372 40.8867 122.057C34.6693 124.661 33.8296 131.404 34.6693 138.494C35.6117 146.45 38.0208 167.21 38.9158 168.036C40.0356 169.069 48.6192 171.009 53.0642 170.241C58.8945 169.234 61.6964 165.629 62.8727 164.252C63.8274 163.134 64.1403 159.988 64.1403 159.988L75.2928 137.195H75.2927Z" fill="#005C94"/>
<path d="M64.9457 170.781C65.3567 170.873 65.8926 171.821 66.474 173.994C67.0555 176.166 66.802 178.086 66.5697 178.532C66.3375 178.978 66.7467 180.131 63.769 180.78C60.7913 181.428 58.5124 181.862 58.1571 181.854C57.8018 181.847 57.2068 180.979 56.4884 180.871C55.77 180.762 54.48 182.087 54.341 182.436C54.2021 182.785 52.8812 183.513 51.2512 183.893C48.8677 184.449 46.2587 185.262 41.693 184.465C37.1274 183.667 36.1091 182.359 35.3905 180.678C34.6718 178.997 34.0218 176.753 35.1721 176.547C36.3224 176.341 38.2336 177.774 39.0527 179.316C39.8718 180.858 40.1738 181.744 41.1626 181.961C42.1515 182.178 44.7329 182.879 47.1926 182.355C50.7798 181.592 53.5683 180.104 54.8505 179.135C57.2471 177.324 62.3964 170.208 64.9458 170.781L64.9457 170.781Z" fill="#1C1C1C"/>
<path d="M81.2584 119.891C81.1731 119.891 81.0899 119.863 81.0213 119.812C80.9526 119.762 80.902 119.69 80.8769 119.608C80.8519 119.526 80.8537 119.439 80.8821 119.358C80.9104 119.277 80.9639 119.208 81.0346 119.16L82.5959 118.1C82.6835 118.042 82.7904 118.02 82.8935 118.041C82.9966 118.061 83.0875 118.122 83.1464 118.209C83.2053 118.296 83.2274 118.403 83.2081 118.507C83.1887 118.61 83.1293 118.702 83.0428 118.762L81.4815 119.822C81.4157 119.867 81.338 119.891 81.2584 119.891Z" fill="#EB866D"/>
<path d="M43.3574 118.723C41.9124 118.723 40.3836 118.045 40.3109 118.013C40.263 117.991 40.2198 117.961 40.1837 117.923C40.1476 117.884 40.1194 117.839 40.1006 117.79C40.0818 117.741 40.0729 117.689 40.0744 117.636C40.0758 117.584 40.0876 117.532 40.109 117.484C40.1304 117.436 40.161 117.393 40.1992 117.357C40.2373 117.32 40.2821 117.292 40.3311 117.274C40.3801 117.255 40.4324 117.246 40.4848 117.248C40.5372 117.249 40.5888 117.261 40.6366 117.283C40.6654 117.295 42.4607 118.087 43.806 117.893C43.8579 117.886 43.9106 117.889 43.9614 117.902C44.0121 117.915 44.0598 117.937 44.1017 117.969C44.1436 118 44.1789 118.04 44.2056 118.085C44.2323 118.13 44.2499 118.18 44.2573 118.232C44.2648 118.284 44.2619 118.337 44.249 118.388C44.236 118.439 44.2132 118.487 44.1818 118.529C44.1504 118.571 44.1111 118.606 44.066 118.633C44.021 118.66 43.9712 118.677 43.9193 118.685C43.7359 118.711 43.5472 118.723 43.3574 118.723L43.3574 118.723ZM81.5288 106.932C81.4612 106.932 81.3947 106.915 81.3356 106.882C81.2764 106.849 81.2266 106.802 81.1908 106.744C81.155 106.687 81.1344 106.621 81.1309 106.553C81.1274 106.486 81.1411 106.418 81.1708 106.357C81.5944 105.487 83.7211 105.066 84.3629 104.958C84.4666 104.942 84.5725 104.967 84.6577 105.029C84.7429 105.09 84.8004 105.183 84.8179 105.287C84.8353 105.391 84.8111 105.497 84.7507 105.583C84.6903 105.669 84.5984 105.728 84.4951 105.747C83.369 105.937 82.0525 106.369 81.8874 106.708C81.8546 106.775 81.8036 106.832 81.7402 106.872C81.6768 106.911 81.6035 106.932 81.5288 106.932L81.5288 106.932Z" fill="#0F0F0F"/>
<path d="M63.8042 162.918C63.7481 162.919 63.6925 162.907 63.6412 162.884C63.5899 162.861 63.5441 162.827 63.5066 162.785C63.4692 162.743 63.441 162.694 63.4239 162.64C63.4069 162.586 63.4013 162.53 63.4076 162.474C63.5193 161.482 62.1541 158.497 60.3707 157.511C60.3214 157.484 60.2784 157.447 60.2446 157.402C60.2107 157.357 60.1868 157.305 60.1743 157.25C60.1618 157.195 60.1611 157.138 60.1722 157.082C60.1833 157.027 60.206 156.975 60.2387 156.929C60.7521 156.208 60.5818 155.521 60.4784 155.427C60.1706 155.166 58.6404 153.678 58.5754 153.615C58.5212 153.562 58.4831 153.495 58.4654 153.421C58.4344 153.293 55.3193 140.486 51.4573 135.368C51.3948 135.284 51.368 135.178 51.3829 135.074C51.3979 134.969 51.4532 134.875 51.537 134.812C51.6207 134.748 51.7261 134.72 51.8302 134.734C51.9344 134.748 52.0288 134.802 52.093 134.886C55.9037 139.935 58.8769 151.75 59.2129 153.121C59.7011 153.595 60.7686 154.626 60.9936 154.817C61.4415 155.197 61.5592 156.141 61.1082 157.029C62.9815 158.317 64.3447 161.278 64.2 162.563C64.189 162.661 64.1426 162.751 64.0696 162.817C63.9967 162.882 63.9022 162.918 63.8043 162.918H63.8042Z" fill="#04202C"/>
<path d="M48.8394 94.7902C49.6441 94.436 49.9372 93.3277 49.494 92.3148C49.0508 91.302 48.0392 90.768 47.2345 91.1223C46.4297 91.4765 46.1366 92.5848 46.5798 93.5977C47.023 94.6105 48.0346 95.1445 48.8394 94.7902Z" fill="white"/>
<path d="M48.2252 94.694C48.6988 94.4856 48.8269 93.7317 48.5112 93.0103C48.1956 92.2889 47.5558 91.873 47.0821 92.0815C46.6085 92.29 46.4805 93.0438 46.7962 93.7652C47.1118 94.4867 47.7516 94.9025 48.2252 94.694Z" fill="#2A2A2A"/>
<path d="M43.5736 97.8969C43.0793 98.1148 42.5068 97.9966 42.0361 97.6388C42.0235 97.6056 42.0102 97.5726 41.9968 97.5388C41.9906 97.523 41.9843 97.5065 41.978 97.4899C42.2844 96.9934 42.3041 96.2565 41.3637 95.943C41.328 95.8549 41.2932 95.7667 41.2576 95.6778C41.2352 95.6219 41.2138 95.5667 41.1914 95.51C41.1736 95.466 41.1565 95.4218 41.1387 95.377C41.2301 94.8576 41.52 94.4258 41.9689 94.2283C42.7736 93.8748 43.7857 94.4081 44.2282 95.4212C44.6716 96.4342 44.3783 97.5425 43.5736 97.8968V97.8969Z" fill="white"/>
<path d="M42.9587 97.7996C42.6633 97.9298 42.3026 97.8163 41.9964 97.5379C41.9902 97.5221 41.9839 97.5056 41.9776 97.489C41.7818 96.9922 41.5766 96.4774 41.3633 95.9421C41.3954 95.5877 41.5519 95.3033 41.8159 95.1865C42.2891 94.9783 42.9291 95.3939 43.2445 96.1153C43.5606 96.8368 43.4327 97.5906 42.9587 97.7996Z" fill="#2A2A2A"/>
<path d="M37.5098 161.911C37.4126 161.911 37.3189 161.875 37.2461 161.811C37.1734 161.746 37.1266 161.657 37.1146 161.56L34.4796 140.291C34.4666 140.185 34.4957 140.079 34.5607 139.996C34.6257 139.912 34.7212 139.858 34.8261 139.844C34.931 139.831 35.0368 139.861 35.1203 139.926C35.2037 139.991 35.2579 140.087 35.2709 140.192L37.9059 161.462C37.9129 161.518 37.9078 161.575 37.8911 161.629C37.8744 161.684 37.8464 161.734 37.8089 161.776C37.7714 161.819 37.7254 161.853 37.6738 161.876C37.6222 161.899 37.5663 161.911 37.5098 161.911ZM75.2935 137.596C75.2335 137.596 75.1743 137.582 75.1203 137.556C75.0663 137.53 75.0188 137.492 74.9815 137.445C74.3759 136.683 72.2417 135.309 71.4704 134.844C71.4255 134.817 71.3864 134.781 71.3552 134.739C71.3241 134.697 71.3016 134.649 71.2889 134.598C71.2763 134.547 71.2737 134.494 71.2815 134.442C71.2892 134.39 71.3071 134.34 71.3341 134.295C71.361 134.25 71.3966 134.211 71.4387 134.18C71.4808 134.149 71.5286 134.126 71.5794 134.113C71.6302 134.101 71.683 134.098 71.7348 134.106C71.7866 134.114 71.8363 134.132 71.8812 134.159C71.9994 134.23 74.7866 135.917 75.6049 136.947C75.6517 137.006 75.6809 137.076 75.6893 137.151C75.6977 137.226 75.6849 137.302 75.6524 137.369C75.6199 137.437 75.5689 137.494 75.5054 137.534C75.442 137.574 75.3685 137.596 75.2935 137.596ZM73.3834 156.586H73.3751C73.1745 156.582 68.416 156.471 64.4181 155.276C61.3284 154.352 58.2942 152.027 58.1666 151.928C58.0839 151.863 58.0301 151.768 58.0171 151.663C58.004 151.559 58.0326 151.453 58.0967 151.37C58.1608 151.286 58.2551 151.231 58.3593 151.217C58.4634 151.203 58.5689 151.231 58.6528 151.294C58.6829 151.318 61.6999 153.629 64.6458 154.51C68.5381 155.673 73.3433 155.785 73.3913 155.786C73.4964 155.788 73.5963 155.832 73.6695 155.908C73.7426 155.983 73.7831 156.085 73.782 156.19C73.781 156.296 73.7385 156.396 73.6638 156.47C73.5892 156.545 73.4883 156.586 73.3833 156.586L73.3834 156.586Z" fill="#04202C"/>
<path d="M72.7754 162.349C72.6999 162.349 72.626 162.327 72.5623 162.287C72.4985 162.246 72.4476 162.189 72.4153 162.12C72.383 162.052 72.3707 161.976 72.3799 161.901C72.389 161.825 72.4193 161.754 72.467 161.696C73.1282 160.885 74.558 160.518 75.5892 160.894C75.6387 160.912 75.6842 160.939 75.7231 160.974C75.7621 161.01 75.7936 161.053 75.816 161.1C75.8384 161.148 75.8511 161.2 75.8535 161.252C75.8559 161.305 75.8479 161.358 75.83 161.407C75.8121 161.457 75.7845 161.502 75.749 161.541C75.7135 161.58 75.6706 161.611 75.6229 161.633C75.5753 161.656 75.5237 161.668 75.4712 161.67C75.4187 161.672 75.3663 161.664 75.317 161.646C74.6122 161.389 73.5271 161.659 73.0841 162.202C73.0467 162.248 72.9996 162.285 72.9462 162.311C72.8928 162.336 72.8344 162.349 72.7753 162.349L72.7754 162.349ZM46.8365 172.535C46.7384 172.535 46.6437 172.499 46.5708 172.433C46.0951 172.006 43.7633 171.408 42.0028 171.532C41.9505 171.536 41.8981 171.529 41.8484 171.513C41.7988 171.496 41.7529 171.47 41.7134 171.435C41.6738 171.401 41.6415 171.359 41.6181 171.312C41.5947 171.265 41.5808 171.214 41.5771 171.161C41.5735 171.109 41.5801 171.057 41.5967 171.007C41.6133 170.957 41.6396 170.911 41.6739 170.871C41.7082 170.832 41.75 170.799 41.7969 170.776C41.8437 170.752 41.8947 170.738 41.947 170.735C43.7167 170.61 46.3667 171.177 47.1024 171.837C47.1626 171.891 47.205 171.962 47.224 172.041C47.2431 172.119 47.2378 172.202 47.209 172.278C47.1802 172.353 47.1291 172.418 47.0626 172.464C46.996 172.51 46.9172 172.535 46.8365 172.535Z" fill="#B7B7B7"/>
<path d="M73.4562 134.188C72.7881 134.896 70.0527 135.679 68.7111 135.48C67.2045 135.258 64.4332 133.935 63.0861 132.768C62.6138 132.359 64.4332 124.615 64.4332 124.615L69.7875 127.214L72.0094 125.714L73.4562 134.188Z" fill="#F5C2B6"/>
<path d="M67.199 125.956C67.199 125.956 62.8777 123.412 61.8636 123.412C60.7262 123.412 57.9261 125.193 57.4653 125.534C56.736 126.075 57.4653 127.535 58.3913 127.218C59.3172 126.9 61.3675 125.917 61.3675 125.917L66.0303 127.884L67.199 125.956Z" fill="#F5C2B6"/>
<path d="M66.5923 127.115L61.5327 124.99C61.5327 124.99 57.6524 126.594 57.2336 126.734C56.2416 127.067 56.7045 128.859 57.8289 128.447C58.9532 128.035 61.5988 127.464 61.5988 127.464L65.501 129.145L66.5923 127.115Z" fill="#F5C2B6"/>
<path d="M66.0969 128.795L61.5333 127.066C61.5333 127.066 57.598 128.287 57.0357 128.541C56.4735 128.795 56.6899 130.349 57.7963 130.098C58.8199 129.866 61.4617 129.556 61.4617 129.556L64.5756 131.12L66.0968 128.795L66.0969 128.795Z" fill="#F5C2B6"/>
<path d="M64.8756 130.745L61.4158 129.334C61.4158 129.334 57.9947 130.888 57.4982 131.11C57.0018 131.332 57.2333 132.682 58.0932 132.514C58.953 132.347 61.2017 131.681 61.2017 131.681L64.0882 133.392L64.8756 130.745Z" fill="#F5C2B6"/>
<path d="M65.1701 129.099C65.1141 129.099 65.0586 129.087 65.0075 129.064L61.5096 127.494L57.3632 128.838C57.3133 128.855 57.2607 128.861 57.2083 128.857C57.1559 128.853 57.1048 128.839 57.058 128.815C57.0111 128.791 56.9695 128.758 56.9353 128.718C56.9012 128.678 56.8753 128.631 56.8592 128.581C56.843 128.531 56.8369 128.478 56.8412 128.426C56.8454 128.373 56.86 128.322 56.8841 128.275C56.9081 128.228 56.9412 128.187 56.9813 128.153C57.0214 128.119 57.0679 128.093 57.118 128.077L61.4101 126.685C61.5039 126.655 61.6056 126.661 61.6956 126.701L65.3333 128.334C65.4166 128.372 65.4846 128.436 65.5259 128.518C65.5673 128.6 65.5794 128.693 65.5603 128.783C65.5412 128.872 65.4921 128.953 65.4211 129.01C65.3501 129.068 65.2615 129.099 65.1702 129.099L65.1701 129.099Z" fill="#EB866D"/>
<path d="M65.8371 127.195C65.7813 127.195 65.7261 127.184 65.6752 127.161L61.9525 125.499C61.8972 125.474 61.8377 125.46 61.7772 125.459C61.7167 125.457 61.6564 125.467 61.6 125.489L57.8846 126.911C57.7858 126.949 57.676 126.945 57.5795 126.902C57.483 126.859 57.4076 126.779 57.3699 126.68C57.3322 126.581 57.3353 126.471 57.3785 126.374C57.4217 126.277 57.5015 126.201 57.6003 126.164L61.3157 124.742C61.4697 124.682 61.6339 124.654 61.7988 124.659C61.9637 124.663 62.1261 124.7 62.2767 124.768L65.9994 126.43C66.0829 126.467 66.1511 126.532 66.1927 126.614C66.2342 126.696 66.2464 126.789 66.2274 126.879C66.2084 126.968 66.1592 127.049 66.0882 127.107C66.0171 127.164 65.9285 127.195 65.8371 127.195ZM64.2842 131.085C64.2257 131.085 64.1678 131.072 64.1149 131.047L61.4141 129.773L60.8938 130.009C60.8461 130.031 60.7946 130.043 60.7422 130.045C60.6898 130.047 60.6375 130.038 60.5884 130.02C60.5394 130.001 60.4944 129.973 60.4561 129.937C60.4178 129.902 60.387 129.858 60.3654 129.81C60.3438 129.763 60.3318 129.711 60.3301 129.658C60.3284 129.606 60.3371 129.553 60.3557 129.504C60.3742 129.455 60.4022 129.41 60.4382 129.372C60.4741 129.333 60.5172 129.302 60.565 129.281L61.2529 128.969C61.3054 128.945 61.3625 128.933 61.4201 128.933C61.4778 128.933 61.5347 128.946 61.5869 128.971L64.4541 130.323C64.5362 130.362 64.6027 130.428 64.6426 130.509C64.6825 130.591 64.6935 130.684 64.6737 130.773C64.6539 130.861 64.6045 130.941 64.5337 130.998C64.4629 131.054 64.3749 131.085 64.2842 131.085Z" fill="#EB866D"/>
<path d="M58.8825 96.6891C58.8253 96.6891 58.7688 96.6769 58.7168 96.6531C58.6647 96.6293 58.6184 96.5946 58.5809 96.5513C58.5434 96.508 58.5157 96.4571 58.4995 96.4021C58.4834 96.3471 58.4792 96.2893 58.4873 96.2325C58.5242 95.9746 58.624 95.0468 58.363 93.9385C58.3505 93.8872 58.3482 93.8339 58.3563 93.7817C58.3644 93.7296 58.3827 93.6795 58.4102 93.6345C58.4377 93.5895 58.4738 93.5503 58.5164 93.5194C58.5591 93.4884 58.6074 93.4662 58.6586 93.4541C58.7099 93.4419 58.763 93.4401 58.8149 93.4487C58.8669 93.4572 58.9166 93.476 58.9613 93.504C59.0059 93.5319 59.0446 93.5685 59.0751 93.6115C59.1056 93.6545 59.1274 93.7032 59.139 93.7547C59.4241 94.9657 59.3302 95.9702 59.2766 96.3458C59.263 96.441 59.2157 96.5281 59.1433 96.5911C59.071 96.6541 58.9784 96.6889 58.8825 96.6891Z" fill="#4A2004"/>
</g>
</g>
<defs>
<clipPath id="clip0_6725_85383">
<rect width="175.543" height="192" fill="white" transform="translate(0.228516)"/>
</clipPath>
<clipPath id="clip1_6725_85383">
<rect width="97.4263" height="172.56" fill="white" transform="translate(59.0156)"/>
</clipPath>
<clipPath id="clip2_6725_85383">
<rect width="91.2025" height="105.92" fill="white" transform="translate(3.51953 78.8789)"/>
</clipPath>
</defs>
</svg>
