<svg width="328" height="256" viewBox="0 0 328 256" fill="none" xmlns="http://www.w3.org/2000/svg">
<g clip-path="url(#clip0_6725_71491)">
<path d="M161.319 174.169C159.619 174.42 157.914 174.63 156.204 174.799C186.97 178.247 211.209 168.247 215.597 146.978C203.506 160.5 184.137 170.796 161.319 174.169ZM114.275 76.3359C99.3043 77.4006 89.4773 83.0024 84.9689 95.5459C83.6978 99.0827 82.8364 102.766 82.4004 106.524C88.3305 94.4849 99.6008 83.799 114.275 76.3359Z" fill="#FFDD80"/>
<path d="M160.567 167.262C196.98 161.882 223.377 136.397 219.525 110.339C215.674 84.2822 183.033 67.5203 146.62 72.9006C110.206 78.281 83.8097 103.766 87.6611 129.823C91.5125 155.881 124.153 172.642 160.567 167.262Z" fill="#FFDD80"/>
</g>
<g clip-path="url(#clip1_6725_71491)">
<path d="M168.788 82.5802C173.929 82.4913 182.643 81.6563 189.328 97.9982C196.013 114.34 210.39 145.144 195.708 152.342C182.954 158.595 179.29 143.305 177.292 137.839C175.242 132.232 169.496 110.284 168.899 105.752C166.978 97.616 167.841 87.7397 168.788 82.5802Z" fill="#14A1DC"/>
<path d="M135.826 86.5134C135.826 86.5134 123.823 89.5611 121.462 90.7408C119.101 91.9206 122.738 160.234 128.644 163.101C139.968 168.598 180.305 161.457 185.022 156.121C188.252 152.468 175.774 109.323 174.494 103.424C173.215 97.5246 172.428 82.1874 168.788 82.5807C165.147 82.9739 153.696 83.8866 153.696 83.8866L135.826 86.5134Z" fill="#14A1DC"/>
<path d="M148.742 92.4972C143.856 93.4664 136.77 91.2613 135.8 86.3791L132.909 71.824C131.939 66.9417 135.113 62.1982 139.999 61.2289C144.885 60.2597 149.632 63.4319 150.602 68.3141L153.494 82.8692C154.464 87.7514 153.188 90.0338 148.742 92.4972Z" fill="#F4BBAB"/>
<path d="M148.741 92.497L149.611 85.0308C152.537 83.7477 153.489 83.3494 153.27 81.7429L155.857 83.7116C154.724 87.6418 152.485 90.892 148.741 92.497ZM148.741 92.497L145.647 85.9137C141.405 85.1375 137.473 85.1379 134.573 81.4766L132.509 87.378C137.774 91.718 142.885 94.1536 148.741 92.497Z" fill="#E3E5E5"/>
<path d="M145.647 85.9144C145.647 85.9144 137.65 84.7437 134.492 80.8624L131.147 87.3961C132.762 90.5574 138.203 95.0788 142.299 95.4511L145.647 85.9144ZM149.611 85.0314C151.599 84.0588 153.27 81.7434 153.613 80.8623L156.259 83.5779C157.128 86.3858 156.049 89.4202 155.1 91.9309L149.611 85.0314Z" fill="#E3E5E5"/>
<path d="M143.266 93.0529C143.137 93.0529 143.01 93.0218 142.895 92.9622C142.781 92.9026 142.682 92.8162 142.608 92.7104C142.534 92.6047 142.487 92.4826 142.47 92.3546C142.453 92.2266 142.467 92.0965 142.511 91.9752L144.645 86.1218C144.681 86.0227 144.736 85.9317 144.808 85.854C144.879 85.7763 144.965 85.7134 145.061 85.6689C145.156 85.6243 145.26 85.5991 145.365 85.5945C145.47 85.5899 145.576 85.6062 145.675 85.6423C145.875 85.7151 146.038 85.8645 146.128 86.0575C146.218 86.2505 146.228 86.4713 146.155 86.6713L144.021 92.5248C143.965 92.6796 143.862 92.8132 143.727 92.9077C143.592 93.0022 143.431 93.0529 143.266 93.0529ZM153.095 90.01C152.975 90.0101 152.856 89.9834 152.748 89.9317C152.64 89.88 152.545 89.8047 152.469 89.7113L149.541 86.0864C149.475 86.0043 149.425 85.9101 149.395 85.8089C149.366 85.7078 149.356 85.6018 149.367 85.497C149.378 85.3921 149.41 85.2905 149.461 85.1979C149.511 85.1054 149.579 85.0236 149.662 84.9574C149.744 84.8912 149.838 84.8418 149.939 84.812C150.04 84.7822 150.146 84.7726 150.251 84.7838C150.356 84.795 150.458 84.8267 150.551 84.8772C150.643 84.9276 150.725 84.9958 150.791 85.0778L153.72 88.7028C153.815 88.8207 153.875 88.9631 153.893 89.1135C153.91 89.264 153.885 89.4164 153.82 89.5531C153.754 89.6898 153.652 89.8053 153.523 89.8861C153.395 89.967 153.247 90.0099 153.095 90.01Z" fill="#B7B7B7"/>
<path d="M153.506 50.2155C155.043 53.1515 163.264 70.9083 162.834 72.8404C162.234 75.537 156.28 79.1849 150.699 80.1017C145.549 80.9478 138.034 80.5737 133.202 71.6545C128.371 62.7353 131.34 52.3312 137.788 48.6609C144.258 44.9786 151.725 46.8136 153.506 50.2155Z" fill="#F4BBAB"/>
<path d="M134.459 68.5762C135.92 70.4994 136.749 69.0909 136.334 67.6688C135.803 65.8447 133.687 62.8151 135.063 60.2978C136.558 57.5654 136.652 54.1624 138.725 52.8415C145.04 48.8174 152.025 48.0656 153.506 50.2149C155.596 49.7167 155.639 43.5585 151.492 40.9292C151.492 40.9292 151.883 44.014 149.88 44.8104C149.88 44.8104 149.647 40.8398 146.362 38.293C146.362 38.293 146.446 40.2605 145.464 41.2569C145.186 39.8842 142.604 39.9935 141.525 43.1261C141.338 41.8813 139.521 40.4434 138.717 44.2558C138.717 44.2558 135.026 43.4235 134.197 47.3001C134.197 47.3001 127.789 50.2924 127.15 55.2363C127.15 55.2363 127.042 52.6359 126.27 52.6813C125.498 52.7267 126.59 64.4303 129.674 69.383C131.469 72.2656 134.459 68.5762 134.459 68.5762Z" fill="black"/>
<path d="M145.926 58.1727C148.126 58.4274 148.288 56.316 146.586 55.9542C144.899 55.5955 141.716 56.5026 140.465 57.6686C139.439 58.6245 139.89 59.7971 141.097 59.1289C142.628 58.2812 144.106 57.962 145.926 58.1727ZM151.152 54.1923C149.795 55.3814 148.617 53.8496 149.828 52.4217C151.39 50.5802 154.244 50.3597 155.843 51.7118C156.638 52.3836 156.827 53.5311 155.865 53.1429C154.276 52.5011 152.938 52.6271 151.152 54.1923Z" fill="black"/>
<path d="M145.002 70.6702C141.469 70.6702 138.594 67.7976 138.594 64.2667C138.594 60.7359 141.469 57.8633 145.002 57.8633C148.536 57.8633 151.41 60.7359 151.41 64.2667C151.41 67.7976 148.536 70.6702 145.002 70.6702ZM145.002 59.4689C142.355 59.4689 140.201 61.6212 140.201 64.2667C140.201 66.9123 142.355 69.0646 145.002 69.0646C147.65 69.0646 149.804 66.9123 149.804 64.2667C149.804 61.6212 147.65 59.4689 145.002 59.4689Z" fill="#656C72"/>
<path d="M156.953 66.1459C153.657 66.1459 150.975 63.466 150.975 60.172C150.975 56.8781 153.656 54.1982 156.953 54.1982C160.249 54.1982 162.931 56.8781 162.931 60.172C162.931 63.466 160.249 66.1459 156.953 66.1459ZM156.953 55.8039C154.543 55.8039 152.581 57.7635 152.581 60.1722C152.581 62.5808 154.542 64.5404 156.953 64.5404C159.363 64.5404 161.325 62.5808 161.325 60.1722C161.325 57.7635 159.363 55.8039 156.953 55.8039Z" fill="#656C72"/>
<path d="M150.298 63.2327C150.141 63.2328 149.988 63.1869 149.857 63.1007C149.726 63.0146 149.623 62.8919 149.56 62.7479C149.519 62.6512 149.496 62.5471 149.495 62.4417C149.493 62.3363 149.512 62.2316 149.551 62.1336C149.59 62.0356 149.648 61.9463 149.721 61.8706C149.795 61.795 149.883 61.7345 149.979 61.6927L151.687 60.9557C152.095 60.7798 152.568 60.9673 152.743 61.3744C152.919 61.7815 152.732 62.2538 152.324 62.4296L150.616 63.1667C150.516 63.2101 150.408 63.2326 150.298 63.2327ZM130.809 68.8068C130.692 68.8068 130.577 68.7812 130.471 68.732C130.278 68.6424 130.128 68.4797 130.055 68.2798C129.982 68.0799 129.991 67.859 130.08 67.6659C130.642 66.4555 132.371 65.5516 135.363 64.9021C137.421 64.4556 139.314 64.2998 139.393 64.2933C139.605 64.2773 139.815 64.3457 139.976 64.4836C140.137 64.6215 140.238 64.8176 140.255 65.0291C140.272 65.2406 140.205 65.4503 140.067 65.6123C139.93 65.7743 139.734 65.8755 139.523 65.8937C139.504 65.8952 137.644 66.0491 135.689 66.4744C132.299 67.2122 131.655 68.0901 131.538 68.3416C131.474 68.4806 131.371 68.5982 131.241 68.6807C131.112 68.7631 130.962 68.8069 130.809 68.8068Z" fill="#656C72"/>
<path d="M154.413 67.5628C154.286 67.5629 154.161 67.533 154.049 67.4757C153.936 67.4184 153.838 67.3353 153.763 67.2331C153.689 67.1309 153.639 67.0125 153.619 66.8877C153.599 66.7628 153.609 66.6349 153.648 66.5145C153.811 66.0056 153.714 65.665 153.582 65.5281C153.493 65.4366 153.409 65.447 153.353 65.4629C153.118 65.53 152.779 65.9087 152.595 66.7553C152.574 66.859 152.532 66.9573 152.472 67.0446C152.412 67.1319 152.335 67.2066 152.246 67.2642C152.157 67.3218 152.058 67.3613 151.954 67.3804C151.85 67.3994 151.743 67.3977 151.639 67.3753C151.536 67.3529 151.437 67.3103 151.35 67.2498C151.263 67.1894 151.189 67.1123 151.132 67.0231C151.075 66.9339 151.036 66.8343 151.018 66.7301C150.999 66.6258 151.002 66.5189 151.025 66.4156C151.313 65.0891 152 64.179 152.913 63.919C153.573 63.7309 154.255 63.9149 154.736 64.4116C155.336 65.0304 155.501 66 155.178 67.0053C155.126 67.1671 155.023 67.3083 154.886 67.4085C154.749 67.5086 154.583 67.5627 154.413 67.5628ZM150.187 75.5653C149.197 75.5653 148.241 75.4588 147.601 75.2811C147.396 75.2241 147.222 75.088 147.117 74.9026C147.012 74.7173 146.985 74.4979 147.042 74.2927C147.099 74.0876 147.235 73.9135 147.421 73.8087C147.606 73.704 147.826 73.6771 148.031 73.7341C148.904 73.9764 150.955 74.0929 152.312 73.7319C152.518 73.6771 152.737 73.7062 152.921 73.813C153.106 73.9197 153.24 74.0952 153.295 74.301C153.35 74.5067 153.321 74.7258 153.214 74.9101C153.107 75.0943 152.931 75.2286 152.725 75.2834C151.987 75.4799 151.073 75.5653 150.187 75.5653Z" fill="#E09273"/>
<path d="M133.983 68.0262C131.699 65.8117 128.076 66.8191 129.181 71.3479C130.068 74.9805 133.909 75.1864 135.017 74.3744C136.125 73.5625 136.105 70.0838 133.983 68.0262Z" fill="#F4BBAB"/>
<path d="M134.411 72.9358C134.259 72.9359 134.11 72.8928 133.981 72.8116C133.853 72.7304 133.75 72.6144 133.685 72.4771C133.494 72.0767 133.03 71.4165 132.422 70.8445C131.835 70.2928 131.245 69.9566 130.842 69.9451C130.737 69.9421 130.633 69.9184 130.536 69.8753C130.44 69.8322 130.353 69.7706 130.281 69.6939C130.208 69.6173 130.152 69.5271 130.114 69.4286C130.077 69.3301 130.059 69.2252 130.062 69.1198C130.065 69.0143 130.088 68.9105 130.131 68.8142C130.174 68.7179 130.236 68.631 130.313 68.5586C130.39 68.4861 130.48 68.4296 130.579 68.3921C130.677 68.3546 130.782 68.337 130.888 68.3402C132.734 68.3929 134.595 70.6491 135.136 71.7886C135.194 71.9109 135.22 72.0459 135.212 72.1811C135.204 72.3163 135.162 72.4472 135.09 72.5617C135.017 72.6762 134.917 72.7706 134.798 72.836C134.68 72.9014 134.546 72.9357 134.411 72.9358Z" fill="#E09273"/>
<path d="M131.876 72.3028C131.73 72.3027 131.586 72.2626 131.461 72.1868C131.336 72.1111 131.233 72.0026 131.165 71.8731C131.097 71.7436 131.066 71.598 131.075 71.452C131.083 71.306 131.132 71.1652 131.215 71.0447L132.162 69.6692C132.285 69.4969 132.47 69.3795 132.678 69.3425C132.886 69.3055 133.1 69.3519 133.274 69.4716C133.448 69.5914 133.568 69.7748 133.608 69.9822C133.647 70.1896 133.604 70.4043 133.486 70.5797L132.538 71.9551C132.465 72.0625 132.366 72.1503 132.25 72.2108C132.135 72.2714 132.006 72.303 131.876 72.3028ZM147.014 81.131C144.951 81.131 142.735 80.8457 140.752 79.9817C140.556 79.8966 140.403 79.7375 140.325 79.5393C140.247 79.3411 140.251 79.1201 140.336 78.9249C140.421 78.7298 140.581 78.5764 140.779 78.4986C140.977 78.4208 141.198 78.4248 141.394 78.51C145.082 80.1172 149.804 79.4703 152.29 78.9417C152.498 78.8997 152.713 78.9413 152.89 79.0573C153.068 79.1734 153.192 79.3546 153.236 79.5615C153.28 79.7684 153.24 79.9844 153.126 80.1624C153.011 80.3404 152.831 80.4661 152.625 80.5121C151.244 80.8057 149.216 81.131 147.014 81.131Z" fill="#E09273"/>
<path d="M146.204 67.4313C147.89 66.8126 148.672 64.7202 147.951 62.7578C147.23 60.7955 145.278 59.7063 143.592 60.325C141.906 60.9437 141.124 63.0361 141.845 64.9985C142.566 66.9608 144.518 68.0501 146.204 67.4313Z" fill="white"/>
<mask id="mask0_6725_71491" style="mask-type:luminance" maskUnits="userSpaceOnUse" x="141" y="60" width="8" height="8">
<path d="M147.704 66.8867C149.073 65.7251 149.086 63.4915 147.732 61.8978C146.378 60.3041 144.17 59.9539 142.801 61.1155C141.431 62.2771 141.419 64.5107 142.773 66.1044C144.127 67.698 146.334 68.0483 147.704 66.8867Z" fill="white"/>
</mask>
<g mask="url(#mask0_6725_71491)">
<path d="M146.467 65.7965C147.582 65.3873 148.017 63.7776 147.438 62.2012C146.858 60.6249 145.485 59.6788 144.369 60.088C143.254 60.4973 142.819 62.107 143.399 63.6833C143.978 65.2597 145.352 66.2058 146.467 65.7965Z" fill="black"/>
</g>
<mask id="mask1_6725_71491" style="mask-type:luminance" maskUnits="userSpaceOnUse" x="151" y="55" width="9" height="12">
<path d="M156.205 55.8679C157.219 58.0712 158.363 60.6225 159.412 63.0729C161.39 67.6904 154.055 67.3486 151.903 62.1777C149.751 57.0068 154.987 53.2217 156.205 55.8679Z" fill="white"/>
</mask>
<g mask="url(#mask1_6725_71491)">
<path d="M157.285 63.4243C158.867 62.8437 159.601 60.8804 158.925 59.0391C158.248 57.1979 156.417 56.1758 154.835 56.7564C153.252 57.337 152.518 59.3003 153.195 61.1415C153.872 62.9828 155.703 64.0048 157.285 63.4243Z" fill="white"/>
<mask id="mask2_6725_71491" style="mask-type:luminance" maskUnits="userSpaceOnUse" x="153" y="56" width="7" height="8">
<path d="M158.68 62.8781C159.965 61.7881 159.977 59.6923 158.706 58.197C157.436 56.7017 155.365 56.373 154.08 57.463C152.795 58.5529 152.783 60.6487 154.053 62.1441C155.323 63.6394 157.395 63.968 158.68 62.8781Z" fill="white"/>
</mask>
<g mask="url(#mask2_6725_71491)">
<path d="M157.416 61.8799C158.436 61.5055 158.828 60.0161 158.29 58.5531C157.752 57.0901 156.49 56.2076 155.469 56.5819C154.449 56.9563 154.058 58.4458 154.596 59.9087C155.133 61.3717 156.396 62.2542 157.416 61.8799Z" fill="black"/>
</g>
</g>
<path d="M144.492 98.3023C141.885 98.3023 139.168 97.7508 136.498 96.6544C132.196 94.8883 128.685 91.8732 127.334 88.7855C127.292 88.6889 127.269 88.585 127.267 88.4796C127.265 88.3742 127.283 88.2694 127.322 88.1712C127.36 88.0731 127.418 87.9834 127.491 87.9075C127.564 87.8315 127.651 87.7706 127.748 87.7284C127.845 87.6861 127.949 87.6633 128.054 87.6612C128.16 87.6592 128.265 87.6779 128.363 87.7163C128.461 87.7548 128.551 87.8122 128.627 87.8853C128.703 87.9584 128.764 88.0457 128.806 88.1423C129.997 90.8629 133.178 93.5556 137.108 95.1695C141.452 96.9529 146.09 97.1675 149.833 95.7582C155.331 93.6886 157.644 89.6325 156.708 83.7029C156.678 83.4941 156.731 83.2819 156.856 83.1122C156.982 82.9424 157.169 82.8289 157.378 82.796C157.586 82.7631 157.799 82.8135 157.971 82.9364C158.142 83.0592 158.259 83.2447 158.295 83.4526C159.63 91.9062 154.738 95.6275 150.4 97.2607C148.552 97.956 146.556 98.3023 144.492 98.3023Z" fill="#100F0F"/>
<path d="M121.462 90.7402C111.93 94.8673 108.647 104.027 109.997 125.21C111.52 149.096 112.767 159.014 122.615 165.08C132.253 171.016 137.22 149.642 135.853 142.266C135.853 142.266 137.339 139.944 135.298 138.032C133.392 135.163 133.82 124.782 134.486 114.81C135.297 103.473 128.834 91.9304 121.462 90.7402Z" fill="#14A1DC"/>
<path d="M179.042 121.761C178.864 121.761 178.692 121.702 178.551 121.593C178.411 121.485 178.31 121.333 178.265 121.161C178.229 121.023 174.624 107.257 173.715 103.618C173.667 103.412 173.702 103.197 173.812 103.017C173.922 102.837 174.099 102.708 174.303 102.657C174.508 102.606 174.724 102.637 174.906 102.744C175.088 102.851 175.22 103.025 175.274 103.229C176.18 106.86 179.783 120.616 179.82 120.755C179.846 120.857 179.853 120.963 179.838 121.067C179.824 121.172 179.789 121.272 179.736 121.363C179.683 121.454 179.612 121.534 179.528 121.598C179.444 121.661 179.348 121.708 179.246 121.735C179.179 121.752 179.111 121.761 179.042 121.761ZM135.975 144.157C135.845 144.157 135.718 144.125 135.603 144.065C135.488 144.005 135.389 143.917 135.315 143.811C135.241 143.704 135.194 143.581 135.178 143.452C135.162 143.323 135.178 143.193 135.223 143.071C136.121 140.687 134.652 138.511 134.637 138.49C134.605 138.442 134.577 138.391 134.555 138.337C132.342 132.965 133.174 121.718 133.574 116.313C133.619 115.698 133.659 115.166 133.684 114.76C133.701 114.55 133.799 114.355 133.958 114.217C134.118 114.078 134.325 114.008 134.535 114.021C134.746 114.035 134.943 114.13 135.084 114.287C135.225 114.444 135.298 114.65 135.288 114.861C135.262 115.276 135.222 115.811 135.176 116.432C134.818 121.278 133.981 132.598 136.012 137.655C136.333 138.154 137.827 140.713 136.728 143.636C136.67 143.789 136.567 143.921 136.433 144.014C136.298 144.107 136.139 144.157 135.975 144.157Z" fill="#100F0F"/>
<path d="M155.432 110.383L161.029 125.011C164.851 134.677 181.31 128.218 177.488 118.553L169.906 103.46C165.931 94.9987 151.457 101.921 155.432 110.383Z" fill="#F4BBAB"/>
<path d="M195.707 152.342C191.307 154.488 181.98 152.359 178.054 150.792C174.128 149.225 170.222 146.81 168.795 140.201C167.66 137.32 164.212 137.136 163.258 135.126C162.173 132.841 161.842 129.058 161.132 126.157C158.701 125.226 156.597 123.673 158.088 118.425C165.369 116.673 169.731 112.535 173.279 109.122C176.682 109.451 178.092 112.259 178.303 116.432C179.985 115.76 180.784 117.207 181.434 119.612C181.434 119.612 185.723 119.268 186.7 120.321C187.678 121.374 188.238 127.396 189.649 127.523C191.061 127.651 192.656 128.382 194.384 132.206C196.823 137.604 197.422 152.241 195.707 152.342Z" fill="#14A1DC"/>
<path d="M158.088 118.425L155.695 112.749C161.791 112.703 167.106 109.196 170.735 104.133L173.279 109.123C170.029 114.814 164.53 118.25 158.088 118.425Z" fill="#14A1DC"/>
<path d="M176.222 151.436C176.106 151.436 175.992 151.411 175.887 151.363C172.75 149.919 168.549 144.036 168.001 140.318C167.912 139.988 166.797 139.206 166.059 138.688C164.799 137.804 163.371 136.802 162.58 135.556C161.672 134.126 160.715 128.599 160.419 126.787C159.126 126.359 158.164 125.585 157.556 124.48C156.337 122.263 156.976 119.401 157.236 118.47L154.956 113.06C154.874 112.864 154.873 112.643 154.953 112.446C155.034 112.25 155.189 112.093 155.385 112.01C155.581 111.928 155.802 111.926 155.999 112.006C156.196 112.086 156.354 112.241 156.437 112.437L158.829 118.113C158.905 118.294 158.912 118.496 158.85 118.681C158.84 118.71 157.86 121.706 158.967 123.711C159.435 124.559 160.206 125.104 161.323 125.377C161.477 125.415 161.617 125.498 161.724 125.614C161.831 125.731 161.902 125.877 161.926 126.034C162.364 128.848 163.297 133.688 163.937 134.696C164.556 135.672 165.845 136.576 166.982 137.374C168.358 138.339 169.446 139.102 169.59 140.084C170.06 143.267 173.902 148.681 176.559 149.904C176.752 149.993 176.902 150.155 176.976 150.355C177.05 150.555 177.041 150.775 176.952 150.969C176.888 151.108 176.785 151.227 176.656 151.309C176.526 151.392 176.376 151.436 176.222 151.436Z" fill="#100F0F"/>
<path d="M169.907 103.46C169.099 100.531 169.765 94.3684 171.531 90.4033C173.297 86.4382 158.428 88.7281 157.33 92.2119C156.233 95.6958 154.667 99.3346 154.049 101.767C153.379 104.404 153.665 107.224 155.432 110.382C156.824 112.868 169.907 103.46 169.907 103.46Z" fill="#F4BBAB"/>
<path d="M171.532 90.4038C172.496 87.7576 174.504 82.1244 174.325 80.3183C174.147 78.5122 171.188 72.4633 170.493 71.2099C169.094 68.6875 165.316 69.8303 166.442 72.8902C167.775 76.5161 169.128 80.902 169.128 80.902L166.524 89.9194L171.532 90.4038Z" fill="#F4BBAB"/>
<path d="M168.303 90.7464C168.877 88.3562 170.572 81.5608 169.893 80.2889C169.214 79.017 164.295 77.2609 163.276 78.0078C162.707 78.425 160.537 83.4853 160.162 84.3558C159.317 86.3212 162.985 88.0124 164.007 85.8341C164.576 84.6214 165.26 83.2709 165.26 83.2709L163.738 90.3049L168.303 90.7464Z" fill="#F4BBAB"/>
<path d="M165.202 91.1173C165.386 89.2151 165.162 82.3695 164.365 81.6836C163.567 80.9977 157.682 80.863 156.996 81.1713C156.31 81.4795 155.827 86.0161 155.614 87.0466C155.113 89.4711 159.185 90.4206 159.74 87.9471C160.062 86.5109 160.062 85.6805 160.062 85.6805L160.729 85.7206L160.684 91.7969L165.202 91.1173Z" fill="#F4BBAB"/>
<path d="M162.203 91.5681C162.094 90.1355 162.141 85.5907 161.607 85.0291C161.073 84.4676 155.462 84.0426 154.798 84.4097C154.135 84.7769 153.366 88.6798 152.95 91.0162C152.518 93.4437 156.584 94.4508 157.093 91.6706C157.385 90.0773 157.345 88.5063 157.345 88.5063L157.33 92.2124L162.203 91.5681Z" fill="#F4BBAB"/>
<path d="M168.303 91.5505C168.179 91.5505 168.057 91.5221 167.947 91.4673C167.836 91.4126 167.739 91.333 167.664 91.2348C167.589 91.1366 167.538 91.0224 167.514 90.9011C167.49 90.7798 167.495 90.6547 167.528 90.5356C168.38 87.4248 169.559 82.0315 169.151 80.6075C169.02 80.4597 168.586 80.1455 168.196 79.9196C168.011 79.8129 167.877 79.6375 167.822 79.4318C167.767 79.2261 167.796 79.0071 167.903 78.8228C168.009 78.6385 168.185 78.5041 168.39 78.4491C168.596 78.3941 168.815 78.423 169 78.5295C169.941 79.073 170.498 79.5775 170.653 80.0289C171.405 82.215 169.473 89.5177 169.078 90.9594C169.031 91.1291 168.93 91.2788 168.79 91.3856C168.65 91.4924 168.479 91.5503 168.303 91.5505ZM165.202 91.9206C165.095 91.9207 164.988 91.8992 164.889 91.8573C164.79 91.8154 164.7 91.7541 164.625 91.6769C164.55 91.5998 164.492 91.5084 164.453 91.4081C164.414 91.3079 164.396 91.2008 164.399 91.0933C164.493 88.0096 164.337 83.2186 163.699 82.1357C163.469 81.9631 162.491 81.8558 161.657 81.9142C161.215 81.945 160.83 81.6122 160.799 81.1702C160.768 80.7283 161.1 80.3444 161.542 80.3126C162.379 80.2525 164.395 80.2246 165.045 81.2567C166.191 83.0782 166.046 89.8111 166.005 91.1424C165.998 91.3508 165.911 91.5487 165.761 91.6939C165.612 91.8392 165.411 91.9205 165.202 91.9206Z" fill="#E09273"/>
<path d="M162.202 92.3708C161.994 92.3707 161.793 92.2896 161.644 92.1447C161.494 91.9998 161.406 91.8025 161.4 91.5943C161.322 89.2184 161.137 86.4119 160.957 85.589C160.254 85.3794 157.997 85.1606 156.108 85.0745C155.664 85.0542 155.321 84.6789 155.342 84.2359C155.362 83.793 155.738 83.45 156.181 83.4706C161.62 83.7182 162.043 84.2759 162.247 84.5439C162.423 84.7764 162.643 85.0657 162.856 88.4454C162.955 90.0085 163.005 91.5268 163.006 91.542C163.009 91.6496 162.991 91.7568 162.952 91.8573C162.913 91.9577 162.855 92.0493 162.78 92.1266C162.705 92.2039 162.615 92.2654 162.516 92.3073C162.417 92.3493 162.31 92.3709 162.202 92.3708ZM157.331 93.0152H157.327C157.222 93.0148 157.118 92.9936 157.02 92.9529C156.923 92.9121 156.835 92.8527 156.76 92.7778C156.686 92.703 156.627 92.6142 156.587 92.5167C156.547 92.4191 156.527 92.3146 156.527 92.2092L156.542 88.503C156.543 88.2907 156.628 88.0873 156.778 87.9374C156.929 87.7876 157.133 87.7034 157.345 87.7034H157.349C157.454 87.7039 157.558 87.725 157.656 87.7658C157.753 87.8065 157.841 87.866 157.916 87.9408C157.99 88.0157 158.049 88.1044 158.089 88.202C158.129 88.2995 158.149 88.404 158.149 88.5094L158.134 92.2156C158.133 92.428 158.048 92.6314 157.898 92.7812C157.747 92.9311 157.543 93.0152 157.331 93.0152Z" fill="#E09273"/>
<path d="M193.681 131.604C193.476 131.604 193.28 131.526 193.131 131.386C192.982 131.246 192.892 131.054 192.88 130.85C192.853 130.422 192.415 129.88 191.676 129.365C190.872 128.804 189.97 128.44 189.443 128.3C188.29 127.992 187.888 126.332 187.378 124.231C187.111 123.13 186.665 121.287 186.229 120.971C184.567 119.764 181.638 120.39 181.609 120.396C181.179 120.491 180.752 120.223 180.652 119.794C180.216 117.92 179.601 117.365 179.273 117.2C178.971 117.049 178.72 117.13 178.661 117.153C178.426 117.286 178.159 117.282 177.918 117.159C177.674 117.034 177.53 116.782 177.504 116.509C176.959 110.809 174.993 110.35 173.413 109.98C173.303 109.955 173.193 109.929 173.084 109.901C172.972 109.873 172.868 109.822 172.779 109.751C172.689 109.679 172.616 109.589 172.564 109.487L170.02 104.497C169.971 104.403 169.941 104.3 169.933 104.195C169.924 104.089 169.936 103.983 169.968 103.882C170 103.781 170.052 103.687 170.121 103.607C170.19 103.526 170.274 103.46 170.368 103.412C170.463 103.364 170.566 103.335 170.672 103.327C170.778 103.318 170.884 103.331 170.985 103.365C171.085 103.398 171.178 103.451 171.259 103.52C171.339 103.589 171.405 103.674 171.452 103.768L173.827 108.428C175.503 108.82 178.208 109.507 179.007 115.507C179.283 115.518 179.596 115.579 179.925 115.732C180.852 116.163 181.557 117.162 182.024 118.705C183.212 118.561 185.529 118.478 187.173 119.672C188.087 120.336 188.501 122.044 188.94 123.853C189.177 124.831 189.571 126.457 189.904 126.761C191.375 127.168 194.355 128.648 194.484 130.753C194.49 130.862 194.474 130.972 194.437 131.075C194.4 131.178 194.342 131.272 194.266 131.352C194.191 131.432 194.1 131.495 194 131.539C193.899 131.582 193.79 131.605 193.681 131.604Z" fill="#100F0F"/>
<path d="M158.216 119.229C158.171 119.229 158.126 119.229 158.081 119.228C157.868 119.227 157.665 119.14 157.515 118.989C157.366 118.837 157.283 118.632 157.284 118.419C157.288 117.976 157.655 117.619 158.094 117.623C158.132 117.623 158.171 117.623 158.21 117.623C161.481 117.623 164.69 116.538 167.499 114.481C169.637 112.915 171.531 110.775 172.563 108.757C172.662 108.57 172.83 108.429 173.032 108.365C173.233 108.301 173.452 108.319 173.641 108.415C173.829 108.512 173.972 108.678 174.038 108.879C174.104 109.08 174.088 109.299 173.994 109.488C172.264 112.869 166.749 119.229 158.216 119.229Z" fill="#100F0F"/>
<path d="M170.959 151.423L155.365 149.848C145.005 148.927 143.322 167.831 153.681 168.752L170.588 168.638C179.942 168.839 180.313 151.625 170.959 151.423Z" fill="#F4BBAB"/>
<path d="M122.615 165.081C128.576 169.139 131.474 169.16 133.519 169.312C135.987 170.811 143.063 174.104 147.861 170.484C147.861 170.484 152.618 173.283 155.044 172.727C157.28 172.214 158.891 169.139 158.891 169.139C158.011 162.721 159.005 156.352 161.544 150.022C161.226 147.131 160.262 145.286 154.548 147.312C154.548 147.312 152.868 144.549 150.726 145.075C148.584 145.601 147.382 146.917 145.64 146.377C143.898 145.837 139.996 143.474 137.506 143.308C134 143.076 131.778 145.226 130.234 146.467C124.457 151.112 121.29 157.459 122.615 165.081Z" fill="#14A1DC"/>
<path d="M161.544 150.022C158.42 151.261 155.967 163.36 158.891 169.139C158.891 169.139 164.315 169.417 166.293 169.113C164.254 161.556 164.794 154.512 168.015 150.634L161.544 150.022Z" fill="#14A1DC"/>
<path d="M170.959 151.424C174.808 151.62 184.98 147.797 187.779 148.316C190.485 148.818 192.551 165.237 190.513 166.29C188.476 167.344 178.069 170.478 173.009 169.61C166.113 168.427 170.959 151.424 170.959 151.424Z" fill="#F4BBAB"/>
<path d="M187.779 148.316C191.574 148.974 195.982 150.506 197.161 151.874C198.341 153.241 197.744 159.396 196.362 160.601C195.741 161.142 191.224 160.463 190.105 160.311C187.301 159.929 187.541 155.972 190.455 156.116L193.369 156.261L193.53 155.072L188.481 154.091L187.779 148.316Z" fill="#F4BBAB"/>
<path d="M188.355 153.06C190.162 153.04 195.737 154.498 196.655 155.216C197.57 155.931 198.531 161.098 197.924 162.023C197.496 162.675 194.36 164.125 193.6 164.495C191.361 165.587 189.432 161.888 191.819 160.6C194.077 159.381 193.778 159.435 193.778 159.435L193.271 158.47L188.791 158.228L188.355 153.06Z" fill="#F4BBAB"/>
<path d="M188.733 157.549C190.287 157.408 195.266 157.777 195.87 158.195C196.474 158.613 197.718 163.483 197.286 164.272C196.854 165.062 194.488 166.916 193.88 167.379C192.138 168.706 189.701 165.611 191.898 163.798C192.531 163.276 193.375 162.614 193.375 162.614L193.137 161.8L189.437 162.322L188.733 157.549Z" fill="#F4BBAB"/>
<path d="M189.319 161.526C190.632 161.315 193.764 161.398 194.721 161.581C195.679 161.764 196.642 167.201 195.941 168.1C195.239 168.998 191.628 170.356 190.431 170.725C188.036 171.464 186.7 167.759 188.85 166.946C190.028 166.5 191.13 166.179 191.13 166.179L189.889 165.788L189.319 161.526Z" fill="#F4BBAB"/>
<path d="M197.635 157.842C197.471 157.842 197.312 157.792 197.177 157.699C197.042 157.605 196.94 157.473 196.882 157.32C196.879 157.311 196.535 156.402 196.009 155.694C195.598 155.232 192.381 154.379 188.254 153.856C187.814 153.8 187.502 153.399 187.558 152.959C187.614 152.519 188.016 152.207 188.456 152.263C188.533 152.273 190.355 152.506 192.321 152.893C196.069 153.631 196.951 154.267 197.3 154.738C197.964 155.632 198.371 156.713 198.388 156.759C198.425 156.857 198.442 156.963 198.438 157.068C198.434 157.173 198.41 157.277 198.366 157.373C198.322 157.469 198.26 157.555 198.183 157.627C198.105 157.699 198.015 157.755 197.916 157.791C197.826 157.825 197.731 157.842 197.635 157.842ZM197.258 162.568C197.073 162.568 196.893 162.504 196.75 162.387C196.607 162.269 196.508 162.106 196.471 161.925C196.159 160.396 195.655 159.107 195.366 158.822C194.773 158.518 191.48 158.335 188.739 158.352H188.733C188.52 158.353 188.316 158.269 188.164 158.119C188.013 157.969 187.928 157.765 187.927 157.552C187.927 157.339 188.011 157.134 188.161 156.983C188.311 156.832 188.515 156.747 188.728 156.746C188.794 156.746 190.352 156.736 192.037 156.812C195.24 156.955 196.023 157.268 196.393 157.585C197.332 158.39 197.895 160.866 198.046 161.605C198.07 161.722 198.067 161.842 198.039 161.958C198.01 162.074 197.956 162.181 197.881 162.274C197.805 162.366 197.71 162.44 197.602 162.491C197.495 162.542 197.377 162.568 197.258 162.568Z" fill="#E09273"/>
<path d="M196.1 166.354C195.912 166.354 195.731 166.288 195.587 166.169C195.443 166.049 195.345 165.882 195.311 165.698C195.034 164.214 194.582 162.679 194.313 162.289C193.546 162.104 190.237 162.231 189.41 162.324C189.2 162.345 188.99 162.282 188.826 162.149C188.662 162.017 188.557 161.825 188.533 161.615C188.509 161.405 188.569 161.195 188.7 161.029C188.83 160.863 189.021 160.755 189.23 160.729C189.549 160.693 190.739 160.618 191.972 160.596C194.449 160.552 194.872 160.761 195.076 160.86C195.536 161.086 195.946 161.619 196.451 163.486C196.713 164.456 196.883 165.366 196.89 165.405C196.912 165.521 196.908 165.64 196.878 165.754C196.848 165.868 196.794 165.974 196.718 166.065C196.643 166.156 196.548 166.229 196.441 166.279C196.334 166.329 196.218 166.354 196.1 166.354ZM188.851 167.749C188.66 167.749 188.476 167.681 188.33 167.558C188.185 167.435 188.088 167.264 188.057 167.076C188.027 166.888 188.064 166.695 188.162 166.532C188.261 166.369 188.414 166.246 188.595 166.185L190.875 165.419C190.975 165.385 191.08 165.371 191.185 165.379C191.291 165.386 191.393 165.414 191.488 165.46C191.582 165.507 191.667 165.572 191.736 165.652C191.806 165.731 191.859 165.824 191.892 165.923C191.926 166.023 191.939 166.129 191.932 166.234C191.925 166.339 191.897 166.442 191.85 166.536C191.803 166.631 191.738 166.715 191.659 166.784C191.579 166.854 191.487 166.907 191.387 166.94L189.107 167.707C189.024 167.735 188.938 167.749 188.851 167.749Z" fill="#E09273"/>
<path d="M158.892 169.941C158.742 169.942 158.595 169.9 158.468 169.821C158.341 169.742 158.238 169.629 158.171 169.495C157.08 167.296 156.616 164.374 156.83 161.045C157.004 158.33 157.631 155.427 158.552 153.083C159.031 151.862 159.751 150.387 160.641 149.646C160.442 148.685 160.282 148.078 159.761 147.76C158.961 147.274 157.28 147.383 154.764 148.085C154.597 148.132 154.419 148.123 154.257 148.06C154.095 147.997 153.957 147.883 153.866 147.736C152.187 145.037 150.768 145.633 148.804 146.458C147.741 146.903 146.643 147.364 145.504 147.168C143.367 146.8 142.101 146.053 140.985 145.394C139.921 144.767 139.002 144.224 137.447 144.109C133.648 143.826 130.868 146.963 130.84 146.994C130.771 147.074 130.686 147.139 130.592 147.186C130.497 147.233 130.395 147.261 130.289 147.268C130.184 147.275 130.078 147.262 129.978 147.228C129.878 147.195 129.786 147.142 129.706 147.073C129.546 146.933 129.447 146.735 129.433 146.522C129.418 146.31 129.488 146.1 129.628 145.94C129.763 145.786 132.973 142.168 137.566 142.508C139.496 142.651 140.668 143.343 141.802 144.012C142.848 144.63 143.931 145.268 145.777 145.586C146.453 145.702 147.293 145.35 148.181 144.977C150.052 144.192 152.583 143.13 154.897 146.387C157.626 145.686 159.446 145.689 160.596 146.389C161.753 147.093 162.01 148.332 162.216 149.327C162.253 149.505 162.288 149.673 162.327 149.838C162.371 150.028 162.346 150.227 162.254 150.399C162.163 150.571 162.012 150.704 161.83 150.773C161.525 150.888 160.799 151.755 160.047 153.669C158.305 158.106 157.596 164.722 159.611 168.782C159.705 168.973 159.72 169.193 159.652 169.395C159.584 169.597 159.439 169.763 159.248 169.858C159.137 169.913 159.015 169.941 158.892 169.941Z" fill="#100F0F"/>
<path d="M168.016 151.437C167.991 151.437 167.965 151.436 167.939 151.433L161.469 150.822C161.257 150.802 161.061 150.698 160.926 150.534C160.79 150.37 160.725 150.159 160.745 149.947C160.765 149.735 160.868 149.54 161.033 149.404C161.197 149.268 161.408 149.203 161.62 149.223L168.091 149.835C168.297 149.854 168.487 149.951 168.623 150.107C168.758 150.263 168.829 150.465 168.819 150.671C168.81 150.878 168.721 151.072 168.571 151.215C168.422 151.358 168.223 151.437 168.016 151.437Z" fill="#100F0F"/>
</g>
<g clip-path="url(#clip2_6725_71491)">
<path d="M211.216 68.9962C224.257 67.524 233.724 56.5184 232.359 44.4143C230.994 32.3103 219.316 23.6914 206.274 25.1636C193.232 26.6357 183.766 37.6414 185.131 49.7454C186.496 61.8494 198.174 70.4683 211.216 68.9962Z" fill="#2471ED"/>
<path d="M211.416 34.2888L196.427 35.9808C191.463 36.5411 187.86 41.0635 188.42 46.0306L189.164 52.6329C189.724 57.5999 194.244 61.2055 199.208 60.6451L214.197 58.9532C219.161 58.3928 222.764 53.8705 222.204 48.9033L221.46 42.3011C220.9 37.3341 216.381 33.7286 211.416 34.2888Z" fill="#54D8F7"/>
<path d="M232.733 36.6172L229.418 36.9913C226.919 37.2734 225.289 41.0082 225.777 45.3333C226.264 49.6583 228.685 52.9359 231.184 52.6539L234.499 52.2797L232.733 36.6172Z" fill="#2471ED"/>
<path d="M234.498 52.2798C236.997 51.9977 238.628 48.2628 238.14 43.9377C237.653 39.6126 235.232 36.3351 232.733 36.6172C230.234 36.8993 228.603 40.6341 229.091 44.9592C229.579 49.2843 232 52.5618 234.498 52.2798Z" fill="#2471ED"/>
<path d="M234.194 53.0991C231.365 53.0994 228.816 49.6738 228.295 45.0493C227.75 40.2112 229.66 36.1574 232.643 35.8206C233.084 35.7709 233.48 36.0874 233.529 36.5275C233.579 36.9676 233.263 37.3646 232.823 37.4142C230.802 37.6424 229.458 41.0565 229.888 44.8695C230.317 48.6825 232.387 51.7101 234.409 51.4831C234.514 51.4704 234.62 51.4786 234.722 51.5072C234.824 51.5359 234.919 51.5845 235.002 51.6501C235.085 51.7158 235.154 51.7972 235.206 51.8898C235.257 51.9823 235.29 52.0841 235.302 52.1893C235.314 52.2945 235.304 52.401 235.275 52.5027C235.245 52.6044 235.196 52.6992 235.13 52.7817C235.064 52.8642 234.982 52.9327 234.889 52.9834C234.796 53.034 234.694 53.0658 234.589 53.0768C234.457 53.0917 234.325 53.0991 234.194 53.0991Z" fill="#004EBF"/>
<path d="M230.876 53.4733C229.509 53.4733 228.174 52.6777 227.082 51.1981C225.978 49.7039 225.232 47.6531 224.98 45.4234C224.729 43.1937 225 41.0281 225.743 39.3254C226.55 37.4764 227.824 36.3645 229.328 36.1948L232.643 35.8205C232.748 35.8087 232.853 35.8175 232.955 35.8467C233.056 35.8758 233.15 35.9246 233.232 35.9902C233.315 36.0559 233.383 36.1371 233.434 36.2293C233.485 36.3215 233.517 36.4228 233.529 36.5275C233.553 36.7388 233.492 36.951 233.359 37.1173C233.227 37.2835 233.034 37.3904 232.823 37.4142L229.508 37.7884C228.596 37.8914 227.78 38.6653 227.212 39.9674C226.579 41.4158 226.352 43.2896 226.573 45.2436C226.793 47.1976 227.432 48.9736 228.37 50.2448C229.215 51.3876 230.183 51.9597 231.094 51.8572L234.409 51.4831C234.849 51.4337 235.245 51.75 235.295 52.19C235.344 52.6301 235.028 53.0271 234.588 53.0767L231.274 53.4509C231.141 53.4659 231.009 53.4733 230.876 53.4733Z" fill="#004EBF"/>
<path d="M196.889 50.5852C197.968 50.4634 198.672 48.8535 198.461 46.9893C198.251 45.125 197.206 43.7125 196.128 43.8342C195.049 43.956 194.345 45.5659 194.555 47.4302C194.766 49.2944 195.81 50.707 196.889 50.5852Z" fill="#004EBF"/>
<path d="M208.764 49.2444C209.843 49.1226 210.547 47.5127 210.336 45.6484C210.126 43.7842 209.081 42.3717 208.003 42.4934C206.924 42.6152 206.22 44.2251 206.43 46.0893C206.641 47.9536 207.685 49.3661 208.764 49.2444Z" fill="#004EBF"/>
<path d="M221.115 61.8384C220.917 61.8383 220.727 61.7655 220.58 61.6338C220.433 61.5021 220.34 61.3208 220.318 61.1247C220.297 60.9285 220.348 60.7312 220.463 60.5706C220.577 60.4099 220.747 60.2972 220.939 60.254L231.405 57.8965L232.06 52.3707C232.112 51.9309 232.511 51.6164 232.95 51.6688C233.055 51.6812 233.156 51.7141 233.248 51.7655C233.339 51.817 233.42 51.8861 233.485 51.9688C233.55 52.0515 233.599 52.1462 233.627 52.2476C233.656 52.349 233.664 52.455 233.652 52.5595L232.93 58.6487C232.911 58.8134 232.841 58.9681 232.73 59.0913C232.619 59.2145 232.472 59.3002 232.31 59.3366L221.291 61.8187C221.233 61.8317 221.174 61.8383 221.115 61.8384Z" fill="#004EBF"/>
<path d="M219.205 63.3143C220.952 62.915 222.188 61.8086 221.968 60.8431C221.747 59.8777 220.153 59.4187 218.407 59.818C216.661 60.2173 215.424 61.3237 215.644 62.2892C215.865 63.2547 217.459 63.7136 219.205 63.3143Z" fill="#004EBF"/>
<path d="M203.486 51.8861C204.036 51.9078 204.56 52.1045 204.985 52.4535C205.497 52.8739 205.804 53.4632 205.852 54.1127C205.86 54.2183 205.848 54.3244 205.815 54.4251C205.783 54.5258 205.73 54.6191 205.662 54.6995C205.593 54.7799 205.509 54.8458 205.414 54.8936C205.32 54.9413 205.217 54.9698 205.111 54.9775C205.006 54.9853 204.9 54.972 204.8 54.9385C204.699 54.905 204.606 54.852 204.527 54.7825C204.447 54.7129 204.382 54.6283 204.335 54.5334C204.288 54.4385 204.26 54.3353 204.253 54.2296C204.238 54.0225 204.137 53.832 203.968 53.6931C203.787 53.5446 203.553 53.4725 203.309 53.4906C203.065 53.5085 202.844 53.6136 202.687 53.7869C202.54 53.9489 202.467 54.1521 202.482 54.3592C202.497 54.5713 202.428 54.7809 202.289 54.9418C202.15 55.1028 201.953 55.2019 201.741 55.2174C201.3 55.2501 200.916 54.9178 200.884 54.4761C200.836 53.8265 201.055 53.1988 201.5 52.7084C201.935 52.2293 202.536 51.939 203.192 51.891C203.291 51.884 203.388 51.8823 203.486 51.8861Z" fill="#004EBF"/>
</g>
<path d="M51.4211 222V210.364H53.5291V215.29H58.9211V210.364H61.0347V222H58.9211V217.057H53.5291V222H51.4211ZM65.7588 222.176C65.2058 222.176 64.7077 222.078 64.2645 221.881C63.8251 221.68 63.4766 221.384 63.219 220.994C62.9652 220.604 62.8384 220.123 62.8384 219.551C62.8384 219.059 62.9293 218.652 63.1111 218.33C63.2929 218.008 63.541 217.75 63.8554 217.557C64.1698 217.364 64.524 217.218 64.9179 217.119C65.3156 217.017 65.7266 216.943 66.1509 216.898C66.6622 216.845 67.077 216.797 67.3952 216.756C67.7134 216.71 67.9444 216.642 68.0884 216.551C68.2361 216.456 68.3099 216.311 68.3099 216.114V216.08C68.3099 215.652 68.1831 215.32 67.9293 215.085C67.6755 214.85 67.3099 214.733 66.8327 214.733C66.3289 214.733 65.9293 214.843 65.6338 215.062C65.3421 215.282 65.1452 215.542 65.0429 215.841L63.1224 215.568C63.274 215.038 63.524 214.595 63.8724 214.239C64.2209 213.879 64.6471 213.61 65.1509 213.432C65.6546 213.25 66.2115 213.159 66.8213 213.159C67.2418 213.159 67.6603 213.208 68.077 213.307C68.4937 213.405 68.8743 213.568 69.219 213.795C69.5637 214.019 69.8402 214.324 70.0486 214.71C70.2607 215.097 70.3668 215.58 70.3668 216.159V222H68.3895V220.801H68.3213C68.1963 221.044 68.0202 221.271 67.7929 221.483C67.5694 221.691 67.2872 221.86 66.9463 221.989C66.6092 222.114 66.2134 222.176 65.7588 222.176ZM66.2929 220.665C66.7058 220.665 67.0637 220.583 67.3668 220.42C67.6698 220.254 67.9027 220.034 68.0656 219.761C68.2323 219.489 68.3156 219.191 68.3156 218.869V217.841C68.2512 217.894 68.1414 217.943 67.9861 217.989C67.8346 218.034 67.6641 218.074 67.4747 218.108C67.2853 218.142 67.0978 218.172 66.9122 218.199C66.7266 218.225 66.5656 218.248 66.4293 218.267C66.1224 218.309 65.8478 218.377 65.6054 218.472C65.363 218.566 65.1717 218.699 65.0315 218.869C64.8914 219.036 64.8213 219.252 64.8213 219.517C64.8213 219.896 64.9596 220.182 65.2361 220.375C65.5126 220.568 65.8649 220.665 66.2929 220.665ZM79.3437 215.58L77.4687 215.784C77.4156 215.595 77.3228 215.417 77.1903 215.25C77.0615 215.083 76.8872 214.949 76.6675 214.847C76.4478 214.744 76.1789 214.693 75.8607 214.693C75.4327 214.693 75.0728 214.786 74.7812 214.972C74.4933 215.157 74.3513 215.398 74.355 215.693C74.3513 215.947 74.4441 216.153 74.6334 216.312C74.8266 216.472 75.1448 216.602 75.588 216.705L77.0766 217.023C77.9024 217.201 78.516 217.483 78.9175 217.869C79.3228 218.256 79.5274 218.761 79.5312 219.386C79.5274 219.936 79.3664 220.42 79.0482 220.841C78.7338 221.258 78.2963 221.583 77.7357 221.818C77.1751 222.053 76.5312 222.17 75.8039 222.17C74.7357 222.17 73.8759 221.947 73.2244 221.5C72.5728 221.049 72.1846 220.422 72.0596 219.619L74.0653 219.426C74.1562 219.82 74.3494 220.117 74.6448 220.318C74.9403 220.519 75.3247 220.619 75.7982 220.619C76.2869 220.619 76.6789 220.519 76.9744 220.318C77.2736 220.117 77.4232 219.869 77.4232 219.574C77.4232 219.324 77.3266 219.117 77.1334 218.955C76.9441 218.792 76.6486 218.667 76.2471 218.58L74.7584 218.267C73.9213 218.093 73.302 217.799 72.9005 217.386C72.499 216.97 72.3001 216.443 72.3039 215.807C72.3001 215.269 72.4459 214.803 72.7414 214.409C73.0406 214.011 73.4554 213.705 73.9857 213.489C74.5198 213.269 75.1353 213.159 75.8323 213.159C76.855 213.159 77.66 213.377 78.2471 213.812C78.838 214.248 79.2035 214.837 79.3437 215.58ZM81.2382 222V213.273H83.295V222H81.2382ZM82.2723 212.034C81.9465 212.034 81.6662 211.926 81.4314 211.71C81.1965 211.491 81.0791 211.227 81.0791 210.92C81.0791 210.61 81.1965 210.347 81.4314 210.131C81.6662 209.911 81.9465 209.801 82.2723 209.801C82.6018 209.801 82.8821 209.911 83.1132 210.131C83.348 210.347 83.4655 210.61 83.4655 210.92C83.4655 211.227 83.348 211.491 83.1132 211.71C82.8821 211.926 82.6018 212.034 82.2723 212.034ZM87.4779 210.364V222H85.4211V210.364H87.4779ZM93.6746 222V210.364H98.0382C98.9322 210.364 99.6822 210.53 100.288 210.864C100.898 211.197 101.358 211.655 101.669 212.239C101.983 212.818 102.141 213.477 102.141 214.216C102.141 214.962 101.983 215.625 101.669 216.205C101.355 216.784 100.891 217.241 100.277 217.574C99.6632 217.903 98.9076 218.068 98.0098 218.068H95.1178V216.335H97.7257C98.2485 216.335 98.6765 216.244 99.0098 216.062C99.3432 215.881 99.5894 215.631 99.7485 215.312C99.9113 214.994 99.9928 214.629 99.9928 214.216C99.9928 213.803 99.9113 213.439 99.7485 213.125C99.5894 212.811 99.3413 212.566 99.0042 212.392C98.6708 212.214 98.2409 212.125 97.7144 212.125H95.7826V222H93.6746ZM107.63 222.17C106.755 222.17 106 221.989 105.363 221.625C104.731 221.258 104.244 220.739 103.903 220.068C103.562 219.394 103.392 218.6 103.392 217.688C103.392 216.79 103.562 216.002 103.903 215.324C104.248 214.642 104.729 214.112 105.346 213.733C105.964 213.35 106.689 213.159 107.522 213.159C108.06 213.159 108.568 213.246 109.045 213.42C109.526 213.591 109.95 213.856 110.318 214.216C110.689 214.576 110.981 215.034 111.193 215.591C111.405 216.144 111.511 216.803 111.511 217.568V218.199H104.357V216.812H109.539C109.536 216.419 109.45 216.068 109.284 215.761C109.117 215.451 108.884 215.206 108.585 215.028C108.289 214.85 107.945 214.761 107.551 214.761C107.13 214.761 106.761 214.864 106.443 215.068C106.125 215.269 105.876 215.534 105.698 215.864C105.524 216.189 105.435 216.547 105.431 216.938V218.148C105.431 218.655 105.524 219.091 105.71 219.455C105.895 219.814 106.155 220.091 106.488 220.284C106.821 220.473 107.212 220.568 107.659 220.568C107.958 220.568 108.229 220.527 108.471 220.443C108.714 220.356 108.924 220.229 109.102 220.062C109.28 219.896 109.414 219.689 109.505 219.443L111.426 219.659C111.304 220.167 111.073 220.61 110.732 220.989C110.395 221.364 109.964 221.655 109.437 221.864C108.911 222.068 108.308 222.17 107.63 222.17ZM115.319 216.886V222H113.262V213.273H115.228V214.756H115.33C115.531 214.267 115.851 213.879 116.29 213.591C116.734 213.303 117.281 213.159 117.932 213.159C118.535 213.159 119.059 213.288 119.506 213.545C119.957 213.803 120.306 214.176 120.552 214.665C120.802 215.153 120.925 215.746 120.921 216.443V222H118.864V216.761C118.864 216.178 118.713 215.722 118.41 215.392C118.11 215.062 117.696 214.898 117.165 214.898C116.806 214.898 116.485 214.977 116.205 215.136C115.929 215.292 115.711 215.517 115.552 215.812C115.396 216.108 115.319 216.466 115.319 216.886ZM126.83 222.17C125.959 222.17 125.21 221.979 124.585 221.597C123.964 221.214 123.485 220.686 123.148 220.011C122.815 219.333 122.648 218.553 122.648 217.67C122.648 216.784 122.818 216.002 123.159 215.324C123.5 214.642 123.981 214.112 124.602 213.733C125.227 213.35 125.966 213.159 126.818 213.159C127.527 213.159 128.154 213.29 128.699 213.551C129.248 213.809 129.686 214.174 130.012 214.648C130.337 215.117 130.523 215.667 130.568 216.295H128.602C128.523 215.875 128.334 215.525 128.034 215.244C127.739 214.96 127.343 214.818 126.847 214.818C126.426 214.818 126.057 214.932 125.739 215.159C125.421 215.383 125.173 215.705 124.995 216.125C124.82 216.545 124.733 217.049 124.733 217.636C124.733 218.231 124.82 218.742 124.995 219.17C125.169 219.595 125.413 219.922 125.727 220.153C126.046 220.381 126.419 220.494 126.847 220.494C127.15 220.494 127.421 220.437 127.659 220.324C127.902 220.206 128.104 220.038 128.267 219.818C128.43 219.598 128.542 219.331 128.602 219.017H130.568C130.519 219.634 130.337 220.182 130.023 220.659C129.709 221.133 129.281 221.504 128.739 221.773C128.197 222.038 127.561 222.17 126.83 222.17ZM134.78 222.176C134.227 222.176 133.729 222.078 133.285 221.881C132.846 221.68 132.497 221.384 132.24 220.994C131.986 220.604 131.859 220.123 131.859 219.551C131.859 219.059 131.95 218.652 132.132 218.33C132.314 218.008 132.562 217.75 132.876 217.557C133.191 217.364 133.545 217.218 133.939 217.119C134.337 217.017 134.747 216.943 135.172 216.898C135.683 216.845 136.098 216.797 136.416 216.756C136.734 216.71 136.965 216.642 137.109 216.551C137.257 216.456 137.331 216.311 137.331 216.114V216.08C137.331 215.652 137.204 215.32 136.95 215.085C136.696 214.85 136.331 214.733 135.854 214.733C135.35 214.733 134.95 214.843 134.655 215.062C134.363 215.282 134.166 215.542 134.064 215.841L132.143 215.568C132.295 215.038 132.545 214.595 132.893 214.239C133.242 213.879 133.668 213.61 134.172 213.432C134.676 213.25 135.232 213.159 135.842 213.159C136.263 213.159 136.681 213.208 137.098 213.307C137.515 213.405 137.895 213.568 138.24 213.795C138.585 214.019 138.861 214.324 139.069 214.71C139.282 215.097 139.388 215.58 139.388 216.159V222H137.41V220.801H137.342C137.217 221.044 137.041 221.271 136.814 221.483C136.59 221.691 136.308 221.86 135.967 221.989C135.63 222.114 135.234 222.176 134.78 222.176ZM135.314 220.665C135.727 220.665 136.085 220.583 136.388 220.42C136.691 220.254 136.924 220.034 137.087 219.761C137.253 219.489 137.337 219.191 137.337 218.869V217.841C137.272 217.894 137.162 217.943 137.007 217.989C136.855 218.034 136.685 218.074 136.496 218.108C136.306 218.142 136.119 218.172 135.933 218.199C135.747 218.225 135.587 218.248 135.45 218.267C135.143 218.309 134.869 218.377 134.626 218.472C134.384 218.566 134.193 218.699 134.052 218.869C133.912 219.036 133.842 219.252 133.842 219.517C133.842 219.896 133.98 220.182 134.257 220.375C134.533 220.568 134.886 220.665 135.314 220.665ZM141.467 222V213.273H143.461V214.727H143.552C143.711 214.223 143.984 213.835 144.37 213.562C144.76 213.286 145.205 213.148 145.705 213.148C145.819 213.148 145.946 213.153 146.086 213.165C146.23 213.172 146.349 213.186 146.444 213.205V215.097C146.357 215.066 146.219 215.04 146.029 215.017C145.844 214.991 145.664 214.977 145.49 214.977C145.115 214.977 144.777 215.059 144.478 215.222C144.183 215.381 143.95 215.602 143.779 215.886C143.609 216.17 143.524 216.498 143.524 216.869V222H141.467ZM147.822 222V213.273H149.878V222H147.822ZM148.856 212.034C148.53 212.034 148.25 211.926 148.015 211.71C147.78 211.491 147.662 211.227 147.662 210.92C147.662 210.61 147.78 210.347 148.015 210.131C148.25 209.911 148.53 209.801 148.856 209.801C149.185 209.801 149.466 209.911 149.697 210.131C149.931 210.347 150.049 210.61 150.049 210.92C150.049 211.227 149.931 211.491 149.697 211.71C149.466 211.926 149.185 212.034 148.856 212.034ZM154.516 222.176C153.963 222.176 153.465 222.078 153.021 221.881C152.582 221.68 152.234 221.384 151.976 220.994C151.722 220.604 151.595 220.123 151.595 219.551C151.595 219.059 151.686 218.652 151.868 218.33C152.05 218.008 152.298 217.75 152.612 217.557C152.927 217.364 153.281 217.218 153.675 217.119C154.073 217.017 154.484 216.943 154.908 216.898C155.419 216.845 155.834 216.797 156.152 216.756C156.47 216.71 156.701 216.642 156.845 216.551C156.993 216.456 157.067 216.311 157.067 216.114V216.08C157.067 215.652 156.94 215.32 156.686 215.085C156.432 214.85 156.067 214.733 155.59 214.733C155.086 214.733 154.686 214.843 154.391 215.062C154.099 215.282 153.902 215.542 153.8 215.841L151.879 215.568C152.031 215.038 152.281 214.595 152.629 214.239C152.978 213.879 153.404 213.61 153.908 213.432C154.412 213.25 154.968 213.159 155.578 213.159C155.999 213.159 156.417 213.208 156.834 213.307C157.251 213.405 157.631 213.568 157.976 213.795C158.321 214.019 158.597 214.324 158.806 214.71C159.018 215.097 159.124 215.58 159.124 216.159V222H157.146V220.801H157.078C156.953 221.044 156.777 221.271 156.55 221.483C156.326 221.691 156.044 221.86 155.703 221.989C155.366 222.114 154.97 222.176 154.516 222.176ZM155.05 220.665C155.463 220.665 155.821 220.583 156.124 220.42C156.427 220.254 156.66 220.034 156.823 219.761C156.989 219.489 157.073 219.191 157.073 218.869V217.841C157.008 217.894 156.898 217.943 156.743 217.989C156.592 218.034 156.421 218.074 156.232 218.108C156.042 218.142 155.855 218.172 155.669 218.199C155.484 218.225 155.323 218.248 155.186 218.267C154.879 218.309 154.605 218.377 154.362 218.472C154.12 218.566 153.929 218.699 153.789 218.869C153.648 219.036 153.578 219.252 153.578 219.517C153.578 219.896 153.717 220.182 153.993 220.375C154.27 220.568 154.622 220.665 155.05 220.665ZM163.26 216.886V222H161.203V213.273H163.169V214.756H163.271C163.472 214.267 163.792 213.879 164.231 213.591C164.675 213.303 165.222 213.159 165.873 213.159C166.476 213.159 167 213.288 167.447 213.545C167.898 213.803 168.246 214.176 168.493 214.665C168.743 215.153 168.866 215.746 168.862 216.443V222H166.805V216.761C166.805 216.178 166.654 215.722 166.351 215.392C166.051 215.062 165.637 214.898 165.106 214.898C164.746 214.898 164.426 214.977 164.146 215.136C163.87 215.292 163.652 215.517 163.493 215.812C163.337 216.108 163.26 216.466 163.26 216.886ZM182.83 214.08C182.735 213.773 182.605 213.498 182.438 213.256C182.275 213.009 182.078 212.799 181.847 212.625C181.62 212.451 181.358 212.32 181.063 212.233C180.768 212.142 180.446 212.097 180.097 212.097C179.472 212.097 178.915 212.254 178.427 212.568C177.938 212.883 177.554 213.345 177.273 213.955C176.997 214.561 176.858 215.299 176.858 216.17C176.858 217.049 176.997 217.794 177.273 218.403C177.55 219.013 177.934 219.477 178.427 219.795C178.919 220.11 179.491 220.267 180.143 220.267C180.733 220.267 181.245 220.153 181.677 219.926C182.112 219.699 182.447 219.377 182.682 218.96C182.917 218.54 183.035 218.047 183.035 217.483L183.512 217.557H180.353V215.909H185.074V217.307C185.074 218.303 184.862 219.165 184.438 219.892C184.014 220.619 183.43 221.18 182.688 221.574C181.946 221.964 181.093 222.159 180.131 222.159C179.059 222.159 178.118 221.919 177.307 221.438C176.501 220.953 175.87 220.265 175.415 219.375C174.965 218.481 174.739 217.42 174.739 216.193C174.739 215.254 174.872 214.415 175.137 213.676C175.406 212.938 175.781 212.311 176.262 211.795C176.743 211.277 177.307 210.883 177.955 210.614C178.603 210.341 179.307 210.205 180.069 210.205C180.713 210.205 181.313 210.299 181.87 210.489C182.427 210.674 182.921 210.939 183.353 211.284C183.788 211.629 184.146 212.038 184.427 212.511C184.707 212.985 184.891 213.508 184.978 214.08H182.83ZM189.544 222.176C188.991 222.176 188.493 222.078 188.05 221.881C187.61 221.68 187.262 221.384 187.004 220.994C186.751 220.604 186.624 220.123 186.624 219.551C186.624 219.059 186.715 218.652 186.896 218.33C187.078 218.008 187.326 217.75 187.641 217.557C187.955 217.364 188.309 217.218 188.703 217.119C189.101 217.017 189.512 216.943 189.936 216.898C190.448 216.845 190.862 216.797 191.181 216.756C191.499 216.71 191.73 216.642 191.874 216.551C192.021 216.456 192.095 216.311 192.095 216.114V216.08C192.095 215.652 191.968 215.32 191.715 215.085C191.461 214.85 191.095 214.733 190.618 214.733C190.114 214.733 189.715 214.843 189.419 215.062C189.128 215.282 188.931 215.542 188.828 215.841L186.908 215.568C187.059 215.038 187.309 214.595 187.658 214.239C188.006 213.879 188.432 213.61 188.936 213.432C189.44 213.25 189.997 213.159 190.607 213.159C191.027 213.159 191.446 213.208 191.862 213.307C192.279 213.405 192.66 213.568 193.004 213.795C193.349 214.019 193.626 214.324 193.834 214.71C194.046 215.097 194.152 215.58 194.152 216.159V222H192.175V220.801H192.107C191.982 221.044 191.806 221.271 191.578 221.483C191.355 221.691 191.073 221.86 190.732 221.989C190.395 222.114 189.999 222.176 189.544 222.176ZM190.078 220.665C190.491 220.665 190.849 220.583 191.152 220.42C191.455 220.254 191.688 220.034 191.851 219.761C192.018 219.489 192.101 219.191 192.101 218.869V217.841C192.037 217.894 191.927 217.943 191.771 217.989C191.62 218.034 191.449 218.074 191.26 218.108C191.071 218.142 190.883 218.172 190.698 218.199C190.512 218.225 190.351 218.248 190.215 218.267C189.908 218.309 189.633 218.377 189.391 218.472C189.148 218.566 188.957 218.699 188.817 218.869C188.677 219.036 188.607 219.252 188.607 219.517C188.607 219.896 188.745 220.182 189.021 220.375C189.298 220.568 189.65 220.665 190.078 220.665ZM200.027 225.455C199.288 225.455 198.654 225.354 198.123 225.153C197.593 224.956 197.167 224.691 196.845 224.358C196.523 224.025 196.299 223.655 196.174 223.25L198.027 222.801C198.11 222.972 198.231 223.14 198.39 223.307C198.549 223.477 198.764 223.617 199.032 223.727C199.305 223.841 199.648 223.898 200.061 223.898C200.644 223.898 201.127 223.756 201.51 223.472C201.892 223.191 202.084 222.729 202.084 222.085V220.432H201.981C201.875 220.644 201.72 220.862 201.515 221.085C201.315 221.309 201.048 221.496 200.714 221.648C200.385 221.799 199.97 221.875 199.47 221.875C198.799 221.875 198.192 221.718 197.646 221.403C197.104 221.085 196.673 220.612 196.351 219.983C196.032 219.35 195.873 218.559 195.873 217.608C195.873 216.65 196.032 215.841 196.351 215.182C196.673 214.519 197.106 214.017 197.652 213.676C198.197 213.331 198.805 213.159 199.476 213.159C199.987 213.159 200.407 213.246 200.737 213.42C201.07 213.591 201.335 213.797 201.532 214.04C201.729 214.278 201.879 214.504 201.981 214.716H202.095V213.273H204.123V222.142C204.123 222.888 203.945 223.506 203.589 223.994C203.233 224.483 202.746 224.848 202.129 225.091C201.512 225.333 200.811 225.455 200.027 225.455ZM200.044 220.261C200.479 220.261 200.851 220.155 201.157 219.943C201.464 219.731 201.697 219.426 201.856 219.028C202.015 218.631 202.095 218.153 202.095 217.597C202.095 217.047 202.015 216.566 201.856 216.153C201.701 215.741 201.47 215.42 201.163 215.193C200.86 214.962 200.487 214.847 200.044 214.847C199.585 214.847 199.203 214.966 198.896 215.205C198.589 215.443 198.358 215.771 198.203 216.188C198.048 216.6 197.97 217.07 197.97 217.597C197.97 218.131 198.048 218.598 198.203 219C198.362 219.398 198.595 219.708 198.902 219.932C199.212 220.152 199.593 220.261 200.044 220.261ZM208.754 222.176C208.201 222.176 207.703 222.078 207.259 221.881C206.82 221.68 206.471 221.384 206.214 220.994C205.96 220.604 205.833 220.123 205.833 219.551C205.833 219.059 205.924 218.652 206.106 218.33C206.288 218.008 206.536 217.75 206.85 217.557C207.165 217.364 207.519 217.218 207.913 217.119C208.311 217.017 208.721 216.943 209.146 216.898C209.657 216.845 210.072 216.797 210.39 216.756C210.708 216.71 210.939 216.642 211.083 216.551C211.231 216.456 211.305 216.311 211.305 216.114V216.08C211.305 215.652 211.178 215.32 210.924 215.085C210.67 214.85 210.305 214.733 209.828 214.733C209.324 214.733 208.924 214.843 208.629 215.062C208.337 215.282 208.14 215.542 208.038 215.841L206.117 215.568C206.269 215.038 206.519 214.595 206.867 214.239C207.216 213.879 207.642 213.61 208.146 213.432C208.65 213.25 209.206 213.159 209.816 213.159C210.237 213.159 210.655 213.208 211.072 213.307C211.489 213.405 211.869 213.568 212.214 213.795C212.559 214.019 212.835 214.324 213.043 214.71C213.256 215.097 213.362 215.58 213.362 216.159V222H211.384V220.801H211.316C211.191 221.044 211.015 221.271 210.788 221.483C210.564 221.691 210.282 221.86 209.941 221.989C209.604 222.114 209.208 222.176 208.754 222.176ZM209.288 220.665C209.701 220.665 210.059 220.583 210.362 220.42C210.665 220.254 210.898 220.034 211.061 219.761C211.227 219.489 211.311 219.191 211.311 218.869V217.841C211.246 217.894 211.136 217.943 210.981 217.989C210.829 218.034 210.659 218.074 210.47 218.108C210.28 218.142 210.093 218.172 209.907 218.199C209.721 218.225 209.561 218.248 209.424 218.267C209.117 218.309 208.843 218.377 208.6 218.472C208.358 218.566 208.167 218.699 208.026 218.869C207.886 219.036 207.816 219.252 207.816 219.517C207.816 219.896 207.954 220.182 208.231 220.375C208.507 220.568 208.86 220.665 209.288 220.665ZM217.498 210.364V222H215.441V210.364H217.498ZM227.638 222H223.694V210.364H227.717C228.872 210.364 229.865 210.597 230.694 211.062C231.528 211.525 232.168 212.189 232.615 213.057C233.062 213.924 233.285 214.962 233.285 216.17C233.285 217.383 233.06 218.424 232.609 219.295C232.162 220.167 231.516 220.835 230.672 221.301C229.831 221.767 228.819 222 227.638 222ZM225.802 220.176H227.535C228.346 220.176 229.022 220.028 229.564 219.733C230.105 219.434 230.513 218.989 230.785 218.398C231.058 217.803 231.194 217.061 231.194 216.17C231.194 215.28 231.058 214.542 230.785 213.955C230.513 213.364 230.109 212.922 229.575 212.631C229.045 212.335 228.386 212.188 227.598 212.188H225.802V220.176ZM235.208 222V213.273H237.265V222H235.208ZM236.242 212.034C235.917 212.034 235.636 211.926 235.401 211.71C235.167 211.491 235.049 211.227 235.049 210.92C235.049 210.61 235.167 210.347 235.401 210.131C235.636 209.911 235.917 209.801 236.242 209.801C236.572 209.801 236.852 209.911 237.083 210.131C237.318 210.347 237.435 210.61 237.435 210.92C237.435 211.227 237.318 211.491 237.083 211.71C236.852 211.926 236.572 212.034 236.242 212.034ZM239.391 222V213.273H241.357V214.756H241.459C241.641 214.256 241.942 213.866 242.363 213.585C242.783 213.301 243.285 213.159 243.868 213.159C244.459 213.159 244.957 213.303 245.363 213.591C245.772 213.875 246.06 214.263 246.226 214.756H246.317C246.51 214.271 246.836 213.884 247.294 213.597C247.757 213.305 248.304 213.159 248.937 213.159C249.74 213.159 250.395 213.413 250.902 213.92C251.41 214.428 251.664 215.169 251.664 216.142V222H249.601V216.46C249.601 215.919 249.457 215.523 249.169 215.273C248.882 215.019 248.529 214.892 248.113 214.892C247.616 214.892 247.228 215.047 246.948 215.358C246.671 215.665 246.533 216.064 246.533 216.557V222H244.516V216.375C244.516 215.924 244.38 215.564 244.107 215.295C243.838 215.027 243.486 214.892 243.05 214.892C242.755 214.892 242.486 214.968 242.243 215.119C242.001 215.267 241.808 215.477 241.664 215.75C241.52 216.019 241.448 216.333 241.448 216.693V222H239.391ZM259.324 218.33V213.273H261.381V222H259.386V220.449H259.296C259.099 220.937 258.775 221.337 258.324 221.648C257.877 221.958 257.326 222.114 256.671 222.114C256.099 222.114 255.593 221.987 255.153 221.733C254.718 221.475 254.377 221.102 254.131 220.614C253.885 220.121 253.761 219.527 253.761 218.83V213.273H255.818V218.511C255.818 219.064 255.97 219.504 256.273 219.83C256.576 220.155 256.974 220.318 257.466 220.318C257.769 220.318 258.063 220.244 258.347 220.097C258.631 219.949 258.864 219.729 259.046 219.438C259.231 219.142 259.324 218.773 259.324 218.33ZM266.018 222.176C265.465 222.176 264.967 222.078 264.524 221.881C264.084 221.68 263.736 221.384 263.478 220.994C263.225 220.604 263.098 220.123 263.098 219.551C263.098 219.059 263.189 218.652 263.37 218.33C263.552 218.008 263.8 217.75 264.115 217.557C264.429 217.364 264.783 217.218 265.177 217.119C265.575 217.017 265.986 216.943 266.41 216.898C266.922 216.845 267.336 216.797 267.655 216.756C267.973 216.71 268.204 216.642 268.348 216.551C268.495 216.456 268.569 216.311 268.569 216.114V216.08C268.569 215.652 268.442 215.32 268.189 215.085C267.935 214.85 267.569 214.733 267.092 214.733C266.588 214.733 266.189 214.843 265.893 215.062C265.602 215.282 265.405 215.542 265.302 215.841L263.382 215.568C263.533 215.038 263.783 214.595 264.132 214.239C264.48 213.879 264.906 213.61 265.41 213.432C265.914 213.25 266.471 213.159 267.081 213.159C267.501 213.159 267.92 213.208 268.336 213.307C268.753 213.405 269.134 213.568 269.478 213.795C269.823 214.019 270.1 214.324 270.308 214.71C270.52 215.097 270.626 215.58 270.626 216.159V222H268.649V220.801H268.581C268.456 221.044 268.28 221.271 268.052 221.483C267.829 221.691 267.547 221.86 267.206 221.989C266.869 222.114 266.473 222.176 266.018 222.176ZM266.552 220.665C266.965 220.665 267.323 220.583 267.626 220.42C267.929 220.254 268.162 220.034 268.325 219.761C268.492 219.489 268.575 219.191 268.575 218.869V217.841C268.511 217.894 268.401 217.943 268.245 217.989C268.094 218.034 267.923 218.074 267.734 218.108C267.545 218.142 267.357 218.172 267.172 218.199C266.986 218.225 266.825 218.248 266.689 218.267C266.382 218.309 266.107 218.377 265.865 218.472C265.622 218.566 265.431 218.699 265.291 218.869C265.151 219.036 265.081 219.252 265.081 219.517C265.081 219.896 265.219 220.182 265.495 220.375C265.772 220.568 266.124 220.665 266.552 220.665ZM277.063 213.273V214.864H272.046V213.273H277.063ZM273.285 211.182H275.342V219.375C275.342 219.652 275.383 219.864 275.467 220.011C275.554 220.155 275.667 220.254 275.808 220.307C275.948 220.36 276.103 220.386 276.273 220.386C276.402 220.386 276.52 220.377 276.626 220.358C276.736 220.339 276.819 220.322 276.876 220.307L277.222 221.915C277.113 221.953 276.955 221.994 276.751 222.04C276.55 222.085 276.304 222.112 276.012 222.119C275.497 222.134 275.033 222.057 274.62 221.886C274.207 221.712 273.88 221.443 273.637 221.08C273.398 220.716 273.281 220.261 273.285 219.716V211.182Z" fill="#2A2A2A"/>
<path d="M106.63 245.455C106.579 245.023 106.372 244.688 106.008 244.449C105.645 244.21 105.199 244.091 104.67 244.091C104.284 244.091 103.946 244.153 103.656 244.278C103.369 244.403 103.145 244.575 102.983 244.794C102.824 245.013 102.744 245.261 102.744 245.54C102.744 245.773 102.799 245.973 102.91 246.141C103.024 246.305 103.169 246.443 103.345 246.554C103.521 246.662 103.706 246.751 103.899 246.822C104.092 246.891 104.27 246.946 104.431 246.989L105.318 247.227C105.545 247.287 105.798 247.369 106.076 247.474C106.358 247.58 106.626 247.723 106.882 247.905C107.14 248.084 107.353 248.314 107.521 248.595C107.689 248.876 107.772 249.222 107.772 249.631C107.772 250.102 107.649 250.528 107.402 250.909C107.157 251.29 106.799 251.592 106.328 251.817C105.859 252.041 105.289 252.153 104.619 252.153C103.994 252.153 103.453 252.053 102.995 251.851C102.541 251.649 102.183 251.368 101.922 251.007C101.663 250.646 101.517 250.227 101.483 249.75H102.574C102.602 250.08 102.713 250.352 102.906 250.568C103.102 250.781 103.349 250.94 103.647 251.045C103.949 251.148 104.272 251.199 104.619 251.199C105.022 251.199 105.385 251.134 105.706 251.003C106.027 250.869 106.281 250.685 106.468 250.449C106.656 250.21 106.75 249.932 106.75 249.614C106.75 249.324 106.669 249.088 106.507 248.906C106.345 248.724 106.132 248.577 105.868 248.463C105.603 248.349 105.318 248.25 105.011 248.165L103.937 247.858C103.255 247.662 102.716 247.382 102.318 247.018C101.92 246.655 101.721 246.179 101.721 245.591C101.721 245.102 101.853 244.676 102.118 244.312C102.385 243.946 102.743 243.662 103.191 243.46C103.643 243.256 104.147 243.153 104.704 243.153C105.267 243.153 105.767 243.254 106.204 243.456C106.642 243.655 106.988 243.928 107.244 244.274C107.502 244.621 107.639 245.014 107.653 245.455H106.63ZM109.374 252V245.455H110.379V252H109.374ZM109.885 244.364C109.689 244.364 109.52 244.297 109.378 244.163C109.239 244.03 109.169 243.869 109.169 243.682C109.169 243.494 109.239 243.334 109.378 243.2C109.52 243.067 109.689 243 109.885 243C110.081 243 110.249 243.067 110.388 243.2C110.53 243.334 110.601 243.494 110.601 243.682C110.601 243.869 110.53 244.03 110.388 244.163C110.249 244.297 110.081 244.364 109.885 244.364ZM113.227 243.273V252H112.221V243.273H113.227ZM116.995 252.153C116.58 252.153 116.204 252.075 115.866 251.919C115.528 251.76 115.259 251.531 115.06 251.233C114.862 250.932 114.762 250.568 114.762 250.142C114.762 249.767 114.836 249.463 114.984 249.23C115.131 248.994 115.329 248.81 115.576 248.676C115.823 248.543 116.096 248.443 116.394 248.378C116.695 248.31 116.998 248.256 117.302 248.216C117.7 248.165 118.022 248.126 118.269 248.101C118.519 248.072 118.701 248.026 118.815 247.96C118.931 247.895 118.989 247.781 118.989 247.619V247.585C118.989 247.165 118.874 246.838 118.644 246.605C118.417 246.372 118.072 246.256 117.609 246.256C117.129 246.256 116.752 246.361 116.479 246.571C116.207 246.781 116.015 247.006 115.904 247.244L114.95 246.903C115.12 246.506 115.347 246.196 115.631 245.974C115.918 245.75 116.231 245.594 116.569 245.506C116.91 245.415 117.245 245.369 117.575 245.369C117.785 245.369 118.026 245.395 118.299 245.446C118.575 245.494 118.84 245.595 119.096 245.749C119.354 245.902 119.569 246.134 119.739 246.443C119.91 246.753 119.995 247.168 119.995 247.688V252H118.989V251.114H118.938C118.87 251.256 118.756 251.408 118.597 251.57C118.438 251.732 118.227 251.869 117.962 251.983C117.698 252.097 117.376 252.153 116.995 252.153ZM117.148 251.25C117.546 251.25 117.881 251.172 118.154 251.016C118.43 250.859 118.637 250.658 118.776 250.411C118.918 250.163 118.989 249.903 118.989 249.631V248.71C118.947 248.761 118.853 248.808 118.708 248.851C118.566 248.891 118.401 248.926 118.214 248.957C118.029 248.986 117.849 249.011 117.673 249.034C117.499 249.054 117.359 249.071 117.251 249.085C116.989 249.119 116.745 249.175 116.518 249.251C116.293 249.325 116.112 249.437 115.972 249.588C115.836 249.736 115.768 249.937 115.768 250.193C115.768 250.543 115.897 250.807 116.156 250.986C116.417 251.162 116.748 251.25 117.148 251.25ZM122.768 249.614L122.751 248.369H122.956L125.819 245.455H127.064L124.012 248.54H123.927L122.768 249.614ZM121.831 252V243.273H122.836V252H121.831ZM125.99 252L123.433 248.761L124.149 248.062L127.268 252H125.99ZM130.284 252.153C129.869 252.153 129.493 252.075 129.155 251.919C128.817 251.76 128.548 251.531 128.349 251.233C128.151 250.932 128.051 250.568 128.051 250.142C128.051 249.767 128.125 249.463 128.273 249.23C128.42 248.994 128.618 248.81 128.865 248.676C129.112 248.543 129.385 248.443 129.683 248.378C129.984 248.31 130.287 248.256 130.591 248.216C130.989 248.165 131.311 248.126 131.558 248.101C131.808 248.072 131.99 248.026 132.104 247.96C132.22 247.895 132.278 247.781 132.278 247.619V247.585C132.278 247.165 132.163 246.838 131.933 246.605C131.706 246.372 131.361 246.256 130.898 246.256C130.418 246.256 130.041 246.361 129.768 246.571C129.496 246.781 129.304 247.006 129.193 247.244L128.239 246.903C128.409 246.506 128.636 246.196 128.92 245.974C129.207 245.75 129.52 245.594 129.858 245.506C130.199 245.415 130.534 245.369 130.864 245.369C131.074 245.369 131.315 245.395 131.588 245.446C131.864 245.494 132.129 245.595 132.385 245.749C132.643 245.902 132.858 246.134 133.028 246.443C133.199 246.753 133.284 247.168 133.284 247.688V252H132.278V251.114H132.227C132.159 251.256 132.045 251.408 131.886 251.57C131.727 251.732 131.516 251.869 131.251 251.983C130.987 252.097 130.665 252.153 130.284 252.153ZM130.438 251.25C130.835 251.25 131.17 251.172 131.443 251.016C131.719 250.859 131.926 250.658 132.065 250.411C132.207 250.163 132.278 249.903 132.278 249.631V248.71C132.236 248.761 132.142 248.808 131.997 248.851C131.855 248.891 131.69 248.926 131.503 248.957C131.318 248.986 131.138 249.011 130.962 249.034C130.788 249.054 130.648 249.071 130.54 249.085C130.278 249.119 130.034 249.175 129.807 249.251C129.582 249.325 129.401 249.437 129.261 249.588C129.125 249.736 129.057 249.937 129.057 250.193C129.057 250.543 129.186 250.807 129.445 250.986C129.706 251.162 130.037 251.25 130.438 251.25ZM136.125 248.062V252H135.12V245.455H136.091V246.477H136.176C136.33 246.145 136.563 245.878 136.875 245.676C137.188 245.472 137.591 245.369 138.086 245.369C138.529 245.369 138.917 245.46 139.249 245.642C139.581 245.821 139.84 246.094 140.025 246.46C140.209 246.824 140.301 247.284 140.301 247.841V252H139.296V247.909C139.296 247.395 139.162 246.994 138.895 246.707C138.628 246.418 138.262 246.273 137.796 246.273C137.475 246.273 137.188 246.342 136.935 246.482C136.685 246.621 136.488 246.824 136.343 247.091C136.198 247.358 136.125 247.682 136.125 248.062ZM148.173 252.136C147.56 252.136 147.031 251.991 146.588 251.702C146.145 251.412 145.804 251.013 145.565 250.504C145.327 249.996 145.207 249.415 145.207 248.761C145.207 248.097 145.33 247.51 145.574 247.001C145.821 246.49 146.165 246.091 146.605 245.804C147.048 245.514 147.565 245.369 148.156 245.369C148.616 245.369 149.031 245.455 149.401 245.625C149.77 245.795 150.072 246.034 150.308 246.341C150.544 246.648 150.69 247.006 150.747 247.415H149.741C149.665 247.116 149.494 246.852 149.23 246.622C148.969 246.389 148.616 246.273 148.173 246.273C147.781 246.273 147.438 246.375 147.142 246.58C146.849 246.781 146.621 247.067 146.456 247.436C146.294 247.803 146.213 248.233 146.213 248.727C146.213 249.233 146.293 249.673 146.452 250.048C146.614 250.423 146.841 250.714 147.134 250.922C147.429 251.129 147.776 251.233 148.173 251.233C148.435 251.233 148.672 251.188 148.885 251.097C149.098 251.006 149.278 250.875 149.426 250.705C149.574 250.534 149.679 250.33 149.741 250.091H150.747C150.69 250.477 150.55 250.825 150.325 251.135C150.104 251.442 149.81 251.686 149.443 251.868C149.08 252.047 148.656 252.136 148.173 252.136ZM154.876 252.136C154.286 252.136 153.767 251.996 153.321 251.714C152.878 251.433 152.531 251.04 152.281 250.534C152.034 250.028 151.911 249.437 151.911 248.761C151.911 248.08 152.034 247.484 152.281 246.976C152.531 246.467 152.878 246.072 153.321 245.791C153.767 245.51 154.286 245.369 154.876 245.369C155.467 245.369 155.984 245.51 156.428 245.791C156.874 246.072 157.22 246.467 157.467 246.976C157.717 247.484 157.842 248.08 157.842 248.761C157.842 249.437 157.717 250.028 157.467 250.534C157.22 251.04 156.874 251.433 156.428 251.714C155.984 251.996 155.467 252.136 154.876 252.136ZM154.876 251.233C155.325 251.233 155.695 251.118 155.984 250.888C156.274 250.658 156.489 250.355 156.628 249.98C156.767 249.605 156.837 249.199 156.837 248.761C156.837 248.324 156.767 247.916 156.628 247.538C156.489 247.161 156.274 246.855 155.984 246.622C155.695 246.389 155.325 246.273 154.876 246.273C154.428 246.273 154.058 246.389 153.768 246.622C153.479 246.855 153.264 247.161 153.125 247.538C152.986 247.916 152.916 248.324 152.916 248.761C152.916 249.199 152.986 249.605 153.125 249.98C153.264 250.355 153.479 250.658 153.768 250.888C154.058 251.118 154.428 251.233 154.876 251.233ZM159.514 252V243.273H160.52V246.494H160.605C160.679 246.381 160.781 246.236 160.912 246.06C161.045 245.881 161.235 245.722 161.483 245.582C161.733 245.44 162.071 245.369 162.497 245.369C163.048 245.369 163.534 245.507 163.954 245.783C164.375 246.058 164.703 246.449 164.939 246.955C165.174 247.46 165.292 248.057 165.292 248.744C165.292 249.438 165.174 250.038 164.939 250.547C164.703 251.053 164.376 251.445 163.958 251.723C163.541 251.999 163.059 252.136 162.514 252.136C162.093 252.136 161.757 252.067 161.504 251.928C161.251 251.786 161.056 251.625 160.92 251.446C160.784 251.264 160.679 251.114 160.605 250.994H160.485V252H159.514ZM160.502 248.727C160.502 249.222 160.575 249.658 160.72 250.036C160.865 250.411 161.076 250.705 161.355 250.918C161.633 251.128 161.974 251.233 162.377 251.233C162.798 251.233 163.149 251.122 163.43 250.901C163.714 250.676 163.927 250.375 164.069 249.997C164.214 249.616 164.287 249.193 164.287 248.727C164.287 248.267 164.216 247.852 164.074 247.483C163.934 247.111 163.723 246.817 163.439 246.601C163.157 246.382 162.804 246.273 162.377 246.273C161.968 246.273 161.625 246.376 161.346 246.584C161.068 246.788 160.858 247.075 160.716 247.445C160.574 247.811 160.502 248.239 160.502 248.727ZM168.757 252.153C168.342 252.153 167.966 252.075 167.627 251.919C167.289 251.76 167.021 251.531 166.822 251.233C166.623 250.932 166.524 250.568 166.524 250.142C166.524 249.767 166.598 249.463 166.745 249.23C166.893 248.994 167.091 248.81 167.338 248.676C167.585 248.543 167.858 248.443 168.156 248.378C168.457 248.31 168.76 248.256 169.064 248.216C169.461 248.165 169.784 248.126 170.031 248.101C170.281 248.072 170.463 248.026 170.576 247.96C170.693 247.895 170.751 247.781 170.751 247.619V247.585C170.751 247.165 170.636 246.838 170.406 246.605C170.179 246.372 169.833 246.256 169.37 246.256C168.89 246.256 168.514 246.361 168.241 246.571C167.968 246.781 167.777 247.006 167.666 247.244L166.711 246.903C166.882 246.506 167.109 246.196 167.393 245.974C167.68 245.75 167.993 245.594 168.331 245.506C168.672 245.415 169.007 245.369 169.336 245.369C169.547 245.369 169.788 245.395 170.061 245.446C170.336 245.494 170.602 245.595 170.858 245.749C171.116 245.902 171.331 246.134 171.501 246.443C171.672 246.753 171.757 247.168 171.757 247.688V252H170.751V251.114H170.7C170.632 251.256 170.518 251.408 170.359 251.57C170.2 251.732 169.988 251.869 169.724 251.983C169.46 252.097 169.137 252.153 168.757 252.153ZM168.91 251.25C169.308 251.25 169.643 251.172 169.916 251.016C170.191 250.859 170.399 250.658 170.538 250.411C170.68 250.163 170.751 249.903 170.751 249.631V248.71C170.708 248.761 170.615 248.808 170.47 248.851C170.328 248.891 170.163 248.926 169.975 248.957C169.791 248.986 169.61 249.011 169.434 249.034C169.261 249.054 169.12 249.071 169.012 249.085C168.751 249.119 168.507 249.175 168.279 249.251C168.055 249.325 167.873 249.437 167.734 249.588C167.598 249.736 167.529 249.937 167.529 250.193C167.529 250.543 167.659 250.807 167.917 250.986C168.179 251.162 168.51 251.25 168.91 251.25ZM177.973 243.273V252H176.967V243.273H177.973ZM181.741 252.153C181.326 252.153 180.95 252.075 180.612 251.919C180.274 251.76 180.005 251.531 179.806 251.233C179.608 250.932 179.508 250.568 179.508 250.142C179.508 249.767 179.582 249.463 179.73 249.23C179.877 248.994 180.075 248.81 180.322 248.676C180.569 248.543 180.842 248.443 181.14 248.378C181.441 248.31 181.744 248.256 182.048 248.216C182.446 248.165 182.768 248.126 183.015 248.101C183.265 248.072 183.447 248.026 183.561 247.96C183.677 247.895 183.735 247.781 183.735 247.619V247.585C183.735 247.165 183.62 246.838 183.39 246.605C183.163 246.372 182.818 246.256 182.355 246.256C181.875 246.256 181.498 246.361 181.225 246.571C180.953 246.781 180.761 247.006 180.65 247.244L179.696 246.903C179.866 246.506 180.093 246.196 180.377 245.974C180.664 245.75 180.977 245.594 181.315 245.506C181.656 245.415 181.991 245.369 182.321 245.369C182.531 245.369 182.772 245.395 183.045 245.446C183.321 245.494 183.586 245.595 183.842 245.749C184.1 245.902 184.315 246.134 184.485 246.443C184.656 246.753 184.741 247.168 184.741 247.688V252H183.735V251.114H183.684C183.616 251.256 183.502 251.408 183.343 251.57C183.184 251.732 182.973 251.869 182.708 251.983C182.444 252.097 182.122 252.153 181.741 252.153ZM181.895 251.25C182.292 251.25 182.627 251.172 182.9 251.016C183.176 250.859 183.383 250.658 183.522 250.411C183.664 250.163 183.735 249.903 183.735 249.631V248.71C183.693 248.761 183.599 248.808 183.454 248.851C183.312 248.891 183.147 248.926 182.96 248.957C182.775 248.986 182.595 249.011 182.419 249.034C182.245 249.054 182.105 249.071 181.997 249.085C181.735 249.119 181.491 249.175 181.264 249.251C181.039 249.325 180.858 249.437 180.718 249.588C180.582 249.736 180.514 249.937 180.514 250.193C180.514 250.543 180.643 250.807 180.902 250.986C181.163 251.162 181.494 251.25 181.895 251.25ZM189.219 254.591C188.733 254.591 188.315 254.528 187.966 254.403C187.616 254.281 187.325 254.119 187.092 253.918C186.862 253.719 186.679 253.506 186.543 253.278L187.344 252.716C187.435 252.835 187.55 252.972 187.689 253.125C187.828 253.281 188.018 253.416 188.26 253.53C188.504 253.646 188.824 253.705 189.219 253.705C189.747 253.705 190.183 253.577 190.527 253.321C190.871 253.065 191.043 252.665 191.043 252.119V250.79H190.957C190.884 250.909 190.778 251.057 190.642 251.233C190.509 251.406 190.315 251.561 190.062 251.697C189.812 251.831 189.474 251.898 189.048 251.898C188.52 251.898 188.045 251.773 187.625 251.523C187.207 251.273 186.876 250.909 186.632 250.432C186.391 249.955 186.27 249.375 186.27 248.693C186.27 248.023 186.388 247.439 186.624 246.942C186.859 246.442 187.188 246.055 187.608 245.783C188.028 245.507 188.514 245.369 189.065 245.369C189.491 245.369 189.83 245.44 190.08 245.582C190.332 245.722 190.526 245.881 190.659 246.06C190.795 246.236 190.901 246.381 190.974 246.494H191.077V245.455H192.048V252.188C192.048 252.75 191.92 253.207 191.665 253.56C191.412 253.915 191.071 254.175 190.642 254.339C190.216 254.507 189.741 254.591 189.219 254.591ZM189.185 250.994C189.588 250.994 189.929 250.902 190.207 250.717C190.486 250.533 190.697 250.267 190.842 249.92C190.987 249.574 191.06 249.159 191.06 248.676C191.06 248.205 190.989 247.788 190.847 247.428C190.705 247.067 190.494 246.784 190.216 246.58C189.938 246.375 189.594 246.273 189.185 246.273C188.759 246.273 188.403 246.381 188.119 246.597C187.838 246.812 187.626 247.102 187.484 247.466C187.345 247.83 187.276 248.233 187.276 248.676C187.276 249.131 187.347 249.533 187.489 249.882C187.634 250.229 187.847 250.501 188.128 250.7C188.412 250.896 188.764 250.994 189.185 250.994ZM193.889 252V245.455H194.895V252H193.889ZM194.401 244.364C194.205 244.364 194.036 244.297 193.893 244.163C193.754 244.03 193.685 243.869 193.685 243.682C193.685 243.494 193.754 243.334 193.893 243.2C194.036 243.067 194.205 243 194.401 243C194.597 243 194.764 243.067 194.903 243.2C195.045 243.334 195.116 243.494 195.116 243.682C195.116 243.869 195.045 244.03 194.903 244.163C194.764 244.297 194.597 244.364 194.401 244.364ZM201.118 248.062V252H200.112V245.455H201.083V246.477H201.169C201.322 246.145 201.555 245.878 201.868 245.676C202.18 245.472 202.583 245.369 203.078 245.369C203.521 245.369 203.909 245.46 204.241 245.642C204.574 245.821 204.832 246.094 205.017 246.46C205.201 246.824 205.294 247.284 205.294 247.841V252H204.288V247.909C204.288 247.395 204.154 246.994 203.887 246.707C203.62 246.418 203.254 246.273 202.788 246.273C202.467 246.273 202.18 246.342 201.927 246.482C201.677 246.621 201.48 246.824 201.335 247.091C201.19 247.358 201.118 247.682 201.118 248.062ZM209.058 252.153C208.643 252.153 208.266 252.075 207.928 251.919C207.59 251.76 207.322 251.531 207.123 251.233C206.924 250.932 206.825 250.568 206.825 250.142C206.825 249.767 206.898 249.463 207.046 249.23C207.194 248.994 207.391 248.81 207.638 248.676C207.886 248.543 208.158 248.443 208.457 248.378C208.758 248.31 209.06 248.256 209.364 248.216C209.762 248.165 210.085 248.126 210.332 248.101C210.582 248.072 210.763 248.026 210.877 247.96C210.994 247.895 211.052 247.781 211.052 247.619V247.585C211.052 247.165 210.937 246.838 210.707 246.605C210.479 246.372 210.134 246.256 209.671 246.256C209.191 246.256 208.815 246.361 208.542 246.571C208.269 246.781 208.077 247.006 207.967 247.244L207.012 246.903C207.183 246.506 207.41 246.196 207.694 245.974C207.981 245.75 208.293 245.594 208.631 245.506C208.972 245.415 209.308 245.369 209.637 245.369C209.847 245.369 210.089 245.395 210.362 245.446C210.637 245.494 210.903 245.595 211.158 245.749C211.417 245.902 211.631 246.134 211.802 246.443C211.972 246.753 212.058 247.168 212.058 247.688V252H211.052V251.114H211.001C210.933 251.256 210.819 251.408 210.66 251.57C210.501 251.732 210.289 251.869 210.025 251.983C209.761 252.097 209.438 252.153 209.058 252.153ZM209.211 251.25C209.609 251.25 209.944 251.172 210.217 251.016C210.492 250.859 210.7 250.658 210.839 250.411C210.981 250.163 211.052 249.903 211.052 249.631V248.71C211.009 248.761 210.915 248.808 210.771 248.851C210.629 248.891 210.464 248.926 210.276 248.957C210.092 248.986 209.911 249.011 209.735 249.034C209.562 249.054 209.421 249.071 209.313 249.085C209.052 249.119 208.808 249.175 208.58 249.251C208.356 249.325 208.174 249.437 208.035 249.588C207.898 249.736 207.83 249.937 207.83 250.193C207.83 250.543 207.96 250.807 208.218 250.986C208.479 251.162 208.81 251.25 209.211 251.25ZM214.899 248.062V252H213.893V245.455H214.865V246.477H214.95C215.103 246.145 215.336 245.878 215.649 245.676C215.961 245.472 216.365 245.369 216.859 245.369C217.302 245.369 217.69 245.46 218.022 245.642C218.355 245.821 218.613 246.094 218.798 246.46C218.983 246.824 219.075 247.284 219.075 247.841V252H218.069V247.909C218.069 247.395 217.936 246.994 217.669 246.707C217.402 246.418 217.035 246.273 216.569 246.273C216.248 246.273 215.961 246.342 215.708 246.482C215.458 246.621 215.261 246.824 215.116 247.091C214.971 247.358 214.899 247.682 214.899 248.062ZM223.759 245.455V246.307H220.367V245.455H223.759ZM221.356 243.886H222.362V250.125C222.362 250.409 222.403 250.622 222.485 250.764C222.57 250.903 222.678 250.997 222.809 251.045C222.942 251.091 223.083 251.114 223.231 251.114C223.342 251.114 223.433 251.108 223.504 251.097C223.575 251.082 223.631 251.071 223.674 251.062L223.879 251.966C223.81 251.991 223.715 252.017 223.593 252.043C223.471 252.071 223.316 252.085 223.129 252.085C222.844 252.085 222.566 252.024 222.293 251.902C222.023 251.78 221.799 251.594 221.62 251.344C221.444 251.094 221.356 250.778 221.356 250.398V243.886ZM225.272 252V245.455H226.278V252H225.272ZM225.783 244.364C225.587 244.364 225.418 244.297 225.276 244.163C225.137 244.03 225.067 243.869 225.067 243.682C225.067 243.494 225.137 243.334 225.276 243.2C225.418 243.067 225.587 243 225.783 243C225.979 243 226.147 243.067 226.286 243.2C226.428 243.334 226.499 243.494 226.499 243.682C226.499 243.869 226.428 244.03 226.286 244.163C226.147 244.297 225.979 244.364 225.783 244.364Z" fill="#8B8B8B"/>
<defs>
<clipPath id="clip0_6725_71491">
<rect width="137.493" height="103.573" fill="white" transform="translate(82.4004 71.8936)"/>
</clipPath>
<clipPath id="clip1_6725_71491">
<rect width="92.3733" height="134.507" fill="white" transform="translate(109.707 38.293)"/>
</clipPath>
<clipPath id="clip2_6725_71491">
<rect width="53.2267" height="44.16" fill="white" transform="translate(185 25)"/>
</clipPath>
</defs>
</svg>
